<?xml version="1.0" encoding="UTF-8" standalone="no"?>
<!-- Created with Inkscape (http://www.inkscape.org/) -->

<svg
   width="512"
   height="512"
   viewBox="0 0 135.46667 135.46666"
   version="1.1"
   id="svg1"
   xmlns="http://www.w3.org/2000/svg"
   xmlns:svg="http://www.w3.org/2000/svg">
  <defs
     id="defs1" />
  <g
     id="layer10"
     style="display:inline"
     transform="translate(-1309.7913,149.70097)">
    <rect
       style="font-variation-settings:normal;opacity:1;vector-effect:none;fill:#000000;fill-opacity:1;fill-rule:evenodd;stroke:none;stroke-width:0.264583;stroke-linecap:butt;stroke-linejoin:miter;stroke-miterlimit:4;stroke-dasharray:none;stroke-dashoffset:0;stroke-opacity:1;-inkscape-stroke:none;stop-color:#000000;stop-opacity:1"
       id="rect6"
       width="135.46671"
       height="135.46666"
       x="1309.7913"
       y="-149.70097" />
  </g>
  <g
     id="layer1"
     transform="translate(-1309.7913,149.70097)">
    <path
       style="font-weight:bold;font-size:333.333px;line-height:1.25;font-family:'Atkinson Hyperlegible';-inkscape-font-specification:'Atkinson Hyperlegible Bold';text-align:center;letter-spacing:0px;word-spacing:0px;white-space:pre;fill:#ffffff;stroke-width:0.529166;paint-order:stroke fill markers"
       d="m 1403.9716,-38.201987 c 7.9145,0 16.1732,-4.530799 16.1732,-12.674766 0,-7.91456 -7.5705,-9.86452 -13.7645,-11.12626 l -5.1616,-1.03234 c -2.6382,-0.51616 -4.3588,-1.94996 -4.3588,-3.89993 0,-2.35142 2.6382,-3.67051 6.1367,-3.67051 3.6131,0 6.2513,1.43379 7.2837,4.01463 l 8.2013,-2.9823 c -2.4088,-5.90724 -8.4881,-8.31602 -14.6821,-8.31602 -7.6851,0 -16.2306,3.67052 -16.2306,11.87184 0,6.53811 5.3911,9.520407 11.6425,10.782147 l 4.6454,0.917631 c 4.1294,0.802926 6.997,2.122019 6.997,4.817557 0,2.982298 -3.5558,4.014631 -6.8249,4.014631 -4.244,0 -7.341,-1.720556 -8.3734,-5.391076 l -8.2586,2.982298 c 2.3514,6.136651 8.2013,9.692468 16.5747,9.692468 z"
       id="path4" />
    <path
       style="font-weight:bold;font-size:333.333px;line-height:1.25;font-family:'Atkinson Hyperlegible';-inkscape-font-specification:'Atkinson Hyperlegible Bold';text-align:center;letter-spacing:0px;word-spacing:0px;white-space:pre;fill:#ffffff;stroke-width:0.529166;paint-order:stroke fill markers"
       d="m 1340.7254,-38.89021 h 8.7748 v -30.109733 l 9.0616,30.109733 h 7.4558 l 9.1189,-30.109733 v 30.109733 h 8.8322 v -38.311053 h -13.5924 l -8.0866,27.471548 -7.9719,-27.471548 h -13.5924 z"
       id="path3" />
    <g
       id="g9"
       transform="translate(7.991755,-5.4545907)">
      <path
         style="font-weight:bold;font-size:333.333px;line-height:1.25;font-family:'Atkinson Hyperlegible';-inkscape-font-specification:'Atkinson Hyperlegible Bold';text-align:center;letter-spacing:0px;word-spacing:0px;white-space:pre;fill:#ffffff;stroke-width:0.529166;paint-order:stroke fill markers"
         d="m 1369.0373,-81.967647 h 9.8645 l 2.2941,-6.824874 h 14.682 l 2.2941,6.824874 h 9.8645 l -14.51,-38.311053 h -9.9792 z m 14.6247,-14.165913 4.8175,-14.56738 4.9323,14.56738 z"
         id="path2" />
      <path
         style="font-weight:bold;font-size:333.333px;line-height:1.25;font-family:'Atkinson Hyperlegible';-inkscape-font-specification:'Atkinson Hyperlegible Bold';text-align:center;letter-spacing:0px;word-spacing:0px;white-space:pre;fill:#ffffff;stroke-width:0.529166;paint-order:stroke fill markers"
         d="m 1332.7336,-81.967647 h 9.0616 v -14.452674 h 4.072 l 10.3807,14.452674 h 10.4953 l -11.1262,-15.427655 c 7.2837,-1.949964 9.2336,-6.652818 9.2336,-11.011558 0,-9.52041 -7.4557,-11.87184 -17.3776,-11.87184 h -14.7394 z m 9.0616,-22.023123 v -8.66013 h 5.9646 c 4.244,0 7.5131,0.80292 7.5131,4.35874 0,3.55582 -3.2691,4.30139 -7.5131,4.30139 z"
         id="text13" />
    </g>
  </g>
</svg>
