<?xml version="1.0" standalone="no"?>
<!DOCTYPE svg PUBLIC "-//W3C//DTD SVG 1.1//EN" "http://www.w3.org/Graphics/SVG/1.1/DTD/svg11.dtd" >
<svg xmlns="http://www.w3.org/2000/svg" xmlns:xlink="http://www.w3.org/1999/xlink" version="1.1">
<metadata>
Created by FontForge 20230101 at Fri Sep 01 02:37:03 2023
 By jacob
Copyright 2020 Braille Institute of America, Inc.
</metadata>
<defs>
<font id="AtkinsonHyperPro-BoldItalic" horiz-adv-x="0" >
  <font-face 
    font-family="Atkinson Hyperlegible Pro"
    font-weight="700"
    font-style="italic"
    font-stretch="normal"
    units-per-em="1000"
    panose-1="0 0 0 0 0 0 0 0 0 0"
    ascent="800"
    descent="-200"
    x-height="496"
    cap-height="668"
    bbox="-174 -246.258 1417 941"
    underline-thickness="57"
    underline-position="-106"
    slope="-12"
    unicode-range="U+000D-1F12F"
  />
<missing-glyph horiz-adv-x="676" 
d="M129 0v700h427v-700h-427zM342 371l186 309h-371zM536 47v605l-181 -302zM150 49l180 301l-180 300v-601zM158 21h370l-185 308z" />
    <glyph glyph-name="f_i" unicode="fi" horiz-adv-x="678" 
d="M18 0l81 380h-80l24 116h81l11 51q12 54 26.5 89.5t39 55t64.5 27.5t101 8h68l-25 -119h-41q-31 0 -46 -5t-22 -22.5q-7.42564 -19.9564 -15 -53.5l-7 -31h371l-105 -496h-156l81 380h-216l-80 -380h-155zM606 578q-37 0 -63 26.5t-26 63.5t26 63t63 26q38 0 64 -26
t26 -63t-26 -63.5t-64 -26.5z" />
    <glyph glyph-name="f_f" unicode="ff" horiz-adv-x="749" 
d="M388 0l81 380h-216l-80 -380h-155l81 380h-80l24 116h81l11 51q11 52 26.5 89.5q14.5 35.5 39 55t64.5 27.5t101 8h68l-25 -119h-41q-31 0 -46 -5t-22 -22.5q-7.86957 -21.9224 -15 -53.5l-7 -31h216l11 51q11 52 26.5 89.5q14.5 35.5 39 55t64.5 27.5t101 8h68l-25 -119
h-41q-31 0 -46 -5t-22 -22.5q-7.86957 -21.9224 -15 -53.5l-7 -31h107l-25 -116h-107l-80 -380h-155z" />
    <glyph glyph-name="f_f_i" unicode="ffi" horiz-adv-x="1048" 
d="M758 0l81 380h-216l-80 -380h-155l81 380h-216l-80 -380h-155l81 380h-80l24 116h81l11 51q11 53 26.5 89.5q14.5 35.5 39 55t64.5 27.5t101 8h68l-25 -119h-41q-31 0 -46 -5t-22 -22.5q-7.42564 -19.9564 -15 -53.5l-7 -31h216l11 51q12 55 26.5 89.5q14.5 35.5 39 55
t64.5 27.5t101 8h68l-25 -119h-41q-31 0 -46 -5t-22 -22.5q-7.86957 -21.9224 -15 -53.5l-7 -31h371l-105 -496h-156zM976 578q-37 0 -63 26.5t-26 63.5t26 63t63 26q38 0 64 -26t26 -63t-26 -63.5t-64 -26.5z" />
    <glyph glyph-name="f_l" unicode="fl" horiz-adv-x="726" 
d="M556 0q-66 0 -104.5 22t-38.5 77q0 9 1.5 19.5q3.5 20.5 3.5 21.5l50.9092 240h-215.909l-80 -380h-155l81 380h-80l24 116h81l11 51q11 52 26.5 89.5q14.5 35.5 39 55t64.5 27.5t101 8h68l-25 -119h-41q-31 0 -46 -5t-22 -22.5q-7.86957 -21.9224 -15 -53.5l-7 -31
h215.516l36.4844 172h156l-98 -464q-4 -20 -5 -24.5q-2 -11.5 -2 -20.5q0 -17 11.5 -26t43.5 -9h43l-26 -124h-97z" />
    <glyph glyph-name="f_f_l" unicode="ffl" horiz-adv-x="1096" 
d="M926 0q-66 0 -104.5 22t-38.5 77q0 9 1.5 19.5q3.5 20.5 3.5 21.5l50.9092 240h-215.909l-80 -380h-155l81 380h-216l-80 -380h-155l81 380h-80l24 116h81l11 51q12 55 26.5 89.5q14.5 35.5 39 55t64.5 27.5t101 8h68l-25 -119h-41q-31 0 -46 -5t-22 -22.5
q-7.86957 -21.9224 -15 -53.5l-7 -31h216l11 51q12 55 26.5 89.5q14.5 35.5 39 55t64.5 27.5t101 8h68l-25 -119h-41q-31 0 -46 -5t-22 -22.5q-7.86957 -21.9224 -15 -53.5l-7 -31h215.516l36.4844 172h156l-98 -464q-4 -20 -5 -24.5q-2 -11.5 -2 -20.5q0 -17 11.5 -26
t43.5 -9h43l-26 -124h-97z" />
    <glyph glyph-name=".notdef" horiz-adv-x="676" 
d="M129 0v700h427v-700h-427zM342 371l186 309h-371zM536 47v605l-181 -302zM150 49l180 301l-180 300v-601zM158 21h370l-185 308z" />
    <glyph glyph-name="NULL" horiz-adv-x="600" 
 />
    <glyph glyph-name="CR" unicode="&#xd;" 
 />
    <glyph glyph-name="space" unicode=" " horiz-adv-x="320" 
 />
    <glyph glyph-name="uni00A0" unicode="&#xa0;" horiz-adv-x="320" 
 />
    <glyph glyph-name="zero" unicode="0" horiz-adv-x="659" 
d="M300 -12q-126 0 -189.5 76t-63.5 207q0 31 3 64q17 161 99.5 253t222.5 92q126 0 189.5 -74.5t63.5 -207.5q0 -30 -3 -63q-11 -106 -51.5 -184t-108.5 -120.5t-162 -42.5zM444 227q8 23 13.5 50t8.5 58q2 14 3 29.5t1 31.5q0 40 -8.5 79t-32.5 65.5t-69 26.5
q-37 0 -69 -23zM312 101q40 0 73 27l-155 322q-8 -24 -14.5 -52.5t-9.5 -62.5q-1 -16 -2.5 -31.5t-1.5 -30.5q0 -74 25.5 -123t84.5 -49z" />
    <glyph glyph-name="one" unicode="1" horiz-adv-x="455" 
d="M132 0l96 449h-156l26 122q54 0 92 7.5t66.5 28.5t53.5 61h118l-141 -668h-155z" />
    <glyph glyph-name="two" unicode="2" horiz-adv-x="587" 
d="M-35 0l26 125q127 65 223.5 128t151 123t54.5 114q0 38 -25.5 58t-60.5 20q-33 0 -67.5 -19t-58.5 -60l-127 50q27 48 70.5 79t95.5 46.5t103 15.5q60 0 112 -20t84 -59.5t32 -98.5q0 -55 -29.5 -107t-81 -99.5t-119 -90t-144.5 -80.5h300l-26 -125h-513z" />
    <glyph glyph-name="three" unicode="3" horiz-adv-x="619" 
d="M267 -12q-56 0 -107 13.5t-91 46.5t-63 92l149 50q8 -49 41 -69t72 -20q46 0 79.5 24t33.5 65q0 33 -16 53t-42.5 30.5t-57.5 14t-60 3.5l22 106q84 0 138 21t54 70q0 40 -27.5 59.5t-65.5 19.5q-40 0 -74.5 -17.5t-47.5 -64.5l-127 50q44 83 113 114t154 31
q64 0 117.5 -19.5t85.5 -56.5t32 -91q0 -48 -16 -80t-41.5 -52t-56.5 -32q41 -23 59.5 -62.5t14.5 -86.5q-6 -70 -44.5 -117.5t-98.5 -71t-129 -23.5z" />
    <glyph glyph-name="four" unicode="4" horiz-adv-x="646" 
d="M294 0l30 141h-340l23 111l414 416h171l-84 -393h92l-28 -134h-92l-30 -141h-156zM193 275h159l42 194z" />
    <glyph glyph-name="five" unicode="5" horiz-adv-x="616" 
d="M268 -12q-56 0 -108.5 17.5t-90.5 52t-52 84.5l139 47q8 -44 41.5 -66.5t71.5 -22.5q53 0 86 34t33 89q0 39 -16 64.5t-41.5 37.5t-53.5 12q-33 0 -63 -15.5t-46 -45.5l-127 51l115 341h430l-26 -124h-301l-42 -125q25 14 55 21.5t61 7.5q52 0 100.5 -21.5t79.5 -67
t31 -117.5q0 -80 -37 -137t-99.5 -87t-139.5 -30z" />
    <glyph glyph-name="six" unicode="6" horiz-adv-x="629" 
d="M289 -12q-86 0 -140.5 34.5t-80 95.5t-25.5 140q0 86 22 162t63.5 134.5t102.5 92t139 33.5q74 0 123 -27t74 -70l-138 -48q-11 17 -30 26t-47 9q-52 0 -87 -44t-45 -117q26 20 55 31.5t74 11.5q58 0 106.5 -25t77.5 -72t29 -112q0 -72 -35.5 -130t-97.5 -91.5
t-140 -33.5zM293 101q48 0 80.5 36t33.5 90q0 57 -27 84.5t-72 27.5q-58 0 -87 -37t-29 -93q0 -47 27.5 -77.5t73.5 -30.5z" />
    <glyph glyph-name="seven" unicode="7" horiz-adv-x="561" 
d="M13 0l387 543h-347l27 125h513l-26 -125l-373 -543h-181z" />
    <glyph glyph-name="eight" unicode="8" horiz-adv-x="623" 
d="M274 -12q-81 0 -139.5 25t-90.5 70t-32 103q0 68 35.5 113t99.5 79q-12 22 -19 46.5t-7 52.5q0 51 26 97.5t74 76t113 29.5q52 0 91 -24.5t61 -62.5t22 -81q0 -34 -15 -75t-38 -64q44 -23 72.5 -60t28.5 -102q0 -64 -35.5 -114.5t-99 -79.5t-147.5 -29zM307 417
q29 0 52 23t23 54q0 26 -17.5 43.5t-43.5 17.5q-29 0 -52 -22t-23 -54q0 -26 17.5 -44t43.5 -18zM280 114q54 0 88 28.5t34 72.5q0 38 -31.5 58.5t-79.5 20.5q-55 0 -89.5 -25t-34.5 -71q0 -37 31.5 -60.5t81.5 -23.5z" />
    <glyph glyph-name="nine" unicode="9" horiz-adv-x="576" 
d="M106 0l165 222h-17q-60 2 -103 30t-66 72.5t-23 95.5q0 53 21.5 100.5t59 83.5t86 56.5t103.5 20.5q64 0 114.5 -27.5t80 -75t29.5 -106.5q0 -35 -12.5 -73.5t-41.5 -79.5q-18 -26 -43.5 -62.5t-53.5 -76.5t-53.5 -77t-44.5 -64.5t-27 -38.5h-174zM297 336q37 0 64 17.5
t41.5 44t14.5 54.5q0 42 -24 68t-66 26q-37 0 -65 -17t-44 -45t-16 -62q0 -42 28.5 -64t66.5 -22z" />
    <glyph glyph-name="A" unicode="A" horiz-adv-x="698" 
d="M-65 0l394 668h183l111 -668h-165l-16 119h-255l-66 -119h-186zM255 247h172l-32 254z" />
    <glyph glyph-name="B" unicode="B" horiz-adv-x="643" 
d="M-23 0l142 668h294q59 0 109 -12t80.5 -43t30.5 -89q0 -56 -28.5 -100.5t-81.5 -68.5q35 -16 56 -46.5t21 -79.5q0 -80 -43.5 -130.5t-115.5 -74.5t-158 -24h-306zM224 404h139q44 0 72.5 21.5t28.5 58.5q0 25 -18 40t-55 15h-138zM166 131h147q53 0 86.5 26.5t33.5 64.5
q0 29 -25 44.5t-69 15.5h-141z" />
    <glyph glyph-name="C" unicode="C" horiz-adv-x="673" 
d="M322 -12q-82 0 -148 30.5t-104 92t-38 154.5q0 89 27 164.5t77 131.5t121.5 87.5t159.5 31.5q52 0 103.5 -14.5t91.5 -48.5t59 -92l-146 -49q-18 42 -50.5 58t-73.5 16q-47 0 -84 -22.5t-63 -60.5t-40 -85.5t-14 -98.5q0 -81 38.5 -121.5t99.5 -41.5q38 0 74 16t68 58
l136 -53q-46 -71 -119 -112t-175 -41z" />
    <glyph glyph-name="D" unicode="D" horiz-adv-x="690" 
d="M-23 0l142 668h194q188 0 279 -91t59 -265q-16 -89 -60.5 -149.5t-107.5 -96t-136 -51t-147 -15.5h-223zM167 133h63q81 0 135.5 28.5t85 79t37.5 114.5q12 102 -28.5 142t-148.5 40h-58z" />
    <glyph glyph-name="E" unicode="E" horiz-adv-x="582" 
d="M-23 0l142 668h518l-30 -139h-356l-25 -116h217l-29 -139h-217l-29 -135h356l-29 -139h-518z" />
    <glyph glyph-name="F" unicode="F" horiz-adv-x="545" 
d="M-23 0l142 668h481l-29 -139h-320l-25 -116h320l-29 -139h-320l-59 -274h-161z" />
    <glyph glyph-name="G" unicode="G" horiz-adv-x="733" 
d="M282 -12q-67 0 -124 31t-92 92t-35 150t27.5 165.5t79 133.5t123.5 88.5t161 31.5q88 0 155.5 -34t99.5 -111l-148 -57q-10 26 -43.5 49t-85.5 23q-49 0 -86.5 -23.5t-63 -62.5t-38.5 -87.5t-13 -98.5q0 -80 39.5 -120.5t105.5 -40.5q34 0 68 12.5t59.5 37.5t33.5 64
l4 19h-150l27 128h312l-81 -378h-107l-6 74q-83 -86 -222 -86z" />
    <glyph glyph-name="H" unicode="H" horiz-adv-x="695" 
d="M-23 0l142 668h160l-53 -255h276l54 255h161l-142 -668h-161l58 274h-275l-59 -274h-161z" />
    <glyph glyph-name="I" unicode="I" horiz-adv-x="459" 
d="M-13 0l26 124h92l90 420h-92l26 124h345l-27 -124h-92l-88 -420h91l-27 -124h-344z" />
    <glyph glyph-name="J" unicode="J" horiz-adv-x="566" 
d="M195 -12q-68 0 -117 25t-76 67.5t-30 95.5l157 52q-1 -7 -1 -13v-12q0 -41 18 -65.5t66 -24.5q55 0 83 32t44 111l87 412h162l-88 -412q-22 -103 -62.5 -161.5t-101 -82.5t-141.5 -24z" />
    <glyph glyph-name="K" unicode="K" horiz-adv-x="657" 
d="M-23 0l142 668h160l-50 -242l272 242h214l-331 -291l193 -377h-166l-141 277l-90 -80l-42 -197h-161z" />
    <glyph glyph-name="L" unicode="L" horiz-adv-x="543" 
d="M-23 0l142 668h160l-111 -529h320l-30 -139h-481z" />
    <glyph glyph-name="M" unicode="M" horiz-adv-x="858" 
d="M-23 0l142 668h237l38 -475l241 475h245l-143 -668h-156l109 510l-264 -510h-132l-47 533l-113 -533h-157z" />
    <glyph glyph-name="N" unicode="N" horiz-adv-x="715" 
d="M-23 0l142 668h199l160 -485l104 485h155l-142 -668h-199l-160 485l-103 -485h-156z" />
    <glyph glyph-name="O" unicode="O" horiz-adv-x="763" 
d="M335 -12q-96 0 -163.5 35.5t-103.5 99t-36 146.5q0 86 29 160.5t82 131t125 88t158 31.5q91 0 159.5 -33t107.5 -97t39 -157q0 -87 -29.5 -160.5t-83 -128.5t-126 -85.5t-158.5 -30.5zM349 118q65 0 113 36.5t75 96.5t27 128q0 59 -21.5 96.5t-55.5 56t-73 18.5
q-49 0 -88.5 -22.5t-67.5 -60.5t-42.5 -85t-14.5 -96q0 -46 16.5 -84t49.5 -61t82 -23z" />
    <glyph glyph-name="P" unicode="P" horiz-adv-x="628" 
d="M-23 0l142 668h260q97 0 153.5 -21.5t81 -61.5t24.5 -95q0 -91 -42 -148t-117 -83.5t-175 -26.5h-117l-49 -232h-161zM216 363h103q69 0 110 25t41 80q0 67 -115 67h-103z" />
    <glyph glyph-name="Q" unicode="Q" horiz-adv-x="774" 
d="M617 -55l-94 111q-40 -20 -86.5 -31t-96.5 -11q-96 0 -163.5 36t-103.5 99.5t-36 145.5q0 86 29 160.5t81.5 131t124.5 88t159 31.5q90 0 159 -33t108 -97t39 -156q0 -81 -29.5 -158.5t-85.5 -134.5l87 -102zM354 145q42 0 79 17l-103 123l91 78l103 -120q21 35 33 78
t12 84q0 59 -21.5 97t-55.5 56t-73 18q-49 0 -88.5 -22.5t-67.5 -60.5t-42.5 -85.5t-14.5 -96.5q0 -45 16.5 -82.5t49.5 -60.5t82 -23z" />
    <glyph glyph-name="R" unicode="R" horiz-adv-x="644" 
d="M-23 0l142 668h250q122 0 191.5 -40.5t69.5 -138.5q0 -102 -54.5 -153.5t-155.5 -66.5l137 -269h-166l-128 252h-71l-54 -252h-161zM220 384h103q39 0 70.5 6.5t50.5 26t19 56.5q0 38 -32.5 50t-84.5 12h-94z" />
    <glyph glyph-name="S" unicode="S" horiz-adv-x="642" 
d="M306 -12q-109 0 -187 45t-109 124l155 52q8 -33 31 -54t54.5 -31t62.5 -10q44 0 77.5 17t33.5 48q0 25 -19.5 42t-52 29t-71.5 24t-77.5 27t-71 37.5t-52 55.5t-19.5 81q0 54 23.5 92.5t63 63.5t89.5 37t104 12q50 0 100 -13.5t93.5 -45.5t71.5 -86l-155 -52
q-13 35 -49 51.5t-73 16.5q-51 0 -78 -16.5t-27 -42.5q0 -27 19.5 -43.5t52 -28.5t71.5 -22.5t78 -24t71.5 -34.5t52 -53t19.5 -80q0 -72 -40 -120.5t-104.5 -73t-137.5 -24.5z" />
    <glyph glyph-name="T" unicode="T" horiz-adv-x="617" 
d="M158 0l112 529h-213l30 139h586l-29 -139h-214l-111 -529h-161z" />
    <glyph glyph-name="U" unicode="U" horiz-adv-x="679" 
d="M266 -12q-90 0 -142.5 26t-75 71t-22.5 102q0 25 3.5 51t9.5 54l81 376h161l-83 -389q-4 -21 -7 -39.5t-3 -35.5q0 -40 22.5 -63.5t83.5 -23.5q55 0 86.5 20t49 56.5t27.5 85.5l83 389h161l-80 -376q-20 -94 -50.5 -153.5t-73 -92.5t-100 -45.5t-131.5 -12.5z" />
    <glyph glyph-name="V" unicode="V" horiz-adv-x="662" 
d="M166 0l-84 668h158l49 -491l257 491h178l-368 -668h-190z" />
    <glyph glyph-name="W" unicode="W" horiz-adv-x="889" 
d="M101 0l-19 668h153l-5 -446l189 446h169v-463l195 463h168l-303 -668h-180v470l-202 -470h-165z" />
    <glyph glyph-name="X" unicode="X" horiz-adv-x="706" 
d="M-60 0l330 356l-155 312h171l96 -191l176 191h210l-312 -337l165 -331h-173l-105 210l-192 -210h-211z" />
    <glyph glyph-name="Y" unicode="Y" horiz-adv-x="700" 
d="M191 0l51 241l-160 427h171l86 -277l219 277h204l-358 -427l-50 -241h-163z" />
    <glyph glyph-name="Z" unicode="Z" horiz-adv-x="632" 
d="M-38 0l26 121l423 408h-311l30 139h538l-26 -121l-421 -408h339l-30 -139h-568z" />
    <glyph glyph-name="a" unicode="a" horiz-adv-x="545" 
d="M130 -12q-38 0 -72 15.5t-55 45t-21 69.5q0 56 32 91.5t85 56.5t115.5 32t123.5 17q4 15 5 24t1 15q0 29 -19 41t-53 12q-32 0 -60 -14.5t-42 -44.5l-117 46q38 59 97 87.5t143 28.5q58 0 103.5 -17.5t71.5 -52.5t26 -87q0 -20 -5.5 -50t-12.5 -59.5t-11 -50.5
q-7 -32 -12.5 -69t-8.5 -69.5t-3 -54.5h-144l-5 59q-34 -41 -71.5 -56t-90.5 -15zM208 91q41 0 70.5 26.5t46.5 95.5l3 12q-84 -7 -134.5 -26.5t-50.5 -60.5q0 -22 19 -34.5t46 -12.5z" />
    <glyph glyph-name="b" unicode="b" horiz-adv-x="592" 
d="M293 -12q-41 0 -79 18t-65 60l-34 -66h-136l142 668h155l-49 -232q28 38 67 56t79 18q50 0 91 -23.5t65.5 -69.5t24.5 -114q0 -62 -18.5 -119t-52.5 -101t-82 -69.5t-108 -25.5zM266 105q33 0 62.5 20t48 58t18.5 92q0 53 -21 85t-64 32q-46 0 -76 -28.5t-44.5 -71
t-14.5 -84.5q0 -52 27 -77.5t64 -25.5z" />
    <glyph glyph-name="c" unicode="c" horiz-adv-x="531" 
d="M223 -12q-105 0 -163 57.5t-58 148.5q0 90 40.5 161.5t111.5 113t162 41.5q65 0 116.5 -27.5t78.5 -100.5l-133 -46q-7 32 -28 44t-51 12q-48 0 -79.5 -29.5t-47.5 -74.5t-16 -90q0 -50 24 -71.5t56 -21.5t57 10t48 39l123 -47q-48 -67 -112.5 -93t-128.5 -26z" />
    <glyph glyph-name="d" unicode="d" horiz-adv-x="592" 
d="M187 -12q-82 0 -133 54.5t-51 148.5q0 63 18 120.5t52.5 102t83 70.5t109.5 26q48 0 85.5 -24t53.5 -65l53 247h155l-6 -26.5t-15.5 -70t-20.5 -96.5t-22.5 -106.5t-21 -99.5t-15.5 -76q-7 -37 -15 -88t-9 -105h-149l-5 63q-31 -40 -69 -57.5t-78 -17.5zM251 105
q42 0 71.5 28.5t44.5 71t15 84.5q0 38 -14 60.5t-34.5 32.5t-40.5 10q-45 0 -74 -25.5t-43 -66t-14 -84.5q0 -46 21.5 -78.5t67.5 -32.5z" />
    <glyph glyph-name="e" unicode="e" horiz-adv-x="567" 
d="M229 -12q-105 0 -165.5 54.5t-60.5 153.5q0 66 22.5 123t63.5 100t96.5 67t121.5 24q107 0 165 -57.5t58 -154.5q0 -21 -2.5 -43t-8.5 -46h-365q-1 -6 -1.5 -11t-0.5 -10q0 -44 31 -63t71 -19q30 0 58.5 9.5t45.5 26.5l114 -44q-43 -53 -105 -81.5t-138 -28.5zM168 299
h227q1 4 1 7v7q0 44 -28 65t-66 21q-40 0 -80 -25t-54 -75z" />
    <glyph glyph-name="f" unicode="f" horiz-adv-x="379" 
d="M18 0l81 380h-80l24 116h81l11 51q12 54 26.5 89.5t39 55t64.5 27.5t101 8h68l-25 -119h-41q-31 0 -46 -5t-22 -22.5t-15 -53.5l-7 -31h107l-25 -116h-107l-80 -380h-155z" />
    <glyph glyph-name="g" unicode="g" horiz-adv-x="594" 
d="M194 -207q-50 0 -95 15t-77 42.5t-44 64.5l134 44q7 -22 31 -34.5t53 -12.5q39 0 76 22.5t47 71.5l18 85q-31 -37 -70 -55.5t-80 -18.5q-47 0 -88.5 23.5t-67 67.5t-25.5 106q0 57 18.5 110t53 95.5t81.5 67t103 24.5q48 0 88 -21t59 -61l34 67h134q-25 -119 -50 -239
t-51 -239q-18 -80 -62.5 -129.5t-102.5 -72.5t-117 -23zM247 131q46 0 76 24.5t45.5 63.5t15.5 82q0 47 -25 70.5t-63 23.5q-43 0 -72.5 -22.5t-44.5 -59.5t-15 -79q0 -49 23.5 -76t59.5 -27z" />
    <glyph glyph-name="h" unicode="h" horiz-adv-x="580" 
d="M-21 0l142 668h151l-50 -236q21 29 64.5 53.5t109.5 24.5q59 0 95.5 -33.5t36.5 -110.5q0 -19 -2.5 -40t-7.5 -45l-60 -281h-156l56 263q9 39 9 65q0 34 -14 49t-42 15q-95 0 -122 -138l-54 -254h-156z" />
    <glyph glyph-name="i" unicode="i" horiz-adv-x="338" 
d="M266 578q-37 0 -63 26.5t-26 63.5t26 63t63 26q38 0 64 -26t26 -63t-26 -63.5t-64 -26.5zM48 0l81 380h-103l25 116h258l-105 -496h-156z" />
    <glyph glyph-name="j" unicode="j" horiz-adv-x="263" 
d="M206 578q-37 0 -63.5 26.5t-26.5 63.5q0 38 26.5 64t63.5 26t63.5 -26t26.5 -64q0 -37 -26.5 -63.5t-63.5 -26.5zM-74 -162q-31 0 -54 0.5t-46 1.5l26 118h61q30 0 45.5 6.5t23 24t14.5 50.5l97 457h156l-101 -473q-13 -61 -29.5 -97.5t-41 -55.5t-61 -25.5t-90.5 -6.5z
" />
    <glyph glyph-name="k" unicode="k" horiz-adv-x="562" 
d="M-21 0l142 668h155l-73 -341l185 169h198l-244 -213l145 -283h-163l-95 184l-68 -60l-26 -124h-156z" />
    <glyph glyph-name="l" unicode="l" horiz-adv-x="317" 
d="M147 0q-66 0 -104.5 22t-38.5 77q0 9 1.5 19.5t3.5 21.5l112 528h156l-98 -464q-3 -13 -5 -24.5t-2 -20.5q0 -17 11.5 -26t43.5 -9h43l-26 -124h-97z" />
    <glyph glyph-name="m" unicode="m" horiz-adv-x="895" 
d="M-20 0l105 496h136l5 -64q23 28 62.5 53t95.5 25q59 0 92 -20.5t47 -62.5q36 44 81 63.5t97 19.5q75 0 109.5 -37t34.5 -103q0 -18 -2.5 -38t-7.5 -42l-62 -290h-156l56 263q5 23 8 42t3 33q0 29 -13.5 41.5t-42.5 12.5q-91 0 -119 -131l-55 -261h-156l56 263q9 44 9 69
q0 35 -14 47.5t-40 12.5q-46 0 -75 -34.5t-43 -99.5l-55 -258h-156z" />
    <glyph glyph-name="n" unicode="n" horiz-adv-x="581" 
d="M-20 0l105 496h136l5 -64q21 29 63 53.5t108 24.5q59 0 95.5 -33.5t36.5 -110.5q0 -19 -2.5 -40t-7.5 -45l-60 -281h-156l56 263q9 39 9 65q0 34 -14 49t-42 15q-93 0 -122 -138l-54 -254h-156z" />
    <glyph glyph-name="o" unicode="o" horiz-adv-x="576" 
d="M239 -13q-70 0 -123 26.5t-82 75.5t-29 115q0 88 37 157t104 109t156 40q66 0 119 -24t84 -72t31 -119q0 -88 -36.5 -158t-103 -110t-157.5 -40zM245 105q46 0 76 26.5t45 69t15 91.5q0 55 -24 77.5t-65 22.5q-46 0 -75.5 -27.5t-43.5 -70t-14 -88.5q0 -25 7.5 -48.5
t26 -38t52.5 -14.5z" />
    <glyph glyph-name="p" unicode="p" horiz-adv-x="590" 
d="M-55 -161l140 657h134l6 -68q26 44 68 63t83 19q53 0 92.5 -26t61.5 -72t22 -107q0 -63 -18.5 -120t-53 -101.5t-83.5 -70.5t-110 -26q-40 0 -76.5 20t-60.5 63l-49 -231h-156zM261 105q45 0 74.5 25t44 65.5t14.5 86.5q0 54 -23 82t-63 28q-44 0 -74 -27.5t-45 -69
t-15 -85.5q0 -52 25.5 -78.5t61.5 -26.5z" />
    <glyph glyph-name="q" unicode="q" horiz-adv-x="601" 
d="M183 -12q-82 0 -130.5 57t-48.5 151q0 62 18.5 118.5t52.5 100.5t82 69.5t106 25.5q41 0 79.5 -19t61.5 -64l36 69h135q-23 -109 -46.5 -218.5t-46.5 -219.5q-4 -16 -6.5 -30.5t-2.5 -25.5q0 -17 10 -26.5t37 -9.5q32 0 88 13l-28 -130q-24 -10 -55 -16t-63 -6
q-39 0 -74.5 11.5t-57.5 39t-22 74.5q0 25 5 44.5t13 59.5q-28 -34 -65 -51t-78 -17zM250 106q30 0 58.5 18.5t48.5 57t23 97.5q4 57 -22.5 85.5t-66.5 28.5q-54 0 -91 -41.5t-38 -127.5q-1 -64 23.5 -91t64.5 -27z" />
    <glyph glyph-name="r" unicode="r" horiz-adv-x="391" 
d="M-20 0l105 496h123l7 -87q26 46 61.5 73t100.5 28h26l-32 -152q-25 3 -46 3q-65 0 -96 -34t-44 -96l-49 -231h-156z" />
    <glyph glyph-name="s" unicode="s" horiz-adv-x="515" 
d="M229 -13q-38 0 -84.5 9t-88 37t-66.5 83l130 44q8 -34 39 -49t65 -15q32 0 57 12t25 31q0 18 -20 29t-51.5 20t-66.5 20t-66.5 28.5t-51.5 46.5t-20 74q0 44 28 78.5t76.5 54.5t108.5 20q72 0 132.5 -24t95.5 -86l-132 -45q-10 26 -36.5 35t-61.5 9t-51 -12t-16 -25
q0 -19 20 -31t52 -20.5t68 -18.5t68 -26t52 -42.5t20 -67.5q0 -77 -60.5 -123t-164.5 -46z" />
    <glyph glyph-name="t" unicode="t" horiz-adv-x="391" 
d="M193 0q-65 0 -104 21.5t-39 76.5q0 18 7 52l49 230h-78l25 116h78l26 124h155l-26 -124h108l-24 -116h-109l-37 -175q-3 -13 -5 -24.5t-2 -20.5q0 -17 11.5 -26.5t43.5 -9.5h43l-26 -124h-96z" />
    <glyph glyph-name="u" unicode="u" horiz-adv-x="578" 
d="M159 -12q-55 0 -86 20t-43.5 53.5t-12.5 72.5q0 22 3 43.5t7 42.5l59 276h155l-55 -261q-2 -10 -4.5 -26.5t-2.5 -33.5q0 -26 10.5 -47.5t41.5 -21.5q39 0 72 30t47 98l56 262h155l-105 -496h-135l-5 64q-21 -34 -61 -55t-96 -21z" />
    <glyph glyph-name="v" unicode="v" horiz-adv-x="533" 
d="M107 0l-72 496h151l33 -339l179 339h170l-283 -496h-178z" />
    <glyph glyph-name="w" unicode="w" horiz-adv-x="727" 
d="M54 0l-19 496h146l4 -321l128 321h150l-8 -337l149 337h158l-229 -496h-174l3 356l-148 -356h-160z" />
    <glyph glyph-name="x" unicode="x" horiz-adv-x="536" 
d="M-71 0l250 270l-113 226h150l60 -120l111 120h184l-231 -250l124 -246h-151l-71 141l-129 -141h-184z" />
    <glyph glyph-name="y" unicode="y" horiz-adv-x="527" 
d="M-44 -161l23 110h31q42 0 62.5 4.5t30 16t18.5 30.5l-86 496h155l30 -316l166 316h176l-296 -496q-33 -56 -57 -88.5t-49 -48t-61 -20t-94 -4.5h-49z" />
    <glyph glyph-name="z" unicode="z" horiz-adv-x="528" 
d="M-40 0l26 121l310 254h-231l26 121h448l-26 -121l-310 -254h259l-25 -121h-477z" />
    <glyph glyph-name="circumflex" unicode="&#x2c6;" horiz-adv-x="480" 
d="M89 574l189 137q20 15 44 15q33 0 55 -25l118 -127h-116l-59 61l-84 -61h-147z" />
    <glyph glyph-name="caron" unicode="&#x2c7;" horiz-adv-x="476" 
d="M288 568q-32 0 -54 25l-114 127h115l56 -61l84 61h147l-190 -137q-19 -15 -44 -15z" />
    <glyph glyph-name="breve" unicode="&#x2d8;" horiz-adv-x="385" 
d="M278 577q-59 0 -98 31t-44 80h93q4 -16 19 -26.5t34 -10.5q21 0 37 10.5t22 26.5h94q-14 -46 -54.5 -78.5t-102.5 -32.5z" />
    <glyph glyph-name="dotaccent" unicode="&#x2d9;" horiz-adv-x="204" 
d="M170 578q-29 0 -50 20.5t-21 49.5t21 50t50 21t49.5 -21t20.5 -50t-20.5 -49.5t-49.5 -20.5z" />
    <glyph glyph-name="ring" unicode="&#x2da;" horiz-adv-x="301" 
d="M222 535q-36 0 -66 18t-48 48.5t-18 66.5q0 37 18 66.5t48 47.5t66 18q37 0 67 -18t48 -47.5t18 -66.5q0 -36 -18 -66.5t-48 -48.5t-67 -18zM222 621q20 0 33.5 14t13.5 33q0 20 -13.5 33.5t-33.5 13.5q-19 0 -33 -13.5t-14 -33.5q0 -19 14 -33t33 -14z" />
    <glyph glyph-name="ogonek" unicode="&#x2db;" horiz-adv-x="296" 
d="M73 -173q-49 0 -76 12t-38 29.5t-11 35.5q0 30 26.5 58t64.5 38h144q-41 -19 -74 -37t-33 -38q0 -14 14 -18t29 -4q14 0 29 3.5t22 5.5l-16 -76q-13 -3 -37.5 -6t-43.5 -3z" />
    <glyph glyph-name="quoteleft" unicode="&#x2018;" horiz-adv-x="281" 
d="M162 340q-41 0 -68 29t-27 69q0 27 14 50l112 180h99l-89 -142q26 -11 42 -35t16 -53q0 -43 -29.5 -70.5t-69.5 -27.5z" />
    <glyph glyph-name="quoteright" unicode="&#x2019;" horiz-adv-x="282" 
d="M66 351l89 142q-25 12 -41.5 36t-16.5 53q0 43 29.5 70.5t68.5 27.5q41 0 69.5 -29t28.5 -67q0 -12 -4 -27t-11 -26l-113 -180h-99z" />
    <glyph glyph-name="quotesinglbase" unicode="&#x201a;" horiz-adv-x="282" 
d="M-40 -145l89 142q-25 12 -41.5 36t-16.5 53q0 42 29.5 70t68.5 28q41 0 69.5 -29t28.5 -67q0 -12 -4 -27t-11 -26l-113 -180h-99z" />
    <glyph glyph-name="quotedblleft" unicode="&#x201c;" horiz-adv-x="505" 
d="M162 340q-40 0 -67.5 27.5t-27.5 67.5q0 18 5.5 33t19.5 38l101 162h99l-89 -142q26 -11 42 -35t16 -53q0 -43 -29.5 -70.5t-69.5 -27.5zM386 340q-41 0 -68 28t-27 61q0 20 3.5 34t10.5 25l112 180h99l-89 -142q26 -12 42 -36.5t16 -53.5q0 -42 -29.5 -69t-69.5 -27z
" />
    <glyph glyph-name="quotedblright" unicode="&#x201d;" horiz-adv-x="505" 
d="M290 350l89 142q-26 11 -42 35.5t-16 52.5q0 44 29.5 71t69.5 27t67.5 -27.5t27.5 -67.5q0 -18 -5.5 -33t-19.5 -38l-101 -162h-99zM66 350l89 142q-26 12 -42 36.5t-16 53.5q0 42 29.5 69t69.5 27q41 0 68 -28t27 -61q0 -19 -3.5 -33.5t-10.5 -25.5l-112 -180h-99z" />
    <glyph glyph-name="quotedblbase" unicode="&#x201e;" horiz-adv-x="505" 
d="M183 -145l89 142q-26 11 -42 35.5t-16 52.5q0 44 29.5 71t69.5 27t67.5 -27.5t27.5 -67.5q0 -18 -5.5 -33t-19.5 -38l-101 -162h-99zM-41 -145l89 142q-26 12 -42 36.5t-16 53.5q0 42 29.5 69t69.5 27q41 0 68 -28t27 -61q0 -19 -3.5 -33.5t-10.5 -25.5l-112 -180h-99z
" />
    <glyph glyph-name="dagger" unicode="&#x2020;" horiz-adv-x="594" 
d="M155 1l81 379h-184l25 116h183l37 172h145l-37 -172h183l-24 -116h-184l-80 -379h-145z" />
    <glyph glyph-name="daggerdbl" unicode="&#x2021;" horiz-adv-x="595" 
d="M155 1l37 172h-184l25 115h183l20 92h-184l25 116h183l37 172h145l-37 -172h184l-25 -116h-183l-20 -92h183l-24 -115h-184l-35 -172h-146z" />
    <glyph glyph-name="bullet" unicode="&#x2022;" horiz-adv-x="446" 
d="M207 88q-46 0 -83.5 22.5t-60 60.5t-22.5 83q0 46 22.5 83.5t60 60t83.5 22.5t83.5 -22.5t60 -60t22.5 -83.5q0 -45 -22.5 -83t-60 -60.5t-83.5 -22.5z" />
    <glyph glyph-name="ellipsis" unicode="&#x2026;" horiz-adv-x="807" 
d="M615 -12q-40 0 -69 29t-29 69q0 41 29 69.5t69 28.5q41 0 69 -28.5t28 -69.5q0 -40 -28 -69t-69 -29zM89 -12q-40 0 -69 29t-29 69q0 41 29 69.5t69 28.5t68.5 -28.5t28.5 -69.5q0 -40 -28.5 -69t-68.5 -29zM351 -12q-40 0 -68 29t-28 69q0 41 28 69.5t68 28.5
q41 0 69.5 -28.5t28.5 -69.5q0 -40 -28.5 -69t-69.5 -29z" />
    <glyph glyph-name="perthousand" unicode="&#x2030;" horiz-adv-x="1472" 
d="M234 286q-51 0 -91 23.5t-63.5 63t-23.5 88.5q0 60 30.5 109.5t80.5 79.5t108 30q51 0 91.5 -23.5t63.5 -63.5t23 -90q0 -59 -30.5 -108.5t-80.5 -79t-108 -29.5zM226 0l467 668h127l-468 -668h-126zM246 405q35 0 61.5 25.5t26.5 61.5q0 29 -20.5 49t-50.5 20
q-35 0 -61.5 -26t-26.5 -61q0 -30 20.5 -49.5t50.5 -19.5zM769 -12q-51 0 -91 23.5t-63 63.5t-23 90q0 59 30.5 108.5t80.5 79t108 29.5q51 0 91 -23.5t63 -63.5t23 -90q0 -59 -30.5 -108.5t-80.5 -79t-108 -29.5zM1198 -12q-51 0 -91 23.5t-63 63.5t-23 90q0 59 30.5 108.5
t80.5 79t108 29.5q51 0 91 -23.5t63 -63.5t23 -90q0 -59 -30.5 -108.5t-80.5 -79t-108 -29.5zM782 107q34 0 60.5 25t26.5 60q0 30 -20 50.5t-51 20.5q-34 0 -60.5 -25.5t-26.5 -60.5q0 -30 20 -50t51 -20zM1211 107q34 0 60.5 25t26.5 60q0 30 -20 50.5t-51 20.5
q-34 0 -60.5 -25.5t-26.5 -60.5q0 -30 20 -50t51 -20z" />
    <glyph glyph-name="guilsinglleft" unicode="&#x2039;" horiz-adv-x="401" 
d="M127 40l-103 210l193 210h171l-197 -216l100 -204h-164z" />
    <glyph glyph-name="guilsinglright" unicode="&#x203a;" horiz-adv-x="402" 
d="M-20 40l197 216l-100 204h164l103 -210l-193 -210h-171z" />
    <glyph glyph-name="fraction" unicode="&#x2044;" horiz-adv-x="482" 
d="M-55 0l468 668h126l-467 -668h-127z" />
    <glyph glyph-name="ordfeminine" unicode="&#xaa;" horiz-adv-x="395" 
d="M174 396q-43 0 -65.5 23.5t-22.5 57.5q0 43 29.5 64t76.5 29.5t97 11.5q2 3 3.5 8.5t1.5 10.5q0 10 -10 17t-30 7q-13 0 -27 -6t-20 -20l-80 32q21 31 54 46t85 15q32 0 59.5 -8.5t45 -29.5t17.5 -58q0 -21 -6 -47q-9 -39 -14.5 -73.5t-9.5 -72.5h-86l-2 32
q-14 -16 -37 -27.5t-59 -11.5zM222 464q17 0 32.5 11t22.5 35l5 18l-26 -3q-31 -4 -47 -11.5t-16 -22.5q-1 -13 8 -20t21 -7z" />
    <glyph glyph-name="guillemotleft" unicode="&#xab;" horiz-adv-x="665" 
d="M379 40l-103 210l193 210h171l-197 -216l100 -204h-164zM139 40l-103 210l193 210h171l-197 -216l100 -204h-164z" />
    <glyph glyph-name="logicalnot" unicode="&#xac;" horiz-adv-x="696" 
d="M457 56v239h-384v127h512v-366h-128z" />
    <glyph glyph-name="registered" unicode="&#xae;" horiz-adv-x="814" 
d="M407 -12q-71 0 -133.5 27t-110 74.5t-74.5 110t-27 134.5q0 71 27 133.5t74.5 110t110 74.5t133.5 27q72 0 135 -27t110.5 -74.5t74.5 -110t27 -133.5q0 -72 -27 -134.5t-74.5 -110t-110.5 -74.5t-135 -27zM407 57q57 0 107.5 21.5t88.5 59.5t59.5 88.5t21.5 107.5
t-21.5 107t-59.5 88t-88.5 59.5t-107.5 21.5t-106.5 -21.5t-87.5 -59.5t-59.5 -88t-21.5 -107t21.5 -107.5t59.5 -88.5t87.5 -59.5t106.5 -21.5zM250 161v368h151q48 0 85.5 -9.5t59.5 -34t22 -70.5q0 -31 -17.5 -61t-69.5 -44l107 -149h-108l-101 139h-32v-139h-97z
M347 375h52q29 0 48.5 7.5t19.5 31.5t-19.5 31.5t-48.5 7.5h-52v-78z" />
    <glyph glyph-name="macron" unicode="&#xaf;" horiz-adv-x="405" 
d="M104 570l21 98h299l-21 -98h-299z" />
    <glyph glyph-name="degree" unicode="&#xb0;" horiz-adv-x="411" 
d="M245 354q-44 0 -81 22t-59 59t-22 82t22 81.5t59 58.5t81 22q45 0 82 -22t58.5 -58.5t21.5 -81.5t-21.5 -82t-58.5 -59t-82 -22zM245 444q31 0 52 21.5t21 51.5t-21 51.5t-52 21.5q-30 0 -51.5 -21.5t-21.5 -51.5t21.5 -51.5t51.5 -21.5z" />
    <glyph glyph-name="plusminus" unicode="&#xb1;" horiz-adv-x="701" 
d="M248 180v103h-192v108h192v104h128v-104h192v-108h-192v-103h-128zM56 0v128h512v-128h-512z" />
    <glyph glyph-name="uni00B2" unicode="&#xb2;" horiz-adv-x="407" 
d="M70 403l17 81q40 22 81 45.5t75.5 47.5t56 49t21.5 49q0 18 -13.5 27t-30.5 9q-45 0 -61 -44l-84 33q43 88 156 88q59 0 99 -22.5t40 -76.5q0 -39 -28 -77t-70.5 -69.5t-88.5 -51.5h148l-18 -88h-300z" />
    <glyph glyph-name="uni00B3" unicode="&#xb3;" horiz-adv-x="425" 
d="M253 396q-50 0 -91 21t-64 61l98 33q14 -39 58 -39q23 0 37 13t14 29q0 21 -18.5 29.5t-53.5 8.5h-15l18 84h15q32 0 52.5 10.5t20.5 33.5q0 13 -11.5 23t-34.5 10q-18 0 -34 -7t-27 -30l-83 33q23 39 60 59t92 20q59 0 100.5 -25t41.5 -75q0 -34 -18.5 -57t-47.5 -32
q20 -10 34 -30.5t14 -47.5q0 -40 -21.5 -68t-57 -42.5t-78.5 -14.5z" />
    <glyph glyph-name="acute" unicode="&#xb4;" horiz-adv-x="320" 
d="M105 574l14.5 14t35.5 35l42 42l35.5 35.5t15.5 14.5q15 12 34 12q28 0 44 -21q13 -14 13 -35q0 -26 -21 -43q-2 -2 -16 -10.5t-31 -18.5t-30 -17.5l-13 -7.5h-123z" />
    <glyph glyph-name="uni03BC" unicode="&#x3bc;" horiz-adv-x="577" 
d="M-55 -161l140 656h155l-56 -264q-12 -56 -2 -90.5t62 -34.5q40 0 65 29t39 96l56 264h156l-105 -495h-141l-4 43q-13 -23 -39.5 -35.5t-53.5 -12.5q-25 0 -45.5 11t-28.5 34l-42 -201h-156z" />
    <glyph glyph-name="paragraph" unicode="&#xb6;" horiz-adv-x="530" 
d="M62 -161l97 457q-49 14 -78.5 52t-29.5 90q0 10 1 20t3 20q12 53 46.5 96t83 68.5t100.5 25.5h287l-15 -68h-48l-162 -761h-95l161 761h-93l-162 -761h-96z" />
    <glyph glyph-name="periodcentered" unicode="&#xb7;" horiz-adv-x="305" 
d="M136 151q-40 0 -69 28.5t-29 68.5q0 41 29 69t69 28t68.5 -28t28.5 -69q0 -40 -28.5 -68.5t-68.5 -28.5z" />
    <glyph glyph-name="cedilla" unicode="&#xb8;" horiz-adv-x="322" 
d="M61 -195q-31 0 -57 5.5t-39 11.5l26 50q29 -13 60 -13q21 0 36.5 8t15.5 24q0 11 -11 18t-28 7q-13 0 -18 -2.5t-11 -2.5q-7 0 -13 4.5t-6 13.5q0 7 6 14l69 83l36 -25l-40 -48q15 3 28 3q35 0 57 -16.5t22 -42.5q0 -36 -20.5 -56t-51.5 -28t-61 -8z" />
    <glyph glyph-name="uni00B9" unicode="&#xb9;" horiz-adv-x="294" 
d="M153 403l52 244h-84l19 88q40 0 67 6.5t48 37.5h82l-80 -376h-104z" />
    <glyph glyph-name="ordmasculine" unicode="&#xba;" horiz-adv-x="412" 
d="M240 396q-58 0 -98 30.5t-40 94.5q0 76 46.5 122t122.5 46q58 0 97.5 -30t39.5 -94q0 -58 -23.5 -95.5t-61.5 -55.5t-83 -18zM248 473q23 0 40 20.5t17 63.5q0 28 -12 41.5t-30 13.5q-23 0 -40.5 -20t-17.5 -64q0 -28 12 -41.5t31 -13.5z" />
    <glyph glyph-name="guillemotright" unicode="&#xbb;" horiz-adv-x="666" 
d="M232 40l197 216l-100 204h164l103 -210l-193 -210h-171zM-8 40l197 216l-100 204h164l103 -210l-193 -210h-171z" />
    <glyph glyph-name="onequarter" unicode="&#xbc;" horiz-adv-x="930" 
d="M129 292l52 244h-84l19 87q40 0 67 7t48 38h82l-80 -376h-104zM129 0l468 667h127l-468 -667h-127zM646 0l16 75h-192l17 77l228 223h114l-45 -214h57l-19 -86h-57l-16 -75h-103zM602 161h78l20 96z" />
    <glyph glyph-name="onehalf" unicode="&#xbd;" horiz-adv-x="919" 
d="M129 292l52 244h-84l19 87q40 0 67 7t48 38h82l-80 -376h-104zM129 0l468 667h127l-468 -667h-127zM496 0l17 81q39 21 80 44.5t76 47.5t56.5 49t21.5 50q0 18 -14 27t-31 9q-45 0 -60 -44l-84 33q41 87 156 87q59 0 99.5 -22.5t40.5 -75.5q0 -39 -28 -77t-71 -69.5
t-89 -51.5h149l-19 -88h-300z" />
    <glyph glyph-name="threequarters" unicode="&#xbe;" horiz-adv-x="958" 
d="M230 287q-50 0 -91 21t-64 61l98 33q14 -39 58 -39q23 0 37 13t14 29q0 21 -18.5 29.5t-53.5 8.5h-15l18 84h15q32 0 52.5 10.5t20.5 33.5q0 13 -11.5 23t-34.5 10q-18 0 -34 -7t-27 -30l-83 33q23 39 60 59t92 20q59 0 100.5 -25t41.5 -75q0 -34 -18.5 -57t-47.5 -32
q20 -10 34 -30.5t14 -47.5q0 -40 -21.5 -68t-57 -42.5t-78.5 -14.5zM198 0l468 667h127l-468 -667h-127zM674 0l16 75h-191l16 77l229 223h114l-46 -214h57l-18 -86h-57l-16 -75h-104zM630 161h79l20 96z" />
    <glyph glyph-name="less" unicode="&#x3c;" horiz-adv-x="640" 
d="M527 -12l-493 212v99l493 211v-142l-324 -118l324 -120v-142z" />
    <glyph glyph-name="equal" unicode="=" horiz-adv-x="685" 
d="M60 283v127h512v-127h-512zM60 96v129h512v-129h-512z" />
    <glyph glyph-name="greater" unicode="&#x3e;" horiz-adv-x="638" 
d="M78 -12v142l325 120l-325 118v142l493 -211v-99z" />
    <glyph glyph-name="question" unicode="?" horiz-adv-x="634" 
d="M185 243q3 23 10 41q16 44 50.5 75t80.5 52q25 12 53 24t48 27t21 35q2 29 -22.5 42t-69.5 13q-48 0 -83.5 -17t-49.5 -49l-138 55q43 76 116 107.5t167 31.5q46 0 91 -8t82 -25.5t59.5 -46.5t22.5 -71q0 -49 -21 -83.5t-56 -58.5t-78 -42q-39 -16 -64 -31t-41 -38
q-4 -7 -8.5 -15t-8.5 -18h-161zM237 -12q-40 0 -68.5 29t-28.5 69q0 41 28.5 69t68.5 28q41 0 69.5 -28t28.5 -69q0 -40 -28.5 -69t-69.5 -29z" />
    <glyph glyph-name="at" unicode="@" horiz-adv-x="753" 
d="M386 -12q-101 0 -179 42t-122 117.5t-44 175.5q0 72 27 136t74.5 114t110 78.5t133.5 28.5q60 0 119 -22t107.5 -63t78 -98.5t29.5 -128.5q0 -60 -22 -109t-62 -77.5t-95 -28.5q-39 0 -70 18.5t-41 52.5q-28 -36 -62.5 -53.5t-68.5 -17.5q-47 0 -82.5 32t-35.5 91
q0 70 31.5 124.5t87.5 86t128 31.5q31 0 61 -5.5t56 -14.5l-36 -168q-4 -22 -6 -32t-2 -18q0 -28 15.5 -38.5t34.5 -10.5q32 0 53.5 18.5t32.5 48.5t11 65q0 72 -36.5 128t-96.5 87.5t-129 31.5q-58 0 -108 -23.5t-88 -63.5t-59 -91.5t-21 -108.5q0 -82 35.5 -142t98 -92.5
t142.5 -32.5q38 0 71.5 9.5t64.5 28.5v-78q-64 -28 -136 -28zM325 250q25 0 51 22.5t35 66.5q9 42 12.5 60t4.5 22l1 4q-13 3 -29 3q-36 0 -62.5 -19t-41 -48.5t-14.5 -62.5q0 -24 12.5 -36t30.5 -12z" />
    <glyph glyph-name="colon" unicode=":" horiz-adv-x="247" 
d="M142 316q-40 0 -69 28.5t-29 68.5q0 41 29 69.5t69 28.5q41 0 69 -28.5t28 -69.5q0 -40 -28 -68.5t-69 -28.5zM72 -12q-40 0 -69 29t-29 69q0 41 29 69t69 28t68.5 -28t28.5 -69q0 -40 -28.5 -69t-68.5 -29z" />
    <glyph glyph-name="semicolon" unicode=";" horiz-adv-x="247" 
d="M-57 -145l91 142q-27 11 -43.5 35.5t-16.5 52.5q0 44 29.5 71t69.5 27q41 0 69 -27.5t28 -67.5q0 -18 -5.5 -33t-19.5 -38l-103 -162h-99zM141 316q-40 0 -69 29t-29 69q0 41 29 69t69 28t68.5 -28t28.5 -69q0 -40 -28.5 -69t-68.5 -29z" />
    <glyph glyph-name="bracketleft" unicode="[" horiz-adv-x="340" 
d="M-57 -161l176 829h259l-25 -116h-127l-127 -598h128l-25 -115h-259z" />
    <glyph glyph-name="backslash" unicode="\" horiz-adv-x="584" 
d="M348 0l-261 668h153l259 -668h-151z" />
    <glyph glyph-name="bracketright" unicode="]" horiz-adv-x="342" 
d="M-71 -161l25 115h128l127 598h-128l24 116h259l-176 -829h-259z" />
    <glyph glyph-name="asciicircum" unicode="^" horiz-adv-x="589" 
d="M49 312l185 356h113l185 -356h-143l-98 194l-99 -194h-143z" />
    <glyph glyph-name="underscore" unicode="_" horiz-adv-x="457" 
d="M-30 -128v128h410v-128h-410z" />
    <glyph glyph-name="grave" unicode="`" horiz-adv-x="315" 
d="M206 574l-13 11t-29 25.5t-25 24.5q-12 17 -12 35q0 26 21 44q14 13 35 13q27 0 43 -21q9 -12 24 -33.5t29.5 -44.5t24.5 -38.5l10 -15.5h-108z" />
    <glyph glyph-name="exclam" unicode="!" horiz-adv-x="298" 
d="M71 243l12 253l37 172h198l-37 -172l-95 -253h-115zM97 -12q-40 0 -69 29t-29 69q0 41 29 69.5t69 28.5t68.5 -28.5t28.5 -69.5q0 -40 -28.5 -69t-68.5 -29z" />
    <glyph glyph-name="quotedbl" unicode="&#x22;" horiz-adv-x="444" 
d="M305 434l-15 234h142l-14 -234h-113zM116 434l-14 234h142l-14 -234h-114z" />
    <glyph glyph-name="numbersign" unicode="#" horiz-adv-x="750" 
d="M118 0l18 127h-128l20 139h128l20 135h-128l20 140h128l19 127h140l-19 -127h137l19 127h141l-19 -127h129l-21 -139h-128l-19 -135h128l-20 -140h-129l-18 -127h-141l18 127h-136l-18 -127h-141zM297 267h137l19 134h-137z" />
    <glyph glyph-name="dollar" unicode="$" horiz-adv-x="643" 
d="M188 -86l19 85q-72 17 -123 57.5t-74 100.5l155 53q6 -29 25.5 -49t44.5 -31l31 150q-37 12 -73 27t-66 37t-48 54t-18 78q0 88 69 143.5t195 59.5q10 1 16 1h11l14 67h75l-16 -76q55 -13 103 -45t79 -90l-155 -52q-7 19 -21.5 32.5t-33.5 21.5l-30 -140q65 -17 115 -40
t78.5 -59t28.5 -94q0 -69 -38.5 -117.5t-102.5 -74t-143 -25.5h-12.5t-12.5 1l-16 -75h-76zM296 421l28 131q-49 -1 -74.5 -17.5t-25.5 -41.5q0 -27 20.5 -43.5t51.5 -28.5zM326 114q41 2 70 19.5t29 45.5q0 29 -25 46.5t-63 30.5l-30 -141q5 -1 10 -1h9z" />
    <glyph glyph-name="percent" unicode="%" horiz-adv-x="1043" 
d="M234 286q-51 0 -91 23.5t-63.5 63t-23.5 88.5q0 60 30.5 109.5t80.5 79.5t108 30q51 0 91.5 -23.5t63.5 -63.5t23 -90q0 -59 -30.5 -108.5t-80.5 -79t-108 -29.5zM226 0l467 668h127l-468 -668h-126zM246 405q35 0 61.5 25.5t26.5 61.5q0 29 -20.5 49t-50.5 20
q-35 0 -61.5 -26t-26.5 -61q0 -30 20.5 -49.5t50.5 -19.5zM769 -12q-51 0 -91 23.5t-63 63.5t-23 90q0 59 30.5 108.5t80.5 79t108 29.5q51 0 91 -23.5t63 -63.5t23 -90q0 -59 -30.5 -108.5t-80.5 -79t-108 -29.5zM782 107q34 0 60.5 25t26.5 60q0 30 -20 50.5t-51 20.5
q-34 0 -60.5 -25.5t-26.5 -60.5q0 -30 20 -50t51 -20z" />
    <glyph glyph-name="ampersand" unicode="&#x26;" horiz-adv-x="683" 
d="M199 -10q-63 0 -109.5 25t-71.5 66t-25 88q0 61 45 121.5t143 98.5q-42 63 -42 132q0 54 27.5 96t76 65.5t110.5 23.5q52 0 92.5 -21.5t64.5 -58t24 -82.5q0 -52 -36 -105t-115 -91l68 -104q30 29 55 65.5t43 79.5h127q-28 -74 -70 -136.5t-91 -106.5l93 -146h-166
l-35 53q-58 -34 -110.5 -48.5t-97.5 -14.5zM326 437q45 22 63.5 48t18.5 49q0 24 -16.5 41t-41.5 17q-31 0 -51.5 -16t-20.5 -45q0 -19 11.5 -43t36.5 -51zM239 116q26 0 49.5 7t54.5 24l-96 143q-48 -15 -69 -41.5t-21 -52.5q0 -31 23.5 -55.5t58.5 -24.5z" />
    <glyph glyph-name="quotesingle" unicode="'" horiz-adv-x="258" 
d="M103 434l-14 234h142l-14 -234h-114z" />
    <glyph glyph-name="parenleft" unicode="(" horiz-adv-x="377" 
d="M89 -161q-39 93 -57 175.5t-18 156.5q0 97 28 182.5t78 163.5t116 152h151q-109 -132 -168.5 -256.5t-59.5 -257.5q0 -146 79 -316h-149z" />
    <glyph glyph-name="parenright" unicode=")" horiz-adv-x="378" 
d="M-42 -161q109 132 168.5 256.5t59.5 257.5q0 146 -79 316h149q39 -93 57 -175.5t18 -156.5q0 -97 -28 -182.5t-77.5 -163.5t-116.5 -152h-151z" />
    <glyph glyph-name="asterisk" unicode="*" horiz-adv-x="443" 
d="M263 336l-41 92l-74 -67l-59 65l75 68l-88 50l44 75l87 -50l21 99l86 -18l-21 -99l99 11l10 -87l-100 -11l41 -92z" />
    <glyph glyph-name="plus" unicode="+" horiz-adv-x="645" 
d="M231 0v184h-192v128h192v184h128v-184h192v-128h-192v-184h-128z" />
    <glyph glyph-name="comma" unicode="," horiz-adv-x="282" 
d="M-40 -145l91 142q-27 11 -43.5 35.5t-16.5 52.5q0 44 29.5 71t69.5 27q41 0 69 -27.5t28 -67.5q0 -18 -5.5 -33t-19.5 -38l-103 -162h-99z" />
    <glyph glyph-name="hyphen" unicode="-" horiz-adv-x="376" 
d="M10 184l28 129h326l-28 -129h-326z" />
    <glyph glyph-name="period" unicode="." horiz-adv-x="247" 
d="M82 -12q-40 0 -69 29t-29 69q0 41 29 69t69 28t68.5 -28t28.5 -69q0 -40 -28.5 -69t-68.5 -29z" />
    <glyph glyph-name="slash" unicode="/" horiz-adv-x="442" 
d="M-55 0l403 668h151l-401 -668h-153z" />
    <glyph glyph-name="braceleft" unicode="{" horiz-adv-x="373" 
d="M180 -162q-91 0 -132 42t-25 121l21 96q11 47 2.5 71t-52.5 24l26 123q47 0 64 25.5t26 68.5l21 96q13 58 33 91t48 48t63.5 19t79.5 4h55l-26 -119h-33q-32 0 -50 -8.5t-24 -36.5l-26 -123q-14 -63 -48 -89t-72 -36l-1 -3q47 -13 62.5 -44t4.5 -81l-25 -114
q-7 -31 3 -43t45 -12h40l-26 -120h-54z" />
    <glyph glyph-name="bar" unicode="|" horiz-adv-x="299" 
d="M59 -161v829h146v-829h-146z" />
    <glyph glyph-name="braceright" unicode="}" horiz-adv-x="373" 
d="M-70 -162l25 120h34q32 0 50.5 8.5t24.5 35.5l26 124q14 64 48 90t72 36l1 3q-46 14 -61.5 44t-5.5 80l26 119q6 29 -5 39.5t-45 10.5h-39l25 119h55q88 0 130 -39.5t25 -122.5l-20 -96q-10 -48 -1.5 -71t51.5 -23l-26 -123q-46 0 -64 -26t-27 -69l-19 -96
q-12 -58 -32 -91t-48.5 -48.5t-64.5 -19.5t-81 -4h-54z" />
    <glyph glyph-name="asciitilde" unicode="~" horiz-adv-x="533" 
d="M324 167q-26 0 -46.5 9t-38.5 21t-36 21t-39 9q-18 0 -34 -15t-24 -66l-97 38q22 77 61 121.5t110 44.5q28 0 50 -9t40 -21t34.5 -21t34.5 -9q17 0 33.5 15.5t23.5 64.5l98 -37q-22 -77 -60.5 -121.5t-109.5 -44.5z" />
    <glyph glyph-name="exclamdown" unicode="&#xa1;" horiz-adv-x="297" 
d="M166 324q-40 0 -68.5 28t-28.5 68q0 41 28.5 69.5t68.5 28.5q41 0 69 -28.5t28 -69.5q0 -40 -28 -68t-69 -28zM-55 -162l37 173l95 253h115l-12 -253l-37 -173h-198z" />
    <glyph glyph-name="cent" unicode="&#xa2;" horiz-adv-x="531" 
d="M155 -87l17 79q-82 14 -126 68.5t-44 134.5q0 14 1.5 28t3.5 28q21 111 94 179t181 78l13 63h73l-14 -64q53 -7 93.5 -35.5t63.5 -90.5l-133 -46q-6 23 -18.5 36t-30.5 17l-59 -279q20 4 37.5 14.5t33.5 31.5l123 -48q-44 -62 -102 -88.5t-117 -30.5l-16 -75h-74z
M198 114l57 269q-30 -13 -55.5 -44t-37.5 -89q-6 -30 -6 -52q0 -34 11.5 -54.5t30.5 -29.5z" />
    <glyph glyph-name="sterling" unicode="&#xa3;" horiz-adv-x="617" 
d="M33 -12l-31 116q83 36 119.5 84.5t36.5 88.5q0 10 -3 18h-112l15 73h75q-7 25 -13.5 53t-6.5 57q0 53 24 91.5t64 62.5t88.5 35.5t98.5 11.5q177 0 244 -142l-147 -50q-22 38 -48 53.5t-63 15.5q-49 0 -76 -21t-27 -64q0 -41 27 -103h160l-15 -73h-128q2 -8 2 -16
q0 -33 -33.5 -78.5t-102.5 -83.5q23 12 45 14.5t43 2.5q38 0 72.5 -10.5t65.5 -10.5q27 0 54.5 8t55.5 23l18 -121q-38 -17 -78.5 -26t-89.5 -9q-35 0 -66.5 9t-62 18t-63.5 9q-22 0 -57.5 -6t-84.5 -30z" />
    <glyph glyph-name="currency" unicode="&#xa4;" horiz-adv-x="678" 
d="M144 75l-52 52l67 67q-19 27 -30 59t-11 68q0 35 11 66.5t30 58.5l-67 67l52 52l67 -67q27 20 59 30.5t67 10.5q36 0 67.5 -10.5t58.5 -30.5l67 67l52 -52l-67 -67q40 -55 40 -125q0 -36 -10.5 -68t-29.5 -59l67 -67l-52 -52l-67 67q-55 -40 -126 -40t-126 40zM337 221
q41 0 70 29.5t29 70.5t-29 69.5t-70 28.5t-70 -28.5t-29 -69.5t29 -70.5t70 -29.5z" />
    <glyph glyph-name="yen" unicode="&#xa5;" horiz-adv-x="700" 
d="M191 0l16 75h-124l16 73h123l14 64h-124l16 74h97l-143 381h171l86 -277l219 277h204l-320 -381h102l-16 -74h-130l-13 -64h130l-16 -73h-129l-16 -75h-163z" />
    <glyph glyph-name="brokenbar" unicode="&#xa6;" horiz-adv-x="281" 
d="M59 358v310h128v-310h-128zM59 -161v311h128v-311h-128z" />
    <glyph glyph-name="section" unicode="&#xa7;" horiz-adv-x="563" 
d="M138 -174q-72 0 -126.5 32t-70.5 93l140 47q3 -27 24.5 -39.5t46.5 -12.5q29 0 54 15.5t25 43.5q0 21 -18.5 39.5t-46 37t-54.5 38.5q-16 12 -39 31t-40.5 46t-17.5 64q0 46 19.5 77.5t52 53.5t72.5 37q-12 29 -12 61q0 46 24.5 89t74.5 71.5t125 28.5q65 0 120 -22
t80 -79l-139 -46q-5 16 -24 23.5t-41 7.5q-25 0 -46.5 -10t-21.5 -30q0 -22 29.5 -42.5t78.5 -58.5q12 -9 31.5 -23t40 -33t34 -42.5t13.5 -52.5q0 -50 -31.5 -96t-119.5 -78q13 -23 13 -57q0 -35 -16 -72.5t-48 -69.5t-78.5 -52t-107.5 -20zM304 177q61 25 61 55
q0 12 -10.5 25t-29.5 27q-10 8 -28 21t-35.5 26t-28.5 21q-30 -6 -46 -20t-16 -31q0 -23 27 -44q9 -7 26 -20t35.5 -26.5t31.5 -23.5z" />
    <glyph glyph-name="dieresis" unicode="&#xa8;" horiz-adv-x="455" 
d="M199 578q-29 0 -50 20.5t-21 49.5t21 50t50 21t49.5 -21t20.5 -50t-20.5 -49.5t-49.5 -20.5zM393 578q-29 0 -50 20.5t-21 49.5t21 50t50 21t49 -21t20 -50t-20 -49.5t-49 -20.5z" />
    <glyph glyph-name="copyright" unicode="&#xa9;" horiz-adv-x="814" 
d="M407 -12q-71 0 -133.5 27t-110 74.5t-74.5 110t-27 134.5q0 71 27 133.5t74.5 110t110 74.5t133.5 27q72 0 135 -27t110.5 -74.5t74.5 -110t27 -133.5q0 -72 -27 -134.5t-74.5 -110t-110.5 -74.5t-135 -27zM407 57q57 0 107.5 21.5t88.5 59.5t59.5 88.5t21.5 107.5
t-21.5 107t-59.5 88t-88.5 59.5t-107.5 21.5t-106.5 -21.5t-87.5 -59.5t-59.5 -88t-21.5 -107t21.5 -107.5t59.5 -88.5t87.5 -59.5t106.5 -21.5zM410 145q-88 0 -135.5 52t-47.5 137q0 57 23.5 99t64.5 65.5t95 23.5q47 0 92.5 -20.5t70.5 -73.5l-92 -34q-9 23 -26 33
t-39 10q-29 0 -53 -23.5t-24 -79.5q0 -58 24.5 -81t52.5 -23q47 0 66 34l90 -33q-28 -48 -73 -67t-89 -19z" />
    <glyph glyph-name="questiondown" unicode="&#xbf;" horiz-adv-x="634" 
d="M364 325q-40 0 -68 28t-28 68q0 41 28 69.5t68 28.5q41 0 69.5 -28.5t28.5 -69.5q0 -40 -28.5 -68t-69.5 -28zM417 265q-3 -23 -10 -41q-16 -43 -50.5 -74.5t-80.5 -52.5q-25 -11 -53 -23.5t-48 -27.5t-21 -35q-1 -28 23 -41.5t69 -13.5q48 0 84 17t49 49l138 -55
q-43 -76 -116 -107.5t-167 -31.5q-46 0 -91 8t-82 25.5t-59.5 46.5t-22.5 71q0 49 21 83.5t56.5 58.5t77.5 42q39 17 64 32t41 37q5 7 9 15t8 18h161z" />
    <glyph glyph-name="germandbls" unicode="&#xdf;" horiz-adv-x="631" 
d="M303 -13q-13 0 -25.5 0.5t-24.5 1.5l-12 134q41 -11 71 -11q52 0 82 26.5t30 75.5q0 84 -117 84h-30l25 117h26q54 0 86 23t36 60q3 26 -16 47t-69 21q-60 0 -92 -30t-49 -112l-90 -424h-157l93 435q20 91 59 144.5t100.5 76.5t146.5 23q63 0 114 -17.5t81.5 -52.5
t30.5 -89q0 -50 -21.5 -87t-64.5 -65q32 -16 51 -51.5t19 -84.5q0 -82 -35.5 -136.5t-99 -81.5t-148.5 -27z" />
    <glyph glyph-name="AE" unicode="&#xc6;" horiz-adv-x="1016" 
d="M-65 0l618 668h518l-29 -139h-357l-25 -116h219l-30 -138h-218l-29 -136h357l-30 -139h-518l26 119h-196l-105 -119h-201zM354 247h110l37 174z" />
    <glyph glyph-name="florin" unicode="&#x192;" horiz-adv-x="390" 
d="M-10 -173q-20 0 -40 2.5t-37 6.5l28 133q6 -1 12.5 -1.5t12.5 -0.5q38 0 51.5 19t20.5 53l73 342h-82l24 115h82l18 82q13 59 40 91.5t71.5 46t111.5 13.5h69l-26 -121h-42q-40 0 -54.5 -8t-20.5 -36l-15 -68h108l-24 -115h-108l-84 -397q-16 -79 -65 -118t-124 -39z" />
    <glyph glyph-name="integral" unicode="&#x222b;" horiz-adv-x="344" 
d="M54 -174q-25 0 -48 11t-37 29.5t-14 40.5q0 29 16.5 46t38.5 17q24 0 40.5 -16.5t16.5 -39.5q0 -10 -3 -19q17 8 23 34.5t6 72.5q0 14 -1 50t-2 83.5t-2 97.5t-2 93.5t-1 69.5q0 112 24 173.5t62.5 86t83.5 24.5q47 0 75 -26t27 -58q0 -27 -16 -43.5t-39 -16.5
q-22 0 -39 14t-17 39q0 13 3 22q-29 -14 -29 -107q0 -14 1 -49.5t2 -83t2 -97.5t2 -93.5t1 -70.5q0 -112 -24 -173.5t-63.5 -86t-86.5 -24.5z" />
    <glyph glyph-name="approxequal" unicode="&#x2248;" horiz-adv-x="556" 
d="M354 257q-35 0 -63.5 15t-55 30t-55.5 15q-16 0 -27.5 -11.5t-12.5 -49.5l-104 38q7 68 37 107.5t97 39.5q38 0 68 -15t55 -30.5t49 -15.5q15 0 27 12t13 49l104 -37q-7 -68 -36.5 -107.5t-95.5 -39.5zM354 59q-35 0 -63.5 15t-55 29.5t-55.5 14.5q-16 0 -27.5 -11.5
t-12.5 -49.5l-104 38q7 68 37 108t97 40q38 0 68 -15t55 -30.5t49 -15.5q15 0 27 12t13 50l104 -38q-7 -69 -36.5 -108t-95.5 -39z" />
    <glyph glyph-name="notequal" unicode="&#x2260;" horiz-adv-x="661" 
d="M64 0l67 96h-73v129h163l41 58h-204v127h294l59 85h153l-60 -85h66v-127h-156l-40 -58h196v-129h-285l-68 -96h-153z" />
    <glyph glyph-name="lessequal" unicode="&#x2264;" horiz-adv-x="676" 
d="M565 136l-512 124v126l512 124v-129l-337 -57l337 -59v-129zM53 0v128h512v-128h-512z" />
    <glyph glyph-name="greaterequal" unicode="&#x2265;" horiz-adv-x="702" 
d="M79 136v129l337 59l-337 57v129l512 -124v-126zM79 0v128h512v-128h-512z" />
    <glyph glyph-name="lozenge" unicode="&#x25ca;" horiz-adv-x="607" 
d="M301 -91l-263 404l263 403l262 -403zM301 124l124 189l-124 189l-125 -189z" />
    <glyph glyph-name="summation" unicode="&#x2211;" horiz-adv-x="793" 
d="M113 -162v128l237 288l-237 286v128h535v-128h-365l239 -286l-239 -288h365v-128h-535z" />
    <glyph glyph-name="minus" unicode="&#x2212;" horiz-adv-x="645" 
d="M39 184v128h512v-128h-512z" />
    <glyph glyph-name="uni2215" unicode="&#x2215;" horiz-adv-x="482" 
d="M-55 0l468 668h126l-467 -668h-127z" />
    <glyph glyph-name="uni2219" unicode="&#x2219;" horiz-adv-x="281" 
d="M125 157q-40 0 -69 29t-29 69q0 41 29 68.5t69 27.5t68.5 -27.5t28.5 -68.5q0 -40 -28.5 -69t-68.5 -29z" />
    <glyph glyph-name="radical" unicode="&#x221a;" horiz-adv-x="615" 
d="M271 -162l-110 255h-142v132h233l80 -196l170 639h144l-219 -830h-156z" />
    <glyph glyph-name="infinity" unicode="&#x221e;" horiz-adv-x="757" 
d="M201 97q-48 0 -87 20t-62 56t-23 82t23.5 81t63.5 55.5t89 20.5q50 0 88 -21.5t69 -54.5q32 33 70.5 54.5t87.5 21.5q50 0 89.5 -20.5t63 -55.5t23.5 -81t-23 -82t-61.5 -56t-87.5 -20q-54 0 -92.5 23t-69.5 56q-31 -33 -69 -56t-92 -23zM208 204q28 0 49.5 15.5
t38.5 36.5q-17 20 -38.5 35t-47.5 15q-25 0 -43 -13.5t-18 -36.5q0 -22 16.5 -37t42.5 -15zM517 204q26 0 42.5 15t16.5 37q0 23 -17.5 36.5t-43.5 13.5q-25 0 -47 -15t-39 -35q17 -21 38.5 -36.5t49.5 -15.5z" />
    <glyph glyph-name="uni03A9" unicode="&#x3a9;" horiz-adv-x="744" 
d="M53 0v115h137v24q-61 39 -99 104.5t-38 142.5q0 61 22.5 114t63 93.5t93.5 63.5t114 23t114 -23t93.5 -63.5t63 -93.5t22.5 -114q0 -77 -37.5 -142.5t-99.5 -104.5v-24h137v-115h-268v223q42 6 75 30t52 60.5t19 78.5q0 48 -23 87t-62 62t-86 23t-86.5 -23t-62.5 -62
t-23 -87q0 -42 19.5 -78.5t53 -60.5t74.5 -30v-223h-268z" />
    <glyph glyph-name="estimated" unicode="&#x212e;" horiz-adv-x="610" 
d="M292 -12q-72 0 -131.5 35t-95 94.5t-35.5 131.5t35.5 131t95 94.5t131.5 35.5t131 -35.5t94 -94.5t35 -131h-385v-145q25 -22 57 -34t68 -12q44 0 82.5 19t64.5 51l68 -25q-35 -52 -91.5 -83.5t-123.5 -31.5zM167 315h248v79q-52 46 -123 46q-36 0 -68 -12t-57 -34v-79z
" />
    <glyph glyph-name="partialdiff" unicode="&#x2202;" horiz-adv-x="594" 
d="M269 -12q-72 0 -128 27.5t-88 77.5t-32 119q0 62 30 112.5t81 80.5t113 30q70 0 113.5 -26.5t63.5 -52.5q-8 119 -78 165t-192 39v120q25 0 62.5 -1t81 -9.5t86 -30t77.5 -61.5t56 -104t21 -159q0 -97 -28 -171t-87 -115t-152 -41zM276 107q43 0 73 30.5t30 73.5
q0 44 -30 74t-73 30t-73.5 -30t-30.5 -74q0 -43 30.5 -73.5t73.5 -30.5z" />
    <glyph glyph-name="uni0394" unicode="&#x394;" horiz-adv-x="715" 
d="M-29 0l316 680l317 -680h-633zM159 115h256l-128 303z" />
    <glyph glyph-name="product" unicode="&#x220f;" horiz-adv-x="790" 
d="M113 -161v829h532v-829h-128v713h-276v-713h-128z" />
    <glyph glyph-name="pi" unicode="&#x3c0;" horiz-adv-x="638" 
d="M36 0l81 380h-89l25 116h589l-25 -116h-88l-49 -228q-3 -13 -3 -22q0 -13 10.5 -19t38.5 -6h33l-23 -104h-78q-65 0 -92.5 22.5t-27.5 60.5q0 18 4 34l56 262h-150l-81 -380h-131z" />
    <glyph glyph-name="hungarumlaut" unicode="&#x2dd;" horiz-adv-x="502" 
d="M89 572l14.5 14t35.5 35l42 42l35.5 35.5t15.5 14.5q14 13 35 13q27 0 43 -21q13 -16 13 -37q0 -27 -21 -42q-2 -1 -16 -9.5t-31 -19t-30 -18l-13 -7.5h-123zM297 572l14 14l35 35l42 42l35.5 35.5t15.5 14.5q14 13 35 13q27 0 43 -21q13 -16 13 -37q0 -27 -21 -42
q-2 -1 -16 -9.5t-31 -19t-30 -18l-13 -7.5h-122z" />
    <glyph glyph-name="tilde" unicode="&#x2dc;" horiz-adv-x="461" 
d="M370 568q-28 0 -46.5 6t-32.5 13.5t-28 13.5t-34 6q-31 0 -51 -33h-89q9 29 28.5 55.5t47 43t60.5 16.5q40 0 63 -10t39.5 -20.5t36.5 -10.5q22 0 33 8t20 18t24 14q3 1 6 1.5t6 0.5q16 0 27.5 -11.5t11.5 -27.5q0 -15 -10 -28q-10 -15 -36.5 -35t-75.5 -20z" />
    <glyph glyph-name="endash" unicode="&#x2013;" horiz-adv-x="536" 
d="M38 185v128h426v-128h-426z" />
    <glyph glyph-name="emdash" unicode="&#x2014;" horiz-adv-x="870" 
d="M38 185v128h760v-128h-760z" />
    <glyph glyph-name="trademark" unicode="&#x2122;" horiz-adv-x="1013" 
d="M487 301v367h173l66 -236l67 236h173v-367h-107v257l-84 -257h-97l-84 257v-257h-107zM234 301v274h-121v93h350v-93h-120v-274h-109z" />
    <glyph glyph-name="Euro" unicode="&#x20ac;" horiz-adv-x="704" 
d="M367 -12q-74 0 -133.5 26.5t-96 80.5t-43.5 136h-107l56 74h51q3 27 9 61h-88l56 74h52q41 115 128.5 177.5t202.5 62.5q50 0 98.5 -13.5t88 -47t59.5 -94.5l-139 -50q-18 44 -48.5 61t-69.5 17q-53 0 -95.5 -29.5t-68.5 -83.5h195l-56 -74h-164q-4 -18 -5.5 -31.5
t-3.5 -29.5h125l-56 -74h-64q11 -56 44 -84.5t77 -28.5q36 0 76 15t71 61l129 -54q-44 -72 -113 -112t-167 -40z" />
    <glyph glyph-name="uni2113" unicode="&#x2113;" horiz-adv-x="506" 
d="M219 -12q-43 0 -78 12.5t-56 40t-21 72.5q0 10 1.5 21t3.5 23l-74 -45l23 106l74 47l40 187q26 124 83 176t141 52q73 0 113.5 -30t40.5 -89q0 -62 -34.5 -111.5t-94 -93.5t-134.5 -92l-16 -73q-10 -46 2 -63.5t43 -17.5q23 0 44.5 9t41.5 22l38 -89q-27 -20 -73 -42
t-108 -22zM270 373q31 19 57 47.5t42 60t16 59.5q0 33 -31 33q-24 0 -37 -18t-21 -54z" />
    <glyph glyph-name="Lslash" unicode="&#x141;" horiz-adv-x="595" 
d="M28 0l48 225l-91 -48l26 123l92 48l68 320h160l-48 -223l176 93l-26 -124l-175 -92l-39 -182h320l-29 -140h-482z" />
    <glyph glyph-name="lslash" unicode="&#x142;" horiz-adv-x="342" 
d="M172 0q-65 0 -104 21.5t-39 76.5q0 10 1.5 20.5t3.5 21.5l19 88l-76 -40l26 121l76 40l67 319h155l-47 -226l122 65l-26 -122l-121 -64l-25 -116q-3 -13 -5 -24.5t-2 -20.5q0 -18 11.5 -27t43.5 -9h42l-25 -124h-97z" />
    <glyph glyph-name="oslash" unicode="&#xf8;" horiz-adv-x="577" 
d="M242 -12q-93 0 -154 44l-62 -59l-51 54l63 58q-16 25 -24.5 55t-8.5 64q0 88 37.5 157t105 109t156.5 40q42 0 79.5 -10t67.5 -30l63 59l51 -54l-62 -57q17 -25 26 -55t9 -68q0 -88 -36.5 -157.5t-103 -109.5t-156.5 -40zM161 200l190 176q-22 16 -55 16q-49 0 -81.5 -33
t-44.5 -85q-5 -19 -7 -38t-2 -36zM248 106q49 0 81.5 33t44.5 83q5 20 7 41t1 43l-193 -181q11 -9 25 -14t34 -5z" />
    <glyph glyph-name="Oslash" unicode="&#xd8;" horiz-adv-x="761" 
d="M333 -12q-65 0 -118 17.5t-91 48.5l-69 -65l-51 54l71 66q-45 68 -45 160q0 13 1.5 26t2.5 26q14 109 68 189.5t137.5 125t185.5 44.5q122 0 201 -58l69 64l51 -53l-68 -64q52 -69 52 -175q0 -23 -3 -49q-11 -105 -64 -185.5t-138 -126t-192 -45.5zM206 231l304 283
q-20 18 -45.5 27t-51.5 9q-49 0 -94 -25.5t-76.5 -76.5t-41.5 -127q-1 -9 -1.5 -18t-0.5 -17q0 -31 7 -55zM348 118q56 0 101 29.5t74.5 80.5t36.5 117q1 9 1.5 18t0.5 17q0 20 -3 37.5t-8 33.5l-310 -288q19 -21 45.5 -33t61.5 -12z" />
    <glyph glyph-name="Thorn" unicode="&#xde;" horiz-adv-x="623" 
d="M-23 0l142 668h161l-21 -105h88q79 0 138.5 -15.5t93 -53t33.5 -105.5q0 -21 -3 -45q-10 -73 -45 -116t-86 -64.5t-109 -28.5t-114 -7h-89l-27 -128h-162zM196 269h98q56 0 86 11t43.5 28.5t17.5 38.5q3 14 3 25q0 27 -23.5 40.5t-88.5 13.5h-102z" />
    <glyph glyph-name="ae" unicode="&#xe6;" horiz-adv-x="886" 
d="M165 -13q-52 0 -93.5 15t-65.5 44t-24 72q0 57 32.5 92.5t85.5 54.5t117.5 26.5t127.5 7.5q5 25 7 36.5t2 17.5q0 29 -19 41.5t-53 12.5q-31 0 -59 -14.5t-42 -44.5l-118 46q38 58 97 87t143 29q49 0 85 -16t54 -42q35 28 79 43t106 15q107 0 165 -58t58 -155
q0 -21 -3 -43t-8 -45h-366q-1 -6 -1.5 -11t-0.5 -10q0 -44 31 -63t71 -19q30 0 59 10t46 27l113 -45q-42 -53 -104 -81.5t-138 -28.5q-64 0 -108 25t-69 65q-43 -48 -97 -69.5t-110 -21.5zM487 299h228q1 4 1 7v7q0 43 -28 64t-66 21q-41 0 -81 -24.5t-54 -74.5zM212 91
q34 3 55.5 17t34.5 33t19.5 37.5t10.5 30.5q-87 1 -135 -9.5t-53 -54.5q-3 -25 15.5 -41t52.5 -13z" />
    <glyph glyph-name="eth" unicode="&#xf0;" horiz-adv-x="581" 
d="M228 -12q-62 0 -105.5 18.5t-70 49.5t-38.5 69t-12 76q0 74 33.5 131.5t92 90.5t134.5 33q41 0 84 -19.5t63 -52.5q2 21 0 48q-2 29 -11 59.5t-32 55.5l-77 -64l-37 47l63 54q-19 9 -46 14.5t-62 5.5l26 122q62 -2 109 -16t82 -37l74 61l37 -48l-65 -53
q45 -49 63.5 -118.5t13.5 -143.5q-8 -136 -53.5 -220.5t-114.5 -123.5t-151 -39zM237 101q62 0 91 39.5t29 97.5q0 47 -26 73.5t-70 26.5q-52 0 -86 -37.5t-34 -95.5q0 -45 27 -74.5t69 -29.5z" />
    <glyph glyph-name="thorn" unicode="&#xfe;" horiz-adv-x="589" 
d="M-55 -161l176 829h155l-49 -234q28 41 68 59t81 18q27 0 57.5 -9t57.5 -32t43.5 -62.5t16.5 -101.5t-18 -119t-52.5 -102t-83 -71t-110.5 -26q-26 0 -54 10.5t-50 30t-32 46.5l-50 -236h-156zM261 107q40 0 65.5 18t40 45t20.5 55t6 48q0 65 -23 92t-64 27
q-43 0 -72.5 -27t-45 -68t-15.5 -83q0 -52 27 -79.5t61 -27.5z" />
    <glyph glyph-name="multiply" unicode="&#xd7;" horiz-adv-x="618" 
d="M149 22l-91 90l136 136l-139 137l91 91l138 -139l137 139l91 -91l-139 -137l136 -136l-91 -90l-134 136z" />
    <glyph glyph-name="divide" unicode="&#xf7;" horiz-adv-x="645" 
d="M296 351q-32 0 -55.5 23.5t-23.5 56.5t23.5 56t55.5 23t55.5 -23t23.5 -56t-23.5 -56.5t-55.5 -23.5zM40 186v128h512v-128h-512zM296 -12q-32 0 -55.5 23.5t-23.5 56.5q0 32 23.5 55.5t55.5 23.5t55.5 -23.5t23.5 -55.5q0 -33 -23.5 -56.5t-55.5 -23.5z" />
    <glyph glyph-name="OE" unicode="&#x152;" horiz-adv-x="1095" 
d="M328 -12q-93 0 -159.5 36t-102 99.5t-35.5 145.5q0 25 3 52q14 110 68 190.5t137.5 124.5t185.5 44q68 0 126 -21.5t91 -62.5l15 72h493l-30 -139h-356l-25 -116h218l-29 -138h-218l-29 -135h356l-29 -140h-493l13 59q-37 -37 -91 -54t-109 -17zM348 119q56 0 101.5 29
t75 80.5t36.5 116.5q1 9 1.5 18t0.5 17q0 59 -21.5 96.5t-55.5 55.5t-73 18q-48 0 -93 -25.5t-76.5 -76.5t-41.5 -127q-1 -9 -1.5 -18t-0.5 -17q0 -45 16.5 -83t49.5 -61t82 -23z" />
    <glyph glyph-name="oe" unicode="&#x153;" horiz-adv-x="937" 
d="M220 -12q-106 0 -163.5 51t-57.5 142q0 29 6 62q18 96 65 155t111 86t133 27q64 0 106.5 -25t62.5 -59q21 26 56.5 45t76.5 29t78 10q104 0 156 -55.5t52 -148.5q0 -44 -12 -97h-368q-1 -6 -1.5 -11.5t-0.5 -10.5q0 -43 30.5 -62.5t68.5 -19.5q30 0 58.5 10t45.5 27
l111 -44q-49 -53 -109.5 -82t-136.5 -29q-55 0 -102.5 18.5t-72.5 49.5q-45 -36 -98.5 -52t-94.5 -16zM540 300h226q1 5 1.5 10.5t0.5 10.5q0 39 -27 58t-63 19q-28 0 -56.5 -11t-50.5 -33t-31 -54zM237 107q43 0 70.5 20t44 53t24.5 70q6 29 6 52q0 45 -22 67.5t-62 22.5
q-46 0 -81.5 -30.5t-53.5 -102.5q-8 -34 -8 -61q0 -37 18 -64t64 -27z" />
    <glyph glyph-name="Acircumflex" unicode="&#xc2;" horiz-adv-x="698" 
d="M-65 0l394 668h183l111 -668h-165l-16 119h-255l-66 -119h-186zM255 247h172l-32 254zM237 731l189 137q20 15 44 15q33 0 55 -25l118 -127h-116l-59 61l-84 -61h-147z" />
    <glyph glyph-name="Atilde" unicode="&#xc3;" horiz-adv-x="698" 
d="M-65 0l394 668h183l111 -668h-165l-16 119h-255l-66 -119h-186zM255 247h172l-32 254zM528 725q-28 0 -46.5 6t-32.5 13.5t-28 13.5t-34 6q-31 0 -51 -33h-89q9 29 28.5 55.5t47 43t60.5 16.5q40 0 63 -10t39.5 -20.5t36.5 -10.5q22 0 33 8t20 18t24 14q3 1 6 1.5t6 0.5
q16 0 27.5 -11.5t11.5 -27.5q0 -15 -10 -28q-10 -15 -36.5 -35t-75.5 -20z" />
    <glyph glyph-name="Adieresis" unicode="&#xc4;" horiz-adv-x="698" 
d="M-65 0l394 668h183l111 -668h-165l-16 119h-255l-66 -119h-186zM255 247h172l-32 254zM358 726q-29 0 -50 20.5t-21 49.5t21 50t50 21t49.5 -21t20.5 -50t-20.5 -49.5t-49.5 -20.5zM552 726q-29 0 -50 20.5t-21 49.5t21 50t50 21t49 -21t20 -50t-20 -49.5t-49 -20.5z" />
    <glyph glyph-name="Aring" unicode="&#xc5;" horiz-adv-x="698" 
d="M-65 0l394 668h183l111 -668h-165l-16 119h-255l-66 -119h-186zM255 247h172l-32 254zM432 614q-36 0 -66 18t-48 48.5t-18 66.5q0 37 18 66.5t48 47.5t66 18q37 0 67 -18t48 -47.5t18 -66.5q0 -36 -18 -66.5t-48 -48.5t-67 -18zM432 700q20 0 33.5 14t13.5 33
q0 20 -13.5 33.5t-33.5 13.5q-19 0 -33 -13.5t-14 -33.5q0 -19 14 -33t33 -14z" />
    <glyph glyph-name="Agrave" unicode="&#xc0;" horiz-adv-x="698" 
d="M-65 0l394 668h183l111 -668h-165l-16 119h-255l-66 -119h-186zM255 247h172l-32 254zM396 731q-5 4 -18 15t-26.5 24t-21.5 23q-13 16 -13 37q0 23 16.5 38.5t38.5 15.5q28 0 44 -21q10 -12 23.5 -32t27.5 -41.5t24 -38t13 -20.5h-108z" />
    <glyph glyph-name="Aacute" unicode="&#xc1;" horiz-adv-x="698" 
d="M-65 0l394 668h183l111 -668h-165l-16 119h-255l-66 -119h-186zM255 247h172l-32 254zM370 746l14.5 14t35.5 35l42 42l35.5 35.5t15.5 14.5q15 12 34 12q28 0 44 -21q13 -14 13 -35q0 -26 -21 -43q-2 -2 -16 -10.5t-31 -18.5t-30 -17.5l-13 -7.5h-123z" />
    <glyph glyph-name="Amacron" unicode="&#x100;" horiz-adv-x="698" 
d="M-65 0l394 668h183l111 -668h-165l-16 119h-255l-66 -119h-186zM255 247h172l-32 254zM294 747l21 98h299l-21 -98h-299z" />
    <glyph glyph-name="amacron" unicode="&#x101;" horiz-adv-x="545" 
d="M130 -12q-38 0 -72 15.5t-55 45t-21 69.5q0 56 32 91.5t85 56.5t115.5 32t123.5 17q4 15 5 24t1 15q0 29 -19 41t-53 12q-32 0 -60 -14.5t-42 -44.5l-117 46q38 59 97 87.5t143 28.5q58 0 103.5 -17.5t71.5 -52.5t26 -87q0 -20 -5.5 -50t-12.5 -59.5t-11 -50.5
q-7 -32 -12.5 -69t-8.5 -69.5t-3 -54.5h-144l-5 59q-34 -41 -71.5 -56t-90.5 -15zM208 91q41 0 70.5 26.5t46.5 95.5l3 12q-84 -7 -134.5 -26.5t-50.5 -60.5q0 -22 19 -34.5t46 -12.5zM164 570l21 98h299l-21 -98h-299z" />
    <glyph glyph-name="agrave" unicode="&#xe0;" horiz-adv-x="545" 
d="M130 -12q-38 0 -72 15.5t-55 45t-21 69.5q0 56 32 91.5t85 56.5t115.5 32t123.5 17q4 15 5 24t1 15q0 29 -19 41t-53 12q-32 0 -60 -14.5t-42 -44.5l-117 46q38 59 97 87.5t143 28.5q58 0 103.5 -17.5t71.5 -52.5t26 -87q0 -20 -5.5 -50t-12.5 -59.5t-11 -50.5
q-7 -32 -12.5 -69t-8.5 -69.5t-3 -54.5h-144l-5 59q-34 -41 -71.5 -56t-90.5 -15zM208 91q41 0 70.5 26.5t46.5 95.5l3 12q-84 -7 -134.5 -26.5t-50.5 -60.5q0 -22 19 -34.5t46 -12.5zM253 574l-13 11t-29 25.5t-25 24.5q-12 17 -12 35q0 26 21 44q14 13 35 13q27 0 43 -21
q9 -12 24 -33.5t29.5 -44.5t24.5 -38.5l10 -15.5h-108z" />
    <glyph glyph-name="acircumflex" unicode="&#xe2;" horiz-adv-x="545" 
d="M130 -12q-38 0 -72 15.5t-55 45t-21 69.5q0 56 32 91.5t85 56.5t115.5 32t123.5 17q4 15 5 24t1 15q0 29 -19 41t-53 12q-32 0 -60 -14.5t-42 -44.5l-117 46q38 59 97 87.5t143 28.5q58 0 103.5 -17.5t71.5 -52.5t26 -87q0 -20 -5.5 -50t-12.5 -59.5t-11 -50.5
q-7 -32 -12.5 -69t-8.5 -69.5t-3 -54.5h-144l-5 59q-34 -41 -71.5 -56t-90.5 -15zM208 91q41 0 70.5 26.5t46.5 95.5l3 12q-84 -7 -134.5 -26.5t-50.5 -60.5q0 -22 19 -34.5t46 -12.5zM112 574l189 137q20 15 44 15q33 0 55 -25l118 -127h-116l-59 61l-84 -61h-147z" />
    <glyph glyph-name="atilde" unicode="&#xe3;" horiz-adv-x="545" 
d="M130 -12q-38 0 -72 15.5t-55 45t-21 69.5q0 56 32 91.5t85 56.5t115.5 32t123.5 17q4 15 5 24t1 15q0 29 -19 41t-53 12q-32 0 -60 -14.5t-42 -44.5l-117 46q38 59 97 87.5t143 28.5q58 0 103.5 -17.5t71.5 -52.5t26 -87q0 -20 -5.5 -50t-12.5 -59.5t-11 -50.5
q-7 -32 -12.5 -69t-8.5 -69.5t-3 -54.5h-144l-5 59q-34 -41 -71.5 -56t-90.5 -15zM208 91q41 0 70.5 26.5t46.5 95.5l3 12q-84 -7 -134.5 -26.5t-50.5 -60.5q0 -22 19 -34.5t46 -12.5zM402 568q-28 0 -46.5 6t-32.5 13.5t-28 13.5t-34 6q-31 0 -51 -33h-89q9 29 28.5 55.5
t47 43t60.5 16.5q40 0 63 -10t39.5 -20.5t36.5 -10.5q22 0 33 8t20 18t24 14q3 1 6 1.5t6 0.5q16 0 27.5 -11.5t11.5 -27.5q0 -15 -10 -28q-10 -15 -36.5 -35t-75.5 -20z" />
    <glyph glyph-name="adieresis" unicode="&#xe4;" horiz-adv-x="545" 
d="M130 -12q-38 0 -72 15.5t-55 45t-21 69.5q0 56 32 91.5t85 56.5t115.5 32t123.5 17q4 15 5 24t1 15q0 29 -19 41t-53 12q-32 0 -60 -14.5t-42 -44.5l-117 46q38 59 97 87.5t143 28.5q58 0 103.5 -17.5t71.5 -52.5t26 -87q0 -20 -5.5 -50t-12.5 -59.5t-11 -50.5
q-7 -32 -12.5 -69t-8.5 -69.5t-3 -54.5h-144l-5 59q-34 -41 -71.5 -56t-90.5 -15zM208 91q41 0 70.5 26.5t46.5 95.5l3 12q-84 -7 -134.5 -26.5t-50.5 -60.5q0 -22 19 -34.5t46 -12.5zM224 578q-29 0 -50 20.5t-21 49.5t21 50t50 21t49.5 -21t20.5 -50t-20.5 -49.5
t-49.5 -20.5zM418 578q-29 0 -50 20.5t-21 49.5t21 50t50 21t49 -21t20 -50t-20 -49.5t-49 -20.5z" />
    <glyph glyph-name="aring" unicode="&#xe5;" horiz-adv-x="545" 
d="M130 -12q-38 0 -72 15.5t-55 45t-21 69.5q0 56 32 91.5t85 56.5t115.5 32t123.5 17q4 15 5 24t1 15q0 29 -19 41t-53 12q-32 0 -60 -14.5t-42 -44.5l-117 46q38 59 97 87.5t143 28.5q58 0 103.5 -17.5t71.5 -52.5t26 -87q0 -20 -5.5 -50t-12.5 -59.5t-11 -50.5
q-7 -32 -12.5 -69t-8.5 -69.5t-3 -54.5h-144l-5 59q-34 -41 -71.5 -56t-90.5 -15zM208 91q41 0 70.5 26.5t46.5 95.5l3 12q-84 -7 -134.5 -26.5t-50.5 -60.5q0 -22 19 -34.5t46 -12.5zM315 535q-36 0 -66 18t-48 48.5t-18 66.5q0 37 18 66.5t48 47.5t66 18q37 0 67 -18
t48 -47.5t18 -66.5q0 -36 -18 -66.5t-48 -48.5t-67 -18zM315 621q20 0 33.5 14t13.5 33q0 20 -13.5 33.5t-33.5 13.5q-19 0 -33 -13.5t-14 -33.5q0 -19 14 -33t33 -14z" />
    <glyph glyph-name="aacute" unicode="&#xe1;" horiz-adv-x="545" 
d="M130 -12q-38 0 -72 15.5t-55 45t-21 69.5q0 56 32 91.5t85 56.5t115.5 32t123.5 17q4 15 5 24t1 15q0 29 -19 41t-53 12q-32 0 -60 -14.5t-42 -44.5l-117 46q38 59 97 87.5t143 28.5q58 0 103.5 -17.5t71.5 -52.5t26 -87q0 -20 -5.5 -50t-12.5 -59.5t-11 -50.5
q-7 -32 -12.5 -69t-8.5 -69.5t-3 -54.5h-144l-5 59q-34 -41 -71.5 -56t-90.5 -15zM208 91q41 0 70.5 26.5t46.5 95.5l3 12q-84 -7 -134.5 -26.5t-50.5 -60.5q0 -22 19 -34.5t46 -12.5zM241 574l14.5 14t35.5 35l42 42l35.5 35.5t15.5 14.5q15 12 34 12q28 0 44 -21
q13 -14 13 -35q0 -26 -21 -43q-2 -2 -16 -10.5t-31 -18.5t-30 -17.5l-13 -7.5h-123z" />
    <glyph glyph-name="Ccedilla" unicode="&#xc7;" horiz-adv-x="673" 
d="M322 -12q-82 0 -148 30.5t-104 92t-38 154.5q0 89 27 164.5t77 131.5t121.5 87.5t159.5 31.5q52 0 103.5 -14.5t91.5 -48.5t59 -92l-146 -49q-18 42 -50.5 58t-73.5 16q-47 0 -84 -22.5t-63 -60.5t-40 -85.5t-14 -98.5q0 -81 38.5 -121.5t99.5 -41.5q38 0 74 16t68 58
l136 -53q-46 -71 -119 -112t-175 -41zM262 -195q-31 0 -57 5.5t-39 11.5l26 50q29 -13 60 -13q21 0 36.5 8t15.5 24q0 11 -11 18t-28 7q-13 0 -18 -2.5t-11 -2.5q-7 0 -13 4.5t-6 13.5q0 7 6 14l69 83l36 -25l-40 -48q15 3 28 3q35 0 57 -16.5t22 -42.5q0 -36 -20.5 -56
t-51.5 -28t-61 -8z" />
    <glyph glyph-name="ccedilla" unicode="&#xe7;" horiz-adv-x="531" 
d="M223 -12q-105 0 -163 57.5t-58 148.5q0 90 40.5 161.5t111.5 113t162 41.5q65 0 116.5 -27.5t78.5 -100.5l-133 -46q-7 32 -28 44t-51 12q-48 0 -79.5 -29.5t-47.5 -74.5t-16 -90q0 -50 24 -71.5t56 -21.5t57 10t48 39l123 -47q-48 -67 -112.5 -93t-128.5 -26zM169 -194
q-31 0 -57 5.5t-39 11.5l26 50q29 -13 60 -13q21 0 36.5 8t15.5 24q0 11 -11 18t-28 7q-13 0 -18 -2.5t-11 -2.5q-7 0 -13 4.5t-6 13.5q0 7 6 14l69 83l36 -25l-40 -48q15 3 28 3q35 0 57 -16.5t22 -42.5q0 -36 -20.5 -56t-51.5 -28t-61 -8z" />
    <glyph glyph-name="Egrave" unicode="&#xc8;" horiz-adv-x="582" 
d="M-23 0l142 668h518l-30 -139h-356l-25 -116h217l-29 -139h-217l-29 -135h356l-29 -139h-518zM353 731q-5 4 -18 15t-26.5 24t-21.5 23q-13 16 -13 37q0 23 16.5 38.5t38.5 15.5q28 0 44 -21q10 -12 23.5 -32t27.5 -41.5t24 -38t13 -20.5h-108z" />
    <glyph glyph-name="Eacute" unicode="&#xc9;" horiz-adv-x="582" 
d="M-23 0l142 668h518l-30 -139h-356l-25 -116h217l-29 -139h-217l-29 -135h356l-29 -139h-518zM311 731q36 35 70.5 69.5t63.5 62.5q14 14 24.5 17.5t19.5 3.5q26 0 41 -17.5t15 -38.5q0 -26 -20 -43q-5 -4 -19.5 -13t-31 -18.5t-28.5 -16l-12 -6.5h-123z" />
    <glyph glyph-name="Ecircumflex" unicode="&#xca;" horiz-adv-x="582" 
d="M-23 0l142 668h518l-30 -139h-356l-25 -116h217l-29 -139h-217l-29 -135h356l-29 -139h-518zM194 731l189 137q20 15 44 15q33 0 55 -25l118 -127h-116l-59 61l-84 -61h-147z" />
    <glyph glyph-name="Edieresis" unicode="&#xcb;" horiz-adv-x="582" 
d="M-23 0l142 668h518l-30 -139h-356l-25 -116h217l-29 -139h-217l-29 -135h356l-29 -139h-518zM315 726q-29 0 -50 20.5t-21 49.5t21 50t50 21t49.5 -21t20.5 -50t-20.5 -49.5t-49.5 -20.5zM509 726q-29 0 -50 20.5t-21 49.5t21 50t50 21t49 -21t20 -50t-20 -49.5
t-49 -20.5z" />
    <glyph glyph-name="egrave" unicode="&#xe8;" horiz-adv-x="567" 
d="M229 -12q-105 0 -165.5 54.5t-60.5 153.5q0 66 22.5 123t63.5 100t96.5 67t121.5 24q107 0 165 -57.5t58 -154.5q0 -21 -2.5 -43t-8.5 -46h-365q-1 -6 -1.5 -11t-0.5 -10q0 -44 31 -63t71 -19q30 0 58.5 9.5t45.5 26.5l114 -44q-43 -53 -105 -81.5t-138 -28.5zM168 299
h227q1 4 1 7v7q0 44 -28 65t-66 21q-40 0 -80 -25t-54 -75zM276 574l-13 11t-29 25.5t-25 24.5q-12 17 -12 35q0 26 21 44q14 13 35 13q27 0 43 -21q9 -12 24 -33.5t29.5 -44.5t24.5 -38.5l10 -15.5h-108z" />
    <glyph glyph-name="eacute" unicode="&#xe9;" horiz-adv-x="567" 
d="M229 -12q-105 0 -165.5 54.5t-60.5 153.5q0 66 22.5 123t63.5 100t96.5 67t121.5 24q107 0 165 -57.5t58 -154.5q0 -21 -2.5 -43t-8.5 -46h-365q-1 -6 -1.5 -11t-0.5 -10q0 -44 31 -63t71 -19q30 0 58.5 9.5t45.5 26.5l114 -44q-43 -53 -105 -81.5t-138 -28.5zM168 299
h227q1 4 1 7v7q0 44 -28 65t-66 21q-40 0 -80 -25t-54 -75zM264 574l14.5 14t35.5 35l42 42l35.5 35.5t15.5 14.5q15 12 34 12q28 0 44 -21q13 -14 13 -35q0 -26 -21 -43q-2 -2 -16 -10.5t-31 -18.5t-30 -17.5l-13 -7.5h-123z" />
    <glyph glyph-name="ecircumflex" unicode="&#xea;" horiz-adv-x="567" 
d="M229 -12q-105 0 -165.5 54.5t-60.5 153.5q0 66 22.5 123t63.5 100t96.5 67t121.5 24q107 0 165 -57.5t58 -154.5q0 -21 -2.5 -43t-8.5 -46h-365q-1 -6 -1.5 -11t-0.5 -10q0 -44 31 -63t71 -19q30 0 58.5 9.5t45.5 26.5l114 -44q-43 -53 -105 -81.5t-138 -28.5zM168 299
h227q1 4 1 7v7q0 44 -28 65t-66 21q-40 0 -80 -25t-54 -75zM135 574l189 137q20 15 44 15q33 0 55 -25l118 -127h-116l-59 61l-84 -61h-147z" />
    <glyph glyph-name="edieresis" unicode="&#xeb;" horiz-adv-x="567" 
d="M229 -12q-105 0 -165.5 54.5t-60.5 153.5q0 66 22.5 123t63.5 100t96.5 67t121.5 24q107 0 165 -57.5t58 -154.5q0 -21 -2.5 -43t-8.5 -46h-365q-1 -6 -1.5 -11t-0.5 -10q0 -44 31 -63t71 -19q30 0 58.5 9.5t45.5 26.5l114 -44q-43 -53 -105 -81.5t-138 -28.5zM168 299
h227q1 4 1 7v7q0 44 -28 65t-66 21q-40 0 -80 -25t-54 -75zM247 578q-29 0 -50 20.5t-21 49.5t21 50t50 21t49.5 -21t20.5 -50t-20.5 -49.5t-49.5 -20.5zM441 578q-29 0 -50 20.5t-21 49.5t21 50t50 21t49 -21t20 -50t-20 -49.5t-49 -20.5z" />
    <glyph glyph-name="Igrave" unicode="&#xcc;" horiz-adv-x="459" 
d="M-13 0l26 124h92l90 420h-92l26 124h345l-27 -124h-92l-88 -420h91l-27 -124h-344zM270 731q-5 4 -18 15t-26.5 24t-21.5 23q-13 16 -13 37q0 23 16.5 38.5t38.5 15.5q28 0 44 -21q10 -12 23.5 -32t27.5 -41.5t24 -38t13 -20.5h-108z" />
    <glyph glyph-name="Iacute" unicode="&#xcd;" horiz-adv-x="459" 
d="M-13 0l26 124h92l90 420h-92l26 124h345l-27 -124h-92l-88 -420h91l-27 -124h-344zM228 731q36 35 70.5 69.5t63.5 62.5q14 14 24.5 17.5t19.5 3.5q26 0 41 -17.5t15 -38.5q0 -26 -20 -43q-5 -4 -19.5 -13t-31 -18.5t-28.5 -16l-12 -6.5h-123z" />
    <glyph glyph-name="Icircumflex" unicode="&#xce;" horiz-adv-x="459" 
d="M-13 0l26 124h92l90 420h-92l26 124h345l-27 -124h-92l-88 -420h91l-27 -124h-344zM111 731l189 137q20 15 44 15q33 0 55 -25l118 -127h-116l-59 61l-84 -61h-147z" />
    <glyph glyph-name="Idieresis" unicode="&#xcf;" horiz-adv-x="459" 
d="M-13 0l26 124h92l90 420h-92l26 124h345l-27 -124h-92l-88 -420h91l-27 -124h-344zM232 726q-29 0 -50 20.5t-21 49.5t21 50t50 21t49.5 -21t20.5 -50t-20.5 -49.5t-49.5 -20.5zM426 726q-29 0 -50 20.5t-21 49.5t21 50t50 21t49 -21t20 -50t-20 -49.5t-49 -20.5z" />
    <glyph glyph-name="igrave" unicode="&#xec;" horiz-adv-x="326" 
d="M48 0l81 380h-103l25 116h258l-105 -496h-156zM157 574l-13 11t-29 25.5t-25 24.5q-12 17 -12 35q0 26 21 44q14 13 35 13q27 0 43 -21q9 -12 24 -33.5t29.5 -44.5t24.5 -38.5l10 -15.5h-108z" />
    <glyph glyph-name="iacute" unicode="&#xed;" horiz-adv-x="359" 
d="M48 0l81 380h-103l25 116h258l-105 -496h-156zM145 574l14.5 14t35.5 35l42 42l35.5 35.5t15.5 14.5q15 12 34 12q28 0 44 -21q13 -14 13 -35q0 -26 -21 -43q-2 -2 -16 -10.5t-31 -18.5t-30 -17.5l-13 -7.5h-123z" />
    <glyph glyph-name="icircumflex" unicode="&#xee;" horiz-adv-x="326" 
d="M48 0l81 380h-103l25 116h258l-105 -496h-156zM16 574l189 137q20 15 44 15q33 0 55 -25l118 -127h-116l-59 61l-84 -61h-147z" />
    <glyph glyph-name="idieresis" unicode="&#xef;" horiz-adv-x="405" 
d="M76 0l81 380h-103l25 116h258l-105 -496h-156zM156 578q-29 0 -50 20.5t-21 49.5t21 50t50 21t49.5 -21t20.5 -50t-20.5 -49.5t-49.5 -20.5zM350 578q-29 0 -50 20.5t-21 49.5t21 50t50 21t49 -21t20 -50t-20 -49.5t-49 -20.5z" />
    <glyph glyph-name="Ntilde" unicode="&#xd1;" horiz-adv-x="715" 
d="M-23 0l142 668h199l160 -485l104 485h155l-142 -668h-199l-160 485l-103 -485h-156zM557 725q-28 0 -46.5 6t-32.5 13.5t-28 13.5t-34 6q-31 0 -51 -33h-89q9 29 28.5 55.5t47 43t60.5 16.5q40 0 63 -10t39.5 -20.5t36.5 -10.5q22 0 33 8t20 18t24 14q3 1 6 1.5t6 0.5
q16 0 27.5 -11.5t11.5 -27.5q0 -15 -10 -28q-10 -15 -36.5 -35t-75.5 -20z" />
    <glyph glyph-name="Ograve" unicode="&#xd2;" horiz-adv-x="763" 
d="M335 -12q-96 0 -163.5 35.5t-103.5 99t-36 146.5q0 86 29 160.5t82 131t125 88t158 31.5q91 0 159.5 -33t107.5 -97t39 -157q0 -87 -29.5 -160.5t-83 -128.5t-126 -85.5t-158.5 -30.5zM349 118q65 0 113 36.5t75 96.5t27 128q0 59 -21.5 96.5t-55.5 56t-73 18.5
q-49 0 -88.5 -22.5t-67.5 -60.5t-42.5 -85t-14.5 -96q0 -46 16.5 -84t49.5 -61t82 -23zM425 731q-5 4 -18 15t-26.5 24t-21.5 23q-13 16 -13 37q0 23 16.5 38.5t38.5 15.5q28 0 44 -21q10 -12 23.5 -32t27.5 -41.5t24 -38t13 -20.5h-108z" />
    <glyph glyph-name="Oacute" unicode="&#xd3;" horiz-adv-x="763" 
d="M335 -12q-96 0 -163.5 35.5t-103.5 99t-36 146.5q0 86 29 160.5t82 131t125 88t158 31.5q91 0 159.5 -33t107.5 -97t39 -157q0 -87 -29.5 -160.5t-83 -128.5t-126 -85.5t-158.5 -30.5zM349 118q65 0 113 36.5t75 96.5t27 128q0 59 -21.5 96.5t-55.5 56t-73 18.5
q-49 0 -88.5 -22.5t-67.5 -60.5t-42.5 -85t-14.5 -96q0 -46 16.5 -84t49.5 -61t82 -23zM386 731q36 35 70.5 69.5t63.5 62.5q14 14 24.5 17.5t19.5 3.5q26 0 41 -17.5t15 -38.5q0 -26 -20 -43q-5 -4 -19.5 -13t-31 -18.5t-28.5 -16l-12 -6.5h-123z" />
    <glyph glyph-name="Ocircumflex" unicode="&#xd4;" horiz-adv-x="763" 
d="M335 -12q-96 0 -163.5 35.5t-103.5 99t-36 146.5q0 86 29 160.5t82 131t125 88t158 31.5q91 0 159.5 -33t107.5 -97t39 -157q0 -87 -29.5 -160.5t-83 -128.5t-126 -85.5t-158.5 -30.5zM349 118q65 0 113 36.5t75 96.5t27 128q0 59 -21.5 96.5t-55.5 56t-73 18.5
q-49 0 -88.5 -22.5t-67.5 -60.5t-42.5 -85t-14.5 -96q0 -46 16.5 -84t49.5 -61t82 -23zM266 731l189 137q20 15 44 15q33 0 55 -25l118 -127h-116l-59 61l-84 -61h-147z" />
    <glyph glyph-name="Otilde" unicode="&#xd5;" horiz-adv-x="763" 
d="M335 -12q-96 0 -163.5 35.5t-103.5 99t-36 146.5q0 86 29 160.5t82 131t125 88t158 31.5q91 0 159.5 -33t107.5 -97t39 -157q0 -87 -29.5 -160.5t-83 -128.5t-126 -85.5t-158.5 -30.5zM349 118q65 0 113 36.5t75 96.5t27 128q0 59 -21.5 96.5t-55.5 56t-73 18.5
q-49 0 -88.5 -22.5t-67.5 -60.5t-42.5 -85t-14.5 -96q0 -46 16.5 -84t49.5 -61t82 -23zM557 725q-28 0 -46.5 6t-32.5 13.5t-28 13.5t-34 6q-31 0 -51 -33h-89q9 29 28.5 55.5t47 43t60.5 16.5q40 0 63 -10t39.5 -20.5t36.5 -10.5q22 0 33 8t20 18t24 14q3 1 6 1.5t6 0.5
q16 0 27.5 -11.5t11.5 -27.5q0 -15 -10 -28q-10 -15 -36.5 -35t-75.5 -20z" />
    <glyph glyph-name="Odieresis" unicode="&#xd6;" horiz-adv-x="763" 
d="M335 -12q-96 0 -163.5 35.5t-103.5 99t-36 146.5q0 86 29 160.5t82 131t125 88t158 31.5q91 0 159.5 -33t107.5 -97t39 -157q0 -87 -29.5 -160.5t-83 -128.5t-126 -85.5t-158.5 -30.5zM349 118q65 0 113 36.5t75 96.5t27 128q0 59 -21.5 96.5t-55.5 56t-73 18.5
q-49 0 -88.5 -22.5t-67.5 -60.5t-42.5 -85t-14.5 -96q0 -46 16.5 -84t49.5 -61t82 -23zM387 726q-29 0 -50 20.5t-21 49.5t21 50t50 21t49.5 -21t20.5 -50t-20.5 -49.5t-49.5 -20.5zM581 726q-29 0 -50 20.5t-21 49.5t21 50t50 21t49 -21t20 -50t-20 -49.5t-49 -20.5z" />
    <glyph glyph-name="Ugrave" unicode="&#xd9;" horiz-adv-x="679" 
d="M266 -12q-90 0 -142.5 26t-75 71t-22.5 102q0 25 3.5 51t9.5 54l81 376h161l-83 -389q-4 -21 -7 -39.5t-3 -35.5q0 -40 22.5 -63.5t83.5 -23.5q55 0 86.5 20t49 56.5t27.5 85.5l83 389h161l-80 -376q-20 -94 -50.5 -153.5t-73 -92.5t-100 -45.5t-131.5 -12.5zM383 731
q-5 4 -18 15t-26.5 24t-21.5 23q-13 16 -13 37q0 23 16.5 38.5t38.5 15.5q28 0 44 -21q10 -12 23.5 -32t27.5 -41.5t24 -38t13 -20.5h-108z" />
    <glyph glyph-name="Uacute" unicode="&#xda;" horiz-adv-x="679" 
d="M266 -12q-90 0 -142.5 26t-75 71t-22.5 102q0 25 3.5 51t9.5 54l81 376h161l-83 -389q-4 -21 -7 -39.5t-3 -35.5q0 -40 22.5 -63.5t83.5 -23.5q55 0 86.5 20t49 56.5t27.5 85.5l83 389h161l-80 -376q-20 -94 -50.5 -153.5t-73 -92.5t-100 -45.5t-131.5 -12.5zM341 731
q36 35 70.5 69.5t63.5 62.5q14 14 24.5 17.5t19.5 3.5q26 0 41 -17.5t15 -38.5q0 -26 -20 -43q-5 -4 -19.5 -13t-31 -18.5t-28.5 -16l-12 -6.5h-123z" />
    <glyph glyph-name="Ucircumflex" unicode="&#xdb;" horiz-adv-x="679" 
d="M266 -12q-90 0 -142.5 26t-75 71t-22.5 102q0 25 3.5 51t9.5 54l81 376h161l-83 -389q-4 -21 -7 -39.5t-3 -35.5q0 -40 22.5 -63.5t83.5 -23.5q55 0 86.5 20t49 56.5t27.5 85.5l83 389h161l-80 -376q-20 -94 -50.5 -153.5t-73 -92.5t-100 -45.5t-131.5 -12.5zM224 731
l189 137q20 15 44 15q33 0 55 -25l118 -127h-116l-59 61l-84 -61h-147z" />
    <glyph glyph-name="Udieresis" unicode="&#xdc;" horiz-adv-x="679" 
d="M266 -12q-90 0 -142.5 26t-75 71t-22.5 102q0 25 3.5 51t9.5 54l81 376h161l-83 -389q-4 -21 -7 -39.5t-3 -35.5q0 -40 22.5 -63.5t83.5 -23.5q55 0 86.5 20t49 56.5t27.5 85.5l83 389h161l-80 -376q-20 -94 -50.5 -153.5t-73 -92.5t-100 -45.5t-131.5 -12.5zM345 726
q-29 0 -50 20.5t-21 49.5t21 50t50 21t49.5 -21t20.5 -50t-20.5 -49.5t-49.5 -20.5zM539 726q-29 0 -50 20.5t-21 49.5t21 50t50 21t49 -21t20 -50t-20 -49.5t-49 -20.5z" />
    <glyph glyph-name="Yacute" unicode="&#xdd;" horiz-adv-x="700" 
d="M191 0l51 241l-160 427h171l86 -277l219 277h204l-358 -427l-50 -241h-163zM330 731q36 35 70.5 69.5t63.5 62.5q14 14 24.5 17.5t19.5 3.5q26 0 41 -17.5t15 -38.5q0 -26 -20 -43q-5 -4 -19.5 -13t-31 -18.5t-28.5 -16l-12 -6.5h-123z" />
    <glyph glyph-name="ntilde" unicode="&#xf1;" horiz-adv-x="581" 
d="M-20 0l105 496h136l5 -64q21 29 63 53.5t108 24.5q59 0 95.5 -33.5t36.5 -110.5q0 -19 -2.5 -40t-7.5 -45l-60 -281h-156l56 263q9 39 9 65q0 34 -14 49t-42 15q-93 0 -122 -138l-54 -254h-156zM448 568q-28 0 -46.5 6t-32.5 13.5t-28 13.5t-34 6q-31 0 -51 -33h-89
q9 29 28.5 55.5t47 43t60.5 16.5q40 0 63 -10t39.5 -20.5t36.5 -10.5q22 0 33 8t20 18t24 14q3 1 6 1.5t6 0.5q16 0 27.5 -11.5t11.5 -27.5q0 -15 -10 -28q-10 -15 -36.5 -35t-75.5 -20z" />
    <glyph glyph-name="ograve" unicode="&#xf2;" horiz-adv-x="576" 
d="M239 -13q-70 0 -123 26.5t-82 75.5t-29 115q0 88 37 157t104 109t156 40q66 0 119 -24t84 -72t31 -119q0 -88 -36.5 -158t-103 -110t-157.5 -40zM245 105q46 0 76 26.5t45 69t15 91.5q0 55 -24 77.5t-65 22.5q-46 0 -75.5 -27.5t-43.5 -70t-14 -88.5q0 -25 7.5 -48.5
t26 -38t52.5 -14.5zM272 574l-13 11t-29 25.5t-25 24.5q-12 17 -12 35q0 26 21 44q14 13 35 13q27 0 43 -21q9 -12 24 -33.5t29.5 -44.5t24.5 -38.5l10 -15.5h-108z" />
    <glyph glyph-name="oacute" unicode="&#xf3;" horiz-adv-x="576" 
d="M239 -13q-70 0 -123 26.5t-82 75.5t-29 115q0 88 37 157t104 109t156 40q66 0 119 -24t84 -72t31 -119q0 -88 -36.5 -158t-103 -110t-157.5 -40zM245 105q46 0 76 26.5t45 69t15 91.5q0 55 -24 77.5t-65 22.5q-46 0 -75.5 -27.5t-43.5 -70t-14 -88.5q0 -25 7.5 -48.5
t26 -38t52.5 -14.5zM260 574l14.5 14t35.5 35l42 42l35.5 35.5t15.5 14.5q15 12 34 12q28 0 44 -21q13 -14 13 -35q0 -26 -21 -43q-2 -2 -16 -10.5t-31 -18.5t-30 -17.5l-13 -7.5h-123z" />
    <glyph glyph-name="ocircumflex" unicode="&#xf4;" horiz-adv-x="576" 
d="M239 -13q-70 0 -123 26.5t-82 75.5t-29 115q0 88 37 157t104 109t156 40q66 0 119 -24t84 -72t31 -119q0 -88 -36.5 -158t-103 -110t-157.5 -40zM245 105q46 0 76 26.5t45 69t15 91.5q0 55 -24 77.5t-65 22.5q-46 0 -75.5 -27.5t-43.5 -70t-14 -88.5q0 -25 7.5 -48.5
t26 -38t52.5 -14.5zM131 574l189 137q20 15 44 15q33 0 55 -25l118 -127h-116l-59 61l-84 -61h-147z" />
    <glyph glyph-name="otilde" unicode="&#xf5;" horiz-adv-x="576" 
d="M239 -13q-70 0 -123 26.5t-82 75.5t-29 115q0 88 37 157t104 109t156 40q66 0 119 -24t84 -72t31 -119q0 -88 -36.5 -158t-103 -110t-157.5 -40zM245 105q46 0 76 26.5t45 69t15 91.5q0 55 -24 77.5t-65 22.5q-46 0 -75.5 -27.5t-43.5 -70t-14 -88.5q0 -25 7.5 -48.5
t26 -38t52.5 -14.5zM421 568q-28 0 -46.5 6t-32.5 13.5t-28 13.5t-34 6q-31 0 -51 -33h-89q9 29 28.5 55.5t47 43t60.5 16.5q40 0 63 -10t39.5 -20.5t36.5 -10.5q22 0 33 8t20 18t24 14q3 1 6 1.5t6 0.5q16 0 27.5 -11.5t11.5 -27.5q0 -15 -10 -28q-10 -15 -36.5 -35
t-75.5 -20z" />
    <glyph glyph-name="odieresis" unicode="&#xf6;" horiz-adv-x="576" 
d="M239 -13q-70 0 -123 26.5t-82 75.5t-29 115q0 88 37 157t104 109t156 40q66 0 119 -24t84 -72t31 -119q0 -88 -36.5 -158t-103 -110t-157.5 -40zM245 105q46 0 76 26.5t45 69t15 91.5q0 55 -24 77.5t-65 22.5q-46 0 -75.5 -27.5t-43.5 -70t-14 -88.5q0 -25 7.5 -48.5
t26 -38t52.5 -14.5zM243 578q-29 0 -50 20.5t-21 49.5t21 50t50 21t49.5 -21t20.5 -50t-20.5 -49.5t-49.5 -20.5zM437 578q-29 0 -50 20.5t-21 49.5t21 50t50 21t49 -21t20 -50t-20 -49.5t-49 -20.5z" />
    <glyph glyph-name="ugrave" unicode="&#xf9;" horiz-adv-x="578" 
d="M159 -12q-55 0 -86 20t-43.5 53.5t-12.5 72.5q0 22 3 43.5t7 42.5l59 276h155l-55 -261q-2 -10 -4.5 -26.5t-2.5 -33.5q0 -26 10.5 -47.5t41.5 -21.5q39 0 72 30t47 98l56 262h155l-105 -496h-135l-5 64q-21 -34 -61 -55t-96 -21zM277 574l-13 11t-29 25.5t-25 24.5
q-12 17 -12 35q0 26 21 44q14 13 35 13q27 0 43 -21q9 -12 24 -33.5t29.5 -44.5t24.5 -38.5l10 -15.5h-108z" />
    <glyph glyph-name="uacute" unicode="&#xfa;" horiz-adv-x="578" 
d="M159 -12q-55 0 -86 20t-43.5 53.5t-12.5 72.5q0 22 3 43.5t7 42.5l59 276h155l-55 -261q-2 -10 -4.5 -26.5t-2.5 -33.5q0 -26 10.5 -47.5t41.5 -21.5q39 0 72 30t47 98l56 262h155l-105 -496h-135l-5 64q-21 -34 -61 -55t-96 -21zM265 574l14.5 14t35.5 35l42 42
l35.5 35.5t15.5 14.5q15 12 34 12q28 0 44 -21q13 -14 13 -35q0 -26 -21 -43q-2 -2 -16 -10.5t-31 -18.5t-30 -17.5l-13 -7.5h-123z" />
    <glyph glyph-name="ucircumflex" unicode="&#xfb;" horiz-adv-x="578" 
d="M159 -12q-55 0 -86 20t-43.5 53.5t-12.5 72.5q0 22 3 43.5t7 42.5l59 276h155l-55 -261q-2 -10 -4.5 -26.5t-2.5 -33.5q0 -26 10.5 -47.5t41.5 -21.5q39 0 72 30t47 98l56 262h155l-105 -496h-135l-5 64q-21 -34 -61 -55t-96 -21zM136 574l189 137q20 15 44 15
q33 0 55 -25l118 -127h-116l-59 61l-84 -61h-147z" />
    <glyph glyph-name="udieresis" unicode="&#xfc;" horiz-adv-x="578" 
d="M159 -12q-55 0 -86 20t-43.5 53.5t-12.5 72.5q0 22 3 43.5t7 42.5l59 276h155l-55 -261q-2 -10 -4.5 -26.5t-2.5 -33.5q0 -26 10.5 -47.5t41.5 -21.5q39 0 72 30t47 98l56 262h155l-105 -496h-135l-5 64q-21 -34 -61 -55t-96 -21zM248 578q-29 0 -50 20.5t-21 49.5t21 50
t50 21t49.5 -21t20.5 -50t-20.5 -49.5t-49.5 -20.5zM442 578q-29 0 -50 20.5t-21 49.5t21 50t50 21t49 -21t20 -50t-20 -49.5t-49 -20.5z" />
    <glyph glyph-name="yacute" unicode="&#xfd;" horiz-adv-x="527" 
d="M-44 -161l23 110h31q42 0 62.5 4.5t30 16t18.5 30.5l-86 496h155l30 -316l166 316h176l-296 -496q-33 -56 -57 -88.5t-49 -48t-61 -20t-94 -4.5h-49zM245 574l14.5 14t35.5 35l42 42l35.5 35.5t15.5 14.5q15 12 34 12q28 0 44 -21q13 -14 13 -35q0 -26 -21 -43
q-2 -2 -16 -10.5t-31 -18.5t-30 -17.5l-13 -7.5h-123z" />
    <glyph glyph-name="ydieresis" unicode="&#xff;" horiz-adv-x="527" 
d="M-44 -161l23 110h31q42 0 62.5 4.5t30 16t18.5 30.5l-86 496h155l30 -316l166 316h176l-296 -496q-33 -56 -57 -88.5t-49 -48t-61 -20t-94 -4.5h-49zM228 578q-29 0 -50 20.5t-21 49.5t21 50t50 21t49.5 -21t20.5 -50t-20.5 -49.5t-49.5 -20.5zM422 578q-29 0 -50 20.5
t-21 49.5t21 50t50 21t49 -21t20 -50t-20 -49.5t-49 -20.5z" />
    <glyph glyph-name="Scaron" unicode="&#x160;" horiz-adv-x="642" 
d="M306 -12q-109 0 -187 45t-109 124l155 52q8 -33 31 -54t54.5 -31t62.5 -10q44 0 77.5 17t33.5 48q0 25 -19.5 42t-52 29t-71.5 24t-77.5 27t-71 37.5t-52 55.5t-19.5 81q0 54 23.5 92.5t63 63.5t89.5 37t104 12q50 0 100 -13.5t93.5 -45.5t71.5 -86l-155 -52
q-13 35 -49 51.5t-73 16.5q-51 0 -78 -16.5t-27 -42.5q0 -27 19.5 -43.5t52 -28.5t71.5 -22.5t78 -24t71.5 -34.5t52 -53t19.5 -80q0 -72 -40 -120.5t-104.5 -73t-137.5 -24.5zM381 725q-32 0 -54 25l-114 127h115l56 -61l84 61h147l-190 -137q-19 -15 -44 -15z" />
    <glyph glyph-name="scaron" unicode="&#x161;" horiz-adv-x="515" 
d="M229 -13q-38 0 -84.5 9t-88 37t-66.5 83l130 44q8 -34 39 -49t65 -15q32 0 57 12t25 31q0 18 -20 29t-51.5 20t-66.5 20t-66.5 28.5t-51.5 46.5t-20 74q0 44 28 78.5t76.5 54.5t108.5 20q72 0 132.5 -24t95.5 -86l-132 -45q-10 26 -36.5 35t-61.5 9t-51 -12t-16 -25
q0 -19 20 -31t52 -20.5t68 -18.5t68 -26t52 -42.5t20 -67.5q0 -77 -60.5 -123t-164.5 -46zM289 568q-32 0 -54 25l-114 127h115l56 -61l84 61h147l-190 -137q-19 -15 -44 -15z" />
    <glyph glyph-name="Ydieresis" unicode="&#x178;" horiz-adv-x="700" 
d="M191 0l51 241l-160 427h171l86 -277l219 277h204l-358 -427l-50 -241h-163zM334 726q-29 0 -50 20.5t-21 49.5t21 50t50 21t49.5 -21t20.5 -50t-20.5 -49.5t-49.5 -20.5zM528 726q-29 0 -50 20.5t-21 49.5t21 50t50 21t49 -21t20 -50t-20 -49.5t-49 -20.5z" />
    <glyph glyph-name="Zcaron" unicode="&#x17d;" horiz-adv-x="632" 
d="M-38 0l26 121l423 408h-311l30 139h538l-26 -121l-421 -408h339l-30 -139h-568zM418 725q-32 0 -54 25l-114 127h115l56 -61l84 61h147l-190 -137q-19 -15 -44 -15z" />
    <glyph glyph-name="zcaron" unicode="&#x17e;" horiz-adv-x="528" 
d="M-40 0l26 121l310 254h-231l26 121h448l-26 -121l-310 -254h259l-25 -121h-477zM332 568q-32 0 -54 25l-114 127h115l56 -61l84 61h147l-190 -137q-19 -15 -44 -15z" />
    <glyph glyph-name="Eth" unicode="&#xd0;" horiz-adv-x="738" 
d="M24 0l58 275h-76l30 137h76l54 256h194q176 0 261 -74t85 -201q0 -130 -59 -217.5t-162.5 -131.5t-237.5 -44h-223zM214 133h63q128 0 194.5 72.5t66.5 196.5q0 68 -38 101.5t-142 33.5h-58l-27 -125h116l-30 -137h-115z" />
    <glyph glyph-name="zero.tf" horiz-adv-x="640" 
d="M285 -12q-126 0 -189.5 76t-63.5 207q0 31 3 64q17 161 99.5 253t222.5 92q126 0 189.5 -74.5t63.5 -207.5q0 -30 -3 -63q-11 -106 -51.5 -184t-108.5 -120.5t-162 -42.5zM429 227q8 23 13.5 50t8.5 58q2 14 3 29.5t1 31.5q0 40 -8.5 79t-32.5 65.5t-69 26.5
q-37 0 -69 -23zM297 101q40 0 73 27l-155 322q-8 -24 -14.5 -52.5t-9.5 -62.5q-1 -16 -2.5 -31.5t-1.5 -30.5q0 -74 25.5 -123t84.5 -49z" />
    <glyph glyph-name="one.tf" horiz-adv-x="640" 
d="M25 0l26 124h156l67 323h-154l27 123q54 0 91 7.5t65.5 28.5t53.5 61h118l-115 -543h141l-27 -124h-449z" />
    <glyph glyph-name="two.tf" horiz-adv-x="640" 
d="M-6 0l26 125q127 65 223.5 128t151 123t54.5 114q0 38 -25.5 58t-60.5 20q-33 0 -67.5 -19t-58.5 -60l-127 50q27 48 70.5 79t95.5 46.5t103 15.5q60 0 112 -20t84 -59.5t32 -98.5q0 -55 -29.5 -107t-81 -99.5t-119 -90t-144.5 -80.5h300l-26 -125h-513z" />
    <glyph glyph-name="three.tf" horiz-adv-x="640" 
d="M286 -12q-56 0 -107 13.5t-91 46.5t-63 92l149 50q8 -49 41 -69t72 -20q46 0 79.5 24t33.5 65q0 33 -16 53t-42.5 30.5t-57.5 14t-60 3.5l22 106q84 0 138 21t54 70q0 40 -27.5 59.5t-65.5 19.5q-40 0 -74.5 -17.5t-47.5 -64.5l-127 50q44 83 113 114t154 31
q64 0 117.5 -19.5t85.5 -56.5t32 -91q0 -48 -16 -80t-41.5 -52t-56.5 -32q41 -23 59.5 -62.5t14.5 -86.5q-6 -70 -44.5 -117.5t-98.5 -71t-129 -23.5z" />
    <glyph glyph-name="four.tf" horiz-adv-x="640" 
d="M297 0l30 141h-340l23 111l414 416h171l-84 -393h92l-28 -134h-92l-30 -141h-156zM196 275h159l42 194z" />
    <glyph glyph-name="five.tf" horiz-adv-x="640" 
d="M283 -12q-56 0 -108.5 17.5t-90.5 52t-52 84.5l139 47q8 -44 41.5 -66.5t71.5 -22.5q53 0 86 34t33 89q0 39 -16 64.5t-41.5 37.5t-53.5 12q-33 0 -63 -15.5t-46 -45.5l-127 51l115 341h430l-26 -124h-301l-42 -125q25 14 55 21.5t61 7.5q52 0 100.5 -21.5t79.5 -67
t31 -117.5q0 -80 -37 -137t-99.5 -87t-139.5 -30z" />
    <glyph glyph-name="six.tf" horiz-adv-x="640" 
d="M293 -12q-86 0 -140.5 34.5t-80 95.5t-25.5 140q0 86 22 162t63.5 134.5t102.5 92t139 33.5q74 0 123 -27t74 -70l-138 -48q-11 17 -30 26t-47 9q-52 0 -87 -44t-45 -117q26 20 55 31.5t74 11.5q58 0 106.5 -25t77.5 -72t29 -112q0 -72 -35.5 -130t-97.5 -91.5
t-140 -33.5zM297 101q48 0 80.5 36t33.5 90q0 57 -27 84.5t-72 27.5q-58 0 -87 -37t-29 -93q0 -47 27.5 -77.5t73.5 -30.5z" />
    <glyph glyph-name="seven.tf" horiz-adv-x="640" 
d="M63 0l387 543h-347l27 125h513l-26 -125l-373 -543h-181z" />
    <glyph glyph-name="eight.tf" horiz-adv-x="640" 
d="M281 -12q-81 0 -139.5 25t-90.5 70t-32 103q0 68 35.5 113t99.5 79q-12 22 -19 46.5t-7 52.5q0 51 26 97.5t74 76t113 29.5q52 0 91 -24.5t61 -62.5t22 -81q0 -34 -15 -75t-38 -64q44 -23 72.5 -60t28.5 -102q0 -64 -35.5 -114.5t-99 -79.5t-147.5 -29zM314 417
q29 0 52 23t23 54q0 26 -17.5 43.5t-43.5 17.5q-29 0 -52 -22t-23 -54q0 -26 17.5 -44t43.5 -18zM287 114q54 0 88 28.5t34 72.5q0 38 -31.5 58.5t-79.5 20.5q-55 0 -89.5 -25t-34.5 -71q0 -37 31.5 -60.5t81.5 -23.5z" />
    <glyph glyph-name="nine.tf" horiz-adv-x="640" 
d="M141 0l165 222h-17q-60 2 -103 30t-66 72.5t-23 95.5q0 53 21.5 100.5t59 83.5t86 56.5t103.5 20.5q64 0 114.5 -27.5t80 -75t29.5 -106.5q0 -35 -12.5 -73.5t-41.5 -79.5q-18 -26 -43.5 -62.5t-53.5 -76.5t-53.5 -77t-44.5 -64.5t-27 -38.5h-174zM332 336q37 0 64 17.5
t41.5 44t14.5 54.5q0 42 -24 68t-66 26q-37 0 -65 -17t-44 -45t-16 -62q0 -42 28.5 -64t66.5 -22z" />
    <glyph glyph-name="Abreve" unicode="&#x102;" horiz-adv-x="698" 
d="M-65 0l394 668h183l111 -668h-165l-16 119h-255l-66 -119h-186zM255 247h172l-32 254zM458 739q-59 0 -98 31t-44 80h93q4 -16 19 -26.5t34 -10.5q21 0 37 10.5t22 26.5h94q-14 -46 -54.5 -78.5t-102.5 -32.5z" />
    <glyph glyph-name="abreve" unicode="&#x103;" horiz-adv-x="545" 
d="M130 -12q-38 0 -72 15.5t-55 45t-21 69.5q0 56 32 91.5t85 56.5t115.5 32t123.5 17q4 15 5 24t1 15q0 29 -19 41t-53 12q-32 0 -60 -14.5t-42 -44.5l-117 46q38 59 97 87.5t143 28.5q58 0 103.5 -17.5t71.5 -52.5t26 -87q0 -20 -5.5 -50t-12.5 -59.5t-11 -50.5
q-7 -32 -12.5 -69t-8.5 -69.5t-3 -54.5h-144l-5 59q-34 -41 -71.5 -56t-90.5 -15zM208 91q41 0 70.5 26.5t46.5 95.5l3 12q-84 -7 -134.5 -26.5t-50.5 -60.5q0 -22 19 -34.5t46 -12.5zM331 577q-59 0 -98 31t-44 80h93q4 -16 19 -26.5t34 -10.5q21 0 37 10.5t22 26.5h94
q-14 -46 -54.5 -78.5t-102.5 -32.5z" />
    <glyph glyph-name="Aogonek" unicode="&#x104;" horiz-adv-x="698" 
d="M-65 0l394 668h183l111 -668q-21 -2 -47 -13t-44.5 -27t-18.5 -35q0 -13 12.5 -18t27.5 -5t30 4t21 5l-16 -75q-12 -4 -37 -7t-44 -3q-47 0 -74.5 11.5t-38.5 29t-11 34.5q0 37 31 63t68 36h-24l-16 119h-255l-66 -119h-186zM255 247h172l-32 254z" />
    <glyph glyph-name="aogonek" unicode="&#x105;" horiz-adv-x="545" 
d="M130 -12q-38 0 -72 15.5t-55 45t-21 69.5q0 56 32 91.5t85 56.5t115.5 32t123.5 17q4 15 5 24t1 15q0 29 -19 41t-53 12q-32 0 -60 -14.5t-42 -44.5l-117 46q38 59 97 87.5t143 28.5q58 0 103.5 -17.5t71.5 -52.5t26 -87q0 -20 -5.5 -50t-12.5 -59.5t-11 -50.5
q-7 -32 -12.5 -69t-8.5 -69.5t-3 -54.5h-144l-5 59q-34 -41 -71.5 -56t-90.5 -15zM208 91q41 0 70.5 26.5t46.5 95.5l3 12q-84 -7 -134.5 -26.5t-50.5 -60.5q0 -22 19 -34.5t46 -12.5zM330 -173q-49 0 -76 12t-38 29.5t-11 35.5q0 30 26.5 58t64.5 38h144q-41 -19 -74 -37
t-33 -38q0 -14 14 -18t29 -4q14 0 29 3.5t22 5.5l-16 -76q-13 -3 -37.5 -6t-43.5 -3z" />
    <glyph glyph-name="Emacron" unicode="&#x112;" horiz-adv-x="582" 
d="M-23 0l142 668h518l-30 -139h-356l-25 -116h217l-29 -139h-217l-29 -135h356l-29 -139h-518zM251 747l21 98h299l-21 -98h-299z" />
    <glyph glyph-name="emacron" unicode="&#x113;" horiz-adv-x="567" 
d="M229 -12q-105 0 -165.5 54.5t-60.5 153.5q0 66 22.5 123t63.5 100t96.5 67t121.5 24q107 0 165 -57.5t58 -154.5q0 -21 -2.5 -43t-8.5 -46h-365q-1 -6 -1.5 -11t-0.5 -10q0 -44 31 -63t71 -19q30 0 58.5 9.5t45.5 26.5l114 -44q-43 -53 -105 -81.5t-138 -28.5zM168 299
h227q1 4 1 7v7q0 44 -28 65t-66 21q-40 0 -80 -25t-54 -75zM187 570l21 98h299l-21 -98h-299z" />
    <glyph glyph-name="Edotaccent" unicode="&#x116;" horiz-adv-x="582" 
d="M-23 0l142 668h518l-30 -139h-356l-25 -116h217l-29 -139h-217l-29 -135h356l-29 -139h-518zM412 726q-29 0 -50 20.5t-21 49.5t21 50t50 21t49.5 -21t20.5 -50t-20.5 -49.5t-49.5 -20.5z" />
    <glyph glyph-name="edotaccent" unicode="&#x117;" horiz-adv-x="567" 
d="M229 -12q-105 0 -165.5 54.5t-60.5 153.5q0 66 22.5 123t63.5 100t96.5 67t121.5 24q107 0 165 -57.5t58 -154.5q0 -21 -2.5 -43t-8.5 -46h-365q-1 -6 -1.5 -11t-0.5 -10q0 -44 31 -63t71 -19q30 0 58.5 9.5t45.5 26.5l114 -44q-43 -53 -105 -81.5t-138 -28.5zM168 299
h227q1 4 1 7v7q0 44 -28 65t-66 21q-40 0 -80 -25t-54 -75zM351 578q-29 0 -50 20.5t-21 49.5t21 50t50 21t49.5 -21t20.5 -50t-20.5 -49.5t-49.5 -20.5z" />
    <glyph glyph-name="Eogonek" unicode="&#x118;" horiz-adv-x="582" 
d="M-23 0l142 668h518l-30 -139h-356l-25 -116h217l-29 -139h-217l-29 -135h356l-29 -139h-518zM347 -186q-47 0 -74.5 11.5t-38.5 29t-11 34.5q0 37 31 63t68 36h141q-20 -2 -44 -12t-42.5 -24.5t-22.5 -31.5q-4 -18 9.5 -24t29.5 -6q15 0 30 4t21 5l-16 -75q-12 -4 -37 -7
t-44 -3z" />
    <glyph glyph-name="eogonek" unicode="&#x119;" horiz-adv-x="568" 
d="M219 -173q-54 0 -82 14t-36.5 35t-5.5 40q3 22 24.5 44t49.5 33q-78 14 -122 66.5t-44 136.5q0 66 22.5 123t63.5 100t96.5 67t121.5 24q107 0 165 -57.5t58 -154.5q0 -21 -2.5 -43t-8.5 -46h-365q-1 -6 -1.5 -11t-0.5 -10q0 -44 31 -63t71 -19q30 0 58.5 9.5t45.5 26.5
l114 -44q-56 -70 -144 -96h1q-40 -13 -70.5 -33t-35.5 -38q-4 -18 11 -23t31 -5q14 0 29 3.5t22 5.5l-16 -76q-13 -3 -37.5 -6t-43.5 -3zM168 299h227q1 4 1 7v7q0 44 -28 65t-66 21q-40 0 -80 -25t-54 -75z" />
    <glyph glyph-name="Ecaron" unicode="&#x11a;" horiz-adv-x="582" 
d="M-23 0l142 668h518l-30 -139h-356l-25 -116h217l-29 -139h-217l-29 -135h356l-29 -139h-518zM395 725q-32 0 -54 25l-114 127h115l56 -61l84 61h147l-190 -137q-19 -15 -44 -15z" />
    <glyph glyph-name="ecaron" unicode="&#x11b;" horiz-adv-x="567" 
d="M229 -12q-105 0 -165.5 54.5t-60.5 153.5q0 66 22.5 123t63.5 100t96.5 67t121.5 24q107 0 165 -57.5t58 -154.5q0 -21 -2.5 -43t-8.5 -46h-365q-1 -6 -1.5 -11t-0.5 -10q0 -44 31 -63t71 -19q30 0 58.5 9.5t45.5 26.5l114 -44q-43 -53 -105 -81.5t-138 -28.5zM168 299
h227q1 4 1 7v7q0 44 -28 65t-66 21q-40 0 -80 -25t-54 -75zM336 568q-32 0 -54 25l-114 127h115l56 -61l84 61h147l-190 -137q-19 -15 -44 -15z" />
    <glyph glyph-name="Ohungarumlaut" unicode="&#x150;" horiz-adv-x="763" 
d="M335 -12q-96 0 -163.5 35.5t-103.5 99t-36 146.5q0 86 29 160.5t82 131t125 88t158 31.5q91 0 159.5 -33t107.5 -97t39 -157q0 -87 -29.5 -160.5t-83 -128.5t-126 -85.5t-158.5 -30.5zM349 118q65 0 113 36.5t75 96.5t27 128q0 59 -21.5 96.5t-55.5 56t-73 18.5
q-49 0 -88.5 -22.5t-67.5 -60.5t-42.5 -85t-14.5 -96q0 -46 16.5 -84t49.5 -61t82 -23zM301 744l14.5 14t35.5 35l42 42l35.5 35.5t15.5 14.5q14 13 35 13q27 0 43 -21q13 -16 13 -37q0 -27 -21 -42q-2 -1 -16 -9.5t-31 -19t-30 -18l-13 -7.5h-123zM509 744l14 14l35 35
l42 42l35.5 35.5t15.5 14.5q14 13 35 13q27 0 43 -21q13 -16 13 -37q0 -27 -21 -42q-2 -1 -16 -9.5t-31 -19t-30 -18l-13 -7.5h-122z" />
    <glyph glyph-name="ohungarumlaut" unicode="&#x151;" horiz-adv-x="576" 
d="M239 -13q-70 0 -123 26.5t-82 75.5t-29 115q0 88 37 157t104 109t156 40q66 0 119 -24t84 -72t31 -119q0 -88 -36.5 -158t-103 -110t-157.5 -40zM245 105q46 0 76 26.5t45 69t15 91.5q0 55 -24 77.5t-65 22.5q-46 0 -75.5 -27.5t-43.5 -70t-14 -88.5q0 -25 7.5 -48.5
t26 -38t52.5 -14.5zM162 572l14.5 14t35.5 35l42 42l35.5 35.5t15.5 14.5q14 13 35 13q27 0 43 -21q13 -16 13 -37q0 -27 -21 -42q-2 -1 -16 -9.5t-31 -19t-30 -18l-13 -7.5h-123zM370 572l14 14l35 35l42 42l35.5 35.5t15.5 14.5q14 13 35 13q27 0 43 -21q13 -16 13 -37
q0 -27 -21 -42q-2 -1 -16 -9.5t-31 -19t-30 -18l-13 -7.5h-122z" />
    <glyph glyph-name="Imacron" unicode="&#x12a;" horiz-adv-x="459" 
d="M-13 0l26 124h92l90 420h-92l26 124h345l-27 -124h-92l-88 -420h91l-27 -124h-344zM168 747l21 98h299l-21 -98h-299z" />
    <glyph glyph-name="imacron" unicode="&#x12b;" horiz-adv-x="368" 
d="M48 0l81 380h-103l25 116h258l-105 -496h-156zM68 570l21 98h299l-21 -98h-299z" />
    <glyph glyph-name="Iogonek" unicode="&#x12e;" horiz-adv-x="459" 
d="M-13 0l26 124h92l90 420h-92l26 124h345l-27 -124h-92l-88 -420h91l-27 -124h-344zM126 -174q-47 0 -74.5 11.5t-38.5 29t-11 34.5q0 37 31 63t68 36h141q-20 -2 -44 -12t-42.5 -24.5t-22.5 -31.5q-4 -18 9.5 -24t29.5 -6q15 0 30 4t21 5l-16 -75q-12 -4 -37 -7t-44 -3z
" />
    <glyph glyph-name="iogonek" unicode="&#x12f;" horiz-adv-x="326" 
d="M48 0l81 380h-103l25 116h258l-105 -496h-156zM232 578q-29 0 -50 20.5t-21 49.5t21 50t50 21t49.5 -21t20.5 -50t-20.5 -49.5t-49.5 -20.5zM95 -173q-49 0 -76 12t-38 29.5t-11 35.5q0 30 26.5 58t64.5 38h144q-41 -19 -74 -37t-33 -38q0 -14 14 -18t29 -4q14 0 29 3.5
t22 5.5l-16 -76q-13 -3 -37.5 -6t-43.5 -3z" />
    <glyph glyph-name="Cacute" unicode="&#x106;" horiz-adv-x="673" 
d="M322 -12q-82 0 -148 30.5t-104 92t-38 154.5q0 89 27 164.5t77 131.5t121.5 87.5t159.5 31.5q52 0 103.5 -14.5t91.5 -48.5t59 -92l-146 -49q-18 42 -50.5 58t-73.5 16q-47 0 -84 -22.5t-63 -60.5t-40 -85.5t-14 -98.5q0 -81 38.5 -121.5t99.5 -41.5q38 0 74 16t68 58
l136 -53q-46 -71 -119 -112t-175 -41zM355 731q36 35 70.5 69.5t63.5 62.5q14 14 24.5 17.5t19.5 3.5q26 0 41 -17.5t15 -38.5q0 -26 -20 -43q-5 -4 -19.5 -13t-31 -18.5t-28.5 -16l-12 -6.5h-123z" />
    <glyph glyph-name="cacute" unicode="&#x107;" horiz-adv-x="531" 
d="M223 -12q-105 0 -163 57.5t-58 148.5q0 90 40.5 161.5t111.5 113t162 41.5q65 0 116.5 -27.5t78.5 -100.5l-133 -46q-7 32 -28 44t-51 12q-48 0 -79.5 -29.5t-47.5 -74.5t-16 -90q0 -50 24 -71.5t56 -21.5t57 10t48 39l123 -47q-48 -67 -112.5 -93t-128.5 -26zM261 574
l14.5 14t35.5 35l42 42l35.5 35.5t15.5 14.5q15 12 34 12q28 0 44 -21q13 -14 13 -35q0 -26 -21 -43q-2 -2 -16 -10.5t-31 -18.5t-30 -17.5l-13 -7.5h-123z" />
    <glyph glyph-name="Cdotaccent" unicode="&#x10a;" horiz-adv-x="673" 
d="M322 -12q-82 0 -148 30.5t-104 92t-38 154.5q0 89 27 164.5t77 131.5t121.5 87.5t159.5 31.5q52 0 103.5 -14.5t91.5 -48.5t59 -92l-146 -49q-18 42 -50.5 58t-73.5 16q-47 0 -84 -22.5t-63 -60.5t-40 -85.5t-14 -98.5q0 -81 38.5 -121.5t99.5 -41.5q38 0 74 16t68 58
l136 -53q-46 -71 -119 -112t-175 -41zM456 726q-29 0 -50 20.5t-21 49.5t21 50t50 21t49.5 -21t20.5 -50t-20.5 -49.5t-49.5 -20.5z" />
    <glyph glyph-name="cdotaccent" unicode="&#x10b;" horiz-adv-x="531" 
d="M223 -12q-105 0 -163 57.5t-58 148.5q0 90 40.5 161.5t111.5 113t162 41.5q65 0 116.5 -27.5t78.5 -100.5l-133 -46q-7 32 -28 44t-51 12q-48 0 -79.5 -29.5t-47.5 -74.5t-16 -90q0 -50 24 -71.5t56 -21.5t57 10t48 39l123 -47q-48 -67 -112.5 -93t-128.5 -26zM348 578
q-29 0 -50 20.5t-21 49.5t21 50t50 21t49.5 -21t20.5 -50t-20.5 -49.5t-49.5 -20.5z" />
    <glyph glyph-name="uni0326" unicode="&#x326;" 
d="M-38 -246l-43 45q50 0 80.5 16.5t30.5 50.5q0 20 -11.5 35t-33.5 19l101 40q32 -13 48 -35t16 -48q0 -41 -26.5 -69.5t-69.5 -42t-92 -11.5z" />
    <glyph glyph-name="Sacute" unicode="&#x15a;" horiz-adv-x="642" 
d="M306 -12q-109 0 -187 45t-109 124l155 52q8 -33 31 -54t54.5 -31t62.5 -10q44 0 77.5 17t33.5 48q0 25 -19.5 42t-52 29t-71.5 24t-77.5 27t-71 37.5t-52 55.5t-19.5 81q0 54 23.5 92.5t63 63.5t89.5 37t104 12q50 0 100 -13.5t93.5 -45.5t71.5 -86l-155 -52
q-13 35 -49 51.5t-73 16.5q-51 0 -78 -16.5t-27 -42.5q0 -27 19.5 -43.5t52 -28.5t71.5 -22.5t78 -24t71.5 -34.5t52 -53t19.5 -80q0 -72 -40 -120.5t-104.5 -73t-137.5 -24.5zM297 731q36 35 70.5 69.5t63.5 62.5q14 14 24.5 17.5t19.5 3.5q26 0 41 -17.5t15 -38.5
q0 -26 -20 -43q-5 -4 -19.5 -13t-31 -18.5t-28.5 -16l-12 -6.5h-123z" />
    <glyph glyph-name="sacute" unicode="&#x15b;" horiz-adv-x="515" 
d="M229 -13q-38 0 -84.5 9t-88 37t-66.5 83l130 44q8 -34 39 -49t65 -15q32 0 57 12t25 31q0 18 -20 29t-51.5 20t-66.5 20t-66.5 28.5t-51.5 46.5t-20 74q0 44 28 78.5t76.5 54.5t108.5 20q72 0 132.5 -24t95.5 -86l-132 -45q-10 26 -36.5 35t-61.5 9t-51 -12t-16 -25
q0 -19 20 -31t52 -20.5t68 -18.5t68 -26t52 -42.5t20 -67.5q0 -77 -60.5 -123t-164.5 -46zM217 574l14.5 14t35.5 35l42 42l35.5 35.5t15.5 14.5q15 12 34 12q28 0 44 -21q13 -14 13 -35q0 -26 -21 -43q-2 -2 -16 -10.5t-31 -18.5t-30 -17.5l-13 -7.5h-123z" />
    <glyph glyph-name="Umacron" unicode="&#x16a;" horiz-adv-x="679" 
d="M266 -12q-90 0 -142.5 26t-75 71t-22.5 102q0 25 3.5 51t9.5 54l81 376h161l-83 -389q-4 -21 -7 -39.5t-3 -35.5q0 -40 22.5 -63.5t83.5 -23.5q55 0 86.5 20t49 56.5t27.5 85.5l83 389h161l-80 -376q-20 -94 -50.5 -153.5t-73 -92.5t-100 -45.5t-131.5 -12.5zM281 747
l21 98h299l-21 -98h-299z" />
    <glyph glyph-name="umacron" unicode="&#x16b;" horiz-adv-x="578" 
d="M159 -12q-55 0 -86 20t-43.5 53.5t-12.5 72.5q0 22 3 43.5t7 42.5l59 276h155l-55 -261q-2 -10 -4.5 -26.5t-2.5 -33.5q0 -26 10.5 -47.5t41.5 -21.5q39 0 72 30t47 98l56 262h155l-105 -496h-135l-5 64q-21 -34 -61 -55t-96 -21zM188 570l21 98h299l-21 -98h-299z" />
    <glyph glyph-name="Uring" unicode="&#x16e;" horiz-adv-x="679" 
d="M266 -12q-90 0 -142.5 26t-75 71t-22.5 102q0 25 3.5 51t9.5 54l81 376h161l-83 -389q-4 -21 -7 -39.5t-3 -35.5q0 -40 22.5 -63.5t83.5 -23.5q55 0 86.5 20t49 56.5t27.5 85.5l83 389h161l-80 -376q-20 -94 -50.5 -153.5t-73 -92.5t-100 -45.5t-131.5 -12.5zM413 676
q-36 0 -66 18t-48 48.5t-18 66.5q0 37 18 66.5t48 47.5t66 18q37 0 67 -18t48 -47.5t18 -66.5q0 -36 -18 -66.5t-48 -48.5t-67 -18zM413 762q20 0 33.5 14t13.5 33q0 20 -13.5 33.5t-33.5 13.5q-19 0 -33 -13.5t-14 -33.5q0 -19 14 -33t33 -14z" />
    <glyph glyph-name="uring" unicode="&#x16f;" horiz-adv-x="578" 
d="M159 -12q-55 0 -86 20t-43.5 53.5t-12.5 72.5q0 22 3 43.5t7 42.5l59 276h155l-55 -261q-2 -10 -4.5 -26.5t-2.5 -33.5q0 -26 10.5 -47.5t41.5 -21.5q39 0 72 30t47 98l56 262h155l-105 -496h-135l-5 64q-21 -34 -61 -55t-96 -21zM339 535q-36 0 -66 18t-48 48.5
t-18 66.5q0 37 18 66.5t48 47.5t66 18q37 0 67 -18t48 -47.5t18 -66.5q0 -36 -18 -66.5t-48 -48.5t-67 -18zM339 621q20 0 33.5 14t13.5 33q0 20 -13.5 33.5t-33.5 13.5q-19 0 -33 -13.5t-14 -33.5q0 -19 14 -33t33 -14z" />
    <glyph glyph-name="Uhungarumlaut" unicode="&#x170;" horiz-adv-x="679" 
d="M266 -12q-90 0 -142.5 26t-75 71t-22.5 102q0 25 3.5 51t9.5 54l81 376h161l-83 -389q-4 -21 -7 -39.5t-3 -35.5q0 -40 22.5 -63.5t83.5 -23.5q55 0 86.5 20t49 56.5t27.5 85.5l83 389h161l-80 -376q-20 -94 -50.5 -153.5t-73 -92.5t-100 -45.5t-131.5 -12.5zM259 744
l14.5 14t35.5 35l42 42l35.5 35.5t15.5 14.5q14 13 35 13q27 0 43 -21q13 -16 13 -37q0 -27 -21 -42q-2 -1 -16 -9.5t-31 -19t-30 -18l-13 -7.5h-123zM467 744l14 14l35 35l42 42l35.5 35.5t15.5 14.5q14 13 35 13q27 0 43 -21q13 -16 13 -37q0 -27 -21 -42q-2 -1 -16 -9.5
t-31 -19t-30 -18l-13 -7.5h-122z" />
    <glyph glyph-name="uhungarumlaut" unicode="&#x171;" horiz-adv-x="578" 
d="M159 -12q-55 0 -86 20t-43.5 53.5t-12.5 72.5q0 22 3 43.5t7 42.5l59 276h155l-55 -261q-2 -10 -4.5 -26.5t-2.5 -33.5q0 -26 10.5 -47.5t41.5 -21.5q39 0 72 30t47 98l56 262h155l-105 -496h-135l-5 64q-21 -34 -61 -55t-96 -21zM167 572l14.5 14t35.5 35l42 42
l35.5 35.5t15.5 14.5q14 13 35 13q27 0 43 -21q13 -16 13 -37q0 -27 -21 -42q-2 -1 -16 -9.5t-31 -19t-30 -18l-13 -7.5h-123zM375 572l14 14l35 35l42 42l35.5 35.5t15.5 14.5q14 13 35 13q27 0 43 -21q13 -16 13 -37q0 -27 -21 -42q-2 -1 -16 -9.5t-31 -19t-30 -18
l-13 -7.5h-122z" />
    <glyph glyph-name="Uogonek" unicode="&#x172;" horiz-adv-x="679" 
d="M266 -12q-90 0 -142.5 26t-75 71t-22.5 102q0 25 3.5 51t9.5 54l81 376h161l-83 -389q-4 -21 -7 -39.5t-3 -35.5q0 -40 22.5 -63.5t83.5 -23.5q55 0 86.5 20t49 56.5t27.5 85.5l83 389h161l-80 -376q-20 -94 -50.5 -153.5t-73 -92.5t-100 -45.5t-131.5 -12.5zM260 -174
q-47 0 -74.5 11.5t-38.5 29t-11 34.5q0 37 31 63t68 36h141q-20 -2 -44 -12t-42.5 -24.5t-22.5 -31.5q-4 -18 9.5 -24t29.5 -6q15 0 30 4t21 5l-16 -75q-12 -4 -37 -7t-44 -3z" />
    <glyph glyph-name="uogonek" unicode="&#x173;" horiz-adv-x="584" 
d="M159 -12q-55 0 -86 20t-43.5 53.5t-12.5 72.5q0 22 3 43.5t7 42.5l59 276h155l-55 -261q-2 -10 -4.5 -26.5t-2.5 -33.5q0 -26 10.5 -47.5t41.5 -21.5q39 0 72 30t47 98l56 262h155l-105 -496q-41 -19 -74 -37t-33 -38q0 -14 14 -18t29 -4q14 0 29 3.5t22 5.5l-16 -76
q-13 -3 -37.5 -6t-43.5 -3q-49 0 -76 12.5t-37.5 31t-10.5 35.5q0 34 30 61t69 36l-5 61q-21 -34 -61 -55t-96 -21z" />
    <glyph glyph-name="Nacute" unicode="&#x143;" horiz-adv-x="715" 
d="M-23 0l142 668h199l160 -485l104 485h155l-142 -668h-199l-160 485l-103 -485h-156zM383 731q36 35 70.5 69.5t63.5 62.5q14 14 24.5 17.5t19.5 3.5q26 0 41 -17.5t15 -38.5q0 -26 -20 -43q-5 -4 -19.5 -13t-31 -18.5t-28.5 -16l-12 -6.5h-123z" />
    <glyph glyph-name="nacute" unicode="&#x144;" horiz-adv-x="581" 
d="M-20 0l105 496h136l5 -64q21 29 63 53.5t108 24.5q59 0 95.5 -33.5t36.5 -110.5q0 -19 -2.5 -40t-7.5 -45l-60 -281h-156l56 263q9 39 9 65q0 34 -14 49t-42 15q-93 0 -122 -138l-54 -254h-156zM287 574l14.5 14t35.5 35l42 42l35.5 35.5t15.5 14.5q15 12 34 12
q28 0 44 -21q13 -14 13 -35q0 -26 -21 -43q-2 -2 -16 -10.5t-31 -18.5t-30 -17.5l-13 -7.5h-123z" />
    <glyph glyph-name="Ncaron" unicode="&#x147;" horiz-adv-x="715" 
d="M-23 0l142 668h199l160 -485l104 485h155l-142 -668h-199l-160 485l-103 -485h-156zM467 725q-32 0 -54 25l-114 127h115l56 -61l84 61h147l-190 -137q-19 -15 -44 -15z" />
    <glyph glyph-name="ncaron" unicode="&#x148;" horiz-adv-x="581" 
d="M-20 0l105 496h136l5 -64q21 29 63 53.5t108 24.5q59 0 95.5 -33.5t36.5 -110.5q0 -19 -2.5 -40t-7.5 -45l-60 -281h-156l56 263q9 39 9 65q0 34 -14 49t-42 15q-93 0 -122 -138l-54 -254h-156zM359 568q-32 0 -54 25l-114 127h115l56 -61l84 61h147l-190 -137
q-19 -15 -44 -15z" />
    <glyph glyph-name="Zacute" unicode="&#x179;" horiz-adv-x="632" 
d="M-38 0l26 121l423 408h-311l30 139h538l-26 -121l-421 -408h339l-30 -139h-568zM334 731q36 35 70.5 69.5t63.5 62.5q14 14 24.5 17.5t19.5 3.5q26 0 41 -17.5t15 -38.5q0 -26 -20 -43q-5 -4 -19.5 -13t-31 -18.5t-28.5 -16l-12 -6.5h-123z" />
    <glyph glyph-name="zacute" unicode="&#x17a;" horiz-adv-x="528" 
d="M-40 0l26 121l310 254h-231l26 121h448l-26 -121l-310 -254h259l-25 -121h-477zM260 574l14.5 14t35.5 35l42 42l35.5 35.5t15.5 14.5q15 12 34 12q28 0 44 -21q13 -14 13 -35q0 -26 -21 -43q-2 -2 -16 -10.5t-31 -18.5t-30 -17.5l-13 -7.5h-123z" />
    <glyph glyph-name="Zdotaccent" unicode="&#x17b;" horiz-adv-x="632" 
d="M-38 0l26 121l423 408h-311l30 139h538l-26 -121l-421 -408h339l-30 -139h-568zM435 726q-29 0 -50 20.5t-21 49.5t21 50t50 21t49.5 -21t20.5 -50t-20.5 -49.5t-49.5 -20.5z" />
    <glyph glyph-name="zdotaccent" unicode="&#x17c;" horiz-adv-x="528" 
d="M-40 0l26 121l310 254h-231l26 121h448l-26 -121l-310 -254h259l-25 -121h-477zM347 578q-29 0 -50 20.5t-21 49.5t21 50t50 21t49.5 -21t20.5 -50t-20.5 -49.5t-49.5 -20.5z" />
    <glyph glyph-name="Hbar" unicode="&#x126;" horiz-adv-x="740" 
d="M3 0l105 496h-58l21 98h58l16 74h160l-15 -74h276l16 74h161l-16 -74h54l-21 -98h-54l-105 -496h-161l58 274h-275l-59 -274h-161zM252 413h276l18 83h-277z" />
    <glyph glyph-name="hbar" unicode="&#x127;" horiz-adv-x="644" 
d="M43 0l118 555h-96l17 78h95l14 65h151l-14 -65h123l-17 -78h-122l-26 -123q21 29 64.5 53.5t109.5 24.5q59 0 95.5 -33.5t36.5 -110.5q0 -19 -2.5 -40t-7.5 -45l-60 -281h-156l56 263q9 39 9 65q0 34 -14 49t-42 15q-95 0 -122 -138l-54 -254h-156z" />
    <glyph glyph-name="Gbreve" unicode="&#x11e;" horiz-adv-x="733" 
d="M282 -12q-67 0 -124 31t-92 92t-35 150t27.5 165.5t79 133.5t123.5 88.5t161 31.5q88 0 155.5 -34t99.5 -111l-148 -57q-10 26 -43.5 49t-85.5 23q-49 0 -86.5 -23.5t-63 -62.5t-38.5 -87.5t-13 -98.5q0 -80 39.5 -120.5t105.5 -40.5q34 0 68 12.5t59.5 37.5t33.5 64
l4 19h-150l27 128h312l-81 -378h-107l-6 74q-83 -86 -222 -86zM471 739q-59 0 -98 31t-44 80h93q4 -16 19 -26.5t34 -10.5q21 0 37 10.5t22 26.5h94q-14 -46 -54.5 -78.5t-102.5 -32.5z" />
    <glyph glyph-name="gbreve" unicode="&#x11f;" horiz-adv-x="594" 
d="M194 -207q-50 0 -95 15t-77 42.5t-44 64.5l134 44q7 -22 31 -34.5t53 -12.5q39 0 76 22.5t47 71.5l18 85q-31 -37 -70 -55.5t-80 -18.5q-47 0 -88.5 23.5t-67 67.5t-25.5 106q0 57 18.5 110t53 95.5t81.5 67t103 24.5q48 0 88 -21t59 -61l34 67h134q-25 -119 -50 -239
t-51 -239q-18 -80 -62.5 -129.5t-102.5 -72.5t-117 -23zM247 131q46 0 76 24.5t45.5 63.5t15.5 82q0 47 -25 70.5t-63 23.5q-43 0 -72.5 -22.5t-44.5 -59.5t-15 -79q0 -49 23.5 -76t59.5 -27zM350 577q-59 0 -98 31t-44 80h93q4 -16 19 -26.5t34 -10.5q21 0 37 10.5t22 26.5
h94q-14 -46 -54.5 -78.5t-102.5 -32.5z" />
    <glyph glyph-name="Gdotaccent" unicode="&#x120;" horiz-adv-x="733" 
d="M282 -12q-67 0 -124 31t-92 92t-35 150t27.5 165.5t79 133.5t123.5 88.5t161 31.5q88 0 155.5 -34t99.5 -111l-148 -57q-10 26 -43.5 49t-85.5 23q-49 0 -86.5 -23.5t-63 -62.5t-38.5 -87.5t-13 -98.5q0 -80 39.5 -120.5t105.5 -40.5q34 0 68 12.5t59.5 37.5t33.5 64
l4 19h-150l27 128h312l-81 -378h-107l-6 74q-83 -86 -222 -86zM468 726q-29 0 -50 20.5t-21 49.5t21 50t50 21t49.5 -21t20.5 -50t-20.5 -49.5t-49.5 -20.5z" />
    <glyph glyph-name="gdotaccent" unicode="&#x121;" horiz-adv-x="594" 
d="M194 -207q-50 0 -95 15t-77 42.5t-44 64.5l134 44q7 -22 31 -34.5t53 -12.5q39 0 76 22.5t47 71.5l18 85q-31 -37 -70 -55.5t-80 -18.5q-47 0 -88.5 23.5t-67 67.5t-25.5 106q0 57 18.5 110t53 95.5t81.5 67t103 24.5q48 0 88 -21t59 -61l34 67h134q-25 -119 -50 -239
t-51 -239q-18 -80 -62.5 -129.5t-102.5 -72.5t-117 -23zM247 131q46 0 76 24.5t45.5 63.5t15.5 82q0 47 -25 70.5t-63 23.5q-43 0 -72.5 -22.5t-44.5 -59.5t-15 -79q0 -49 23.5 -76t59.5 -27zM347 578q-29 0 -50 20.5t-21 49.5t21 50t50 21t49.5 -21t20.5 -50t-20.5 -49.5
t-49.5 -20.5z" />
    <glyph glyph-name="Tcaron" unicode="&#x164;" horiz-adv-x="617" 
d="M158 0l112 529h-213l30 139h586l-29 -139h-214l-111 -529h-161zM409 725q-32 0 -54 25l-114 127h115l56 -61l84 61h147l-190 -137q-19 -15 -44 -15z" />
    <glyph glyph-name="lcaron" unicode="&#x13e;" horiz-adv-x="345" 
d="M147 0q-66 0 -104.5 22t-38.5 77q0 9 1.5 19.5t3.5 21.5l112 528h156l-98 -464q-3 -13 -5 -24.5t-2 -20.5q0 -17 11.5 -26t43.5 -9h43l-26 -124h-97zM269 496q14 38 27 77t26 77q7 20 22.5 29t31.5 9q24 0 39 -16.5t15 -37.5q0 -13 -3.5 -21.5t-11.5 -19.5l-63 -97h-83z
" />
    <glyph glyph-name="Lcaron" unicode="&#x13d;" horiz-adv-x="543" 
d="M-23 0l142 668h160l-111 -529h320l-30 -139h-481zM355 503q14 38 27 77t26 77q7 20 22.5 29t31.5 9q24 0 39 -16.5t15 -37.5q0 -13 -3.5 -21.5t-11.5 -19.5l-63 -97h-83z" />
    <glyph glyph-name="tcaron" unicode="&#x165;" horiz-adv-x="396" 
d="M193 0q-65 0 -104 21.5t-39 76.5q0 18 7 52l49 230h-78l25 116h78l26 124h155l-26 -124h108l-24 -116h-109l-37 -175q-3 -13 -5 -24.5t-2 -20.5q0 -17 11.5 -26.5t43.5 -9.5h43l-26 -124h-96zM348 553q14 38 27 77t26 77q7 20 22.5 29t31.5 9q24 0 39 -16.5t15 -37.5
q0 -13 -3.5 -21.5t-11.5 -19.5l-63 -97h-83z" />
    <glyph glyph-name="uni0145" unicode="&#x145;" horiz-adv-x="715" 
d="M-23 0l142 668h199l160 -485l104 485h155l-142 -668h-199l-160 485l-103 -485h-156zM156 -246l-43 45q50 0 80.5 16.5t30.5 50.5q0 20 -11.5 35t-33.5 19l101 40q32 -13 48 -35t16 -48q0 -41 -26.5 -69.5t-69.5 -42t-92 -11.5z" />
    <glyph glyph-name="uni0146" unicode="&#x146;" horiz-adv-x="581" 
d="M-20 0l105 496h136l5 -64q21 29 63 53.5t108 24.5q59 0 95.5 -33.5t36.5 -110.5q0 -19 -2.5 -40t-7.5 -45l-60 -281h-156l56 263q9 39 9 65q0 34 -14 49t-42 15q-93 0 -122 -138l-54 -254h-156zM89 -246l-43 45q50 0 80.5 16.5t30.5 50.5q0 20 -11.5 35t-33.5 19l101 40
q32 -13 48 -35t16 -48q0 -41 -26.5 -69.5t-69.5 -42t-92 -11.5z" />
    <glyph glyph-name="Racute" unicode="&#x154;" horiz-adv-x="644" 
d="M-23 0l142 668h250q122 0 191.5 -40.5t69.5 -138.5q0 -102 -54.5 -153.5t-155.5 -66.5l137 -269h-166l-128 252h-71l-54 -252h-161zM220 384h103q39 0 70.5 6.5t50.5 26t19 56.5q0 38 -32.5 50t-84.5 12h-94zM338 731q36 35 70.5 69.5t63.5 62.5q14 14 24.5 17.5
t19.5 3.5q26 0 41 -17.5t15 -38.5q0 -26 -20 -43q-5 -4 -19.5 -13t-31 -18.5t-28.5 -16l-12 -6.5h-123z" />
    <glyph glyph-name="racute" unicode="&#x155;" horiz-adv-x="391" 
d="M-20 0l105 496h123l7 -87q26 46 61.5 73t100.5 28h26l-32 -152q-25 3 -46 3q-65 0 -96 -34t-44 -96l-49 -231h-156zM192 574l14.5 14t35.5 35l42 42l35.5 35.5t15.5 14.5q15 12 34 12q28 0 44 -21q13 -14 13 -35q0 -26 -21 -43q-2 -2 -16 -10.5t-31 -18.5t-30 -17.5
l-13 -7.5h-123z" />
    <glyph glyph-name="Rcaron" unicode="&#x158;" horiz-adv-x="644" 
d="M-23 0l142 668h250q122 0 191.5 -40.5t69.5 -138.5q0 -102 -54.5 -153.5t-155.5 -66.5l137 -269h-166l-128 252h-71l-54 -252h-161zM220 384h103q39 0 70.5 6.5t50.5 26t19 56.5q0 38 -32.5 50t-84.5 12h-94zM422 725q-32 0 -54 25l-114 127h115l56 -61l84 61h147
l-190 -137q-19 -15 -44 -15z" />
    <glyph glyph-name="rcaron" unicode="&#x159;" horiz-adv-x="391" 
d="M-20 0l105 496h123l7 -87q26 46 61.5 73t100.5 28h26l-32 -152q-25 3 -46 3q-65 0 -96 -34t-44 -96l-49 -231h-156zM264 568q-32 0 -54 25l-114 127h115l56 -61l84 61h147l-190 -137q-19 -15 -44 -15z" />
    <glyph glyph-name="Dcroat" unicode="&#x110;" horiz-adv-x="746" 
d="M32 0l58 275h-76l30 137h76l54 256h194q176 0 261 -74t85 -201q0 -130 -59 -217.5t-162.5 -131.5t-237.5 -44h-223zM222 133h63q128 0 194.5 72.5t66.5 196.5q0 68 -38 101.5t-142 33.5h-58l-27 -125h116l-30 -137h-115z" />
    <glyph glyph-name="dcroat" unicode="&#x111;" horiz-adv-x="638" 
d="M187 -13q-82 0 -133 55t-51 149q0 63 18.5 120.5t53 102.5t83 70.5t109.5 25.5q48 0 85.5 -24t53.5 -65l29 134h-148l17 78h147l14 65h155l-4 -17.5t-10 -47.5h67l-17 -78h-67q-10 -46 -21 -98t-21.5 -102.5t-19.5 -92.5t-14 -69q-7 -37 -15 -88t-9 -106h-149l-5 64
q-31 -40 -69 -58t-79 -18zM248 105q42 0 71.5 28.5t44.5 71t15 84.5q0 38 -14 60.5t-34.5 32.5t-40.5 10q-45 0 -74 -25.5t-43.5 -65.5t-14.5 -85q0 -46 21.5 -78.5t68.5 -32.5z" />
    <glyph glyph-name="Dcaron" unicode="&#x10e;" horiz-adv-x="690" 
d="M-23 0l142 668h194q188 0 279 -91t59 -265q-16 -89 -60.5 -149.5t-107.5 -96t-136 -51t-147 -15.5h-223zM167 133h63q81 0 135.5 28.5t85 79t37.5 114.5q12 102 -28.5 142t-148.5 40h-58zM415 725q-32 0 -54 25l-114 127h115l56 -61l84 61h147l-190 -137q-19 -15 -44 -15
z" />
    <glyph glyph-name="dcaron" unicode="&#x10f;" horiz-adv-x="652" 
d="M187 -12q-82 0 -133 54.5t-51 148.5q0 63 18 120.5t52.5 102t83 70.5t109.5 26q48 0 85.5 -24t53.5 -65l53 247h155l-6 -26.5t-15.5 -70t-20.5 -96.5t-22.5 -106.5t-21 -99.5t-15.5 -76q-7 -37 -15 -88t-9 -105h-149l-5 63q-31 -40 -69 -57.5t-78 -17.5zM251 105
q42 0 71.5 28.5t44.5 71t15 84.5q0 38 -14 60.5t-34.5 32.5t-40.5 10q-45 0 -74 -25.5t-43 -66t-14 -84.5q0 -46 21.5 -78.5t67.5 -32.5zM608 496q14 38 27 77t26 77q7 20 22.5 29t31.5 9q24 0 39 -16.5t15 -37.5q0 -13 -3.5 -21.5t-11.5 -19.5l-63 -97h-83z" />
    <glyph glyph-name="Ccaron" unicode="&#x10c;" horiz-adv-x="673" 
d="M322 -12q-82 0 -148 30.5t-104 92t-38 154.5q0 89 27 164.5t77 131.5t121.5 87.5t159.5 31.5q52 0 103.5 -14.5t91.5 -48.5t59 -92l-146 -49q-18 42 -50.5 58t-73.5 16q-47 0 -84 -22.5t-63 -60.5t-40 -85.5t-14 -98.5q0 -81 38.5 -121.5t99.5 -41.5q38 0 74 16t68 58
l136 -53q-46 -71 -119 -112t-175 -41zM439 725q-32 0 -54 25l-114 127h115l56 -61l84 61h147l-190 -137q-19 -15 -44 -15z" />
    <glyph glyph-name="ccaron" unicode="&#x10d;" horiz-adv-x="531" 
d="M223 -12q-105 0 -163 57.5t-58 148.5q0 90 40.5 161.5t111.5 113t162 41.5q65 0 116.5 -27.5t78.5 -100.5l-133 -46q-7 32 -28 44t-51 12q-48 0 -79.5 -29.5t-47.5 -74.5t-16 -90q0 -50 24 -71.5t56 -21.5t57 10t48 39l123 -47q-48 -67 -112.5 -93t-128.5 -26zM333 568
q-32 0 -54 25l-114 127h115l56 -61l84 61h147l-190 -137q-19 -15 -44 -15z" />
    <glyph glyph-name="Scedilla" unicode="&#x15e;" horiz-adv-x="642" 
d="M306 -12q-109 0 -187 45t-109 124l155 52q8 -33 31 -54t54.5 -31t62.5 -10q44 0 77.5 17t33.5 48q0 25 -19.5 42t-52 29t-71.5 24t-77.5 27t-71 37.5t-52 55.5t-19.5 81q0 54 23.5 92.5t63 63.5t89.5 37t104 12q50 0 100 -13.5t93.5 -45.5t71.5 -86l-155 -52
q-13 35 -49 51.5t-73 16.5q-51 0 -78 -16.5t-27 -42.5q0 -27 19.5 -43.5t52 -28.5t71.5 -22.5t78 -24t71.5 -34.5t52 -53t19.5 -80q0 -72 -40 -120.5t-104.5 -73t-137.5 -24.5zM239 -195q-31 0 -57 5.5t-39 11.5l26 50q29 -13 60 -13q21 0 36.5 8t15.5 24q0 11 -11 18t-28 7
q-13 0 -18 -2.5t-11 -2.5q-7 0 -13 4.5t-6 13.5q0 7 6 14l69 83l36 -25l-40 -48q15 3 28 3q35 0 57 -16.5t22 -42.5q0 -36 -20.5 -56t-51.5 -28t-61 -8z" />
    <glyph glyph-name="scedilla" unicode="&#x15f;" horiz-adv-x="515" 
d="M229 -13q-38 0 -84.5 9t-88 37t-66.5 83l130 44q8 -34 39 -49t65 -15q32 0 57 12t25 31q0 18 -20 29t-51.5 20t-66.5 20t-66.5 28.5t-51.5 46.5t-20 74q0 44 28 78.5t76.5 54.5t108.5 20q72 0 132.5 -24t95.5 -86l-132 -45q-10 26 -36.5 35t-61.5 9t-51 -12t-16 -25
q0 -19 20 -31t52 -20.5t68 -18.5t68 -26t52 -42.5t20 -67.5q0 -77 -60.5 -123t-164.5 -46zM166 -195q-31 0 -57 5.5t-39 11.5l26 50q29 -13 60 -13q21 0 36.5 8t15.5 24q0 11 -11 18t-28 7q-13 0 -18 -2.5t-11 -2.5q-7 0 -13 4.5t-6 13.5q0 7 6 14l69 83l36 -25l-40 -48
q15 3 28 3q35 0 57 -16.5t22 -42.5q0 -36 -20.5 -56t-51.5 -28t-61 -8z" />
    <glyph glyph-name="uni0122" unicode="&#x122;" horiz-adv-x="733" 
d="M282 -12q-67 0 -124 31t-92 92t-35 150t27.5 165.5t79 133.5t123.5 88.5t161 31.5q88 0 155.5 -34t99.5 -111l-148 -57q-10 26 -43.5 49t-85.5 23q-49 0 -86.5 -23.5t-63 -62.5t-38.5 -87.5t-13 -98.5q0 -80 39.5 -120.5t105.5 -40.5q34 0 68 12.5t59.5 37.5t33.5 64
l4 19h-150l27 128h312l-81 -378h-107l-6 74q-83 -86 -222 -86zM175 -246l-43 45q50 0 80.5 16.5t30.5 50.5q0 20 -11.5 35t-33.5 19l101 40q32 -13 48 -35t16 -48q0 -41 -26.5 -69.5t-69.5 -42t-92 -11.5z" />
    <glyph glyph-name="uni0136" unicode="&#x136;" horiz-adv-x="657" 
d="M-23 0l142 668h160l-50 -242l272 242h214l-331 -291l193 -377h-166l-141 277l-90 -80l-42 -197h-161zM136 -246l-43 45q50 0 80.5 16.5t30.5 50.5q0 20 -11.5 35t-33.5 19l101 40q32 -13 48 -35t16 -48q0 -41 -26.5 -69.5t-69.5 -42t-92 -11.5z" />
    <glyph glyph-name="uni013B" unicode="&#x13b;" horiz-adv-x="543" 
d="M-23 0l142 668h160l-111 -529h320l-30 -139h-481zM90 -246l-43 45q50 0 80.5 16.5t30.5 50.5q0 20 -11.5 35t-33.5 19l101 40q32 -13 48 -35t16 -48q0 -41 -26.5 -69.5t-69.5 -42t-92 -11.5z" />
    <glyph glyph-name="uni0218" unicode="&#x218;" horiz-adv-x="642" 
d="M306 -12q-109 0 -187 45t-109 124l155 52q8 -33 31 -54t54.5 -31t62.5 -10q44 0 77.5 17t33.5 48q0 25 -19.5 42t-52 29t-71.5 24t-77.5 27t-71 37.5t-52 55.5t-19.5 81q0 54 23.5 92.5t63 63.5t89.5 37t104 12q50 0 100 -13.5t93.5 -45.5t71.5 -86l-155 -52
q-13 35 -49 51.5t-73 16.5q-51 0 -78 -16.5t-27 -42.5q0 -27 19.5 -43.5t52 -28.5t71.5 -22.5t78 -24t71.5 -34.5t52 -53t19.5 -80q0 -72 -40 -120.5t-104.5 -73t-137.5 -24.5zM159 -246l-43 45q50 0 80.5 16.5t30.5 50.5q0 20 -11.5 35t-33.5 19l101 40q32 -13 48 -35
t16 -48q0 -41 -26.5 -69.5t-69.5 -42t-92 -11.5z" />
    <glyph glyph-name="uni0162" unicode="&#x162;" horiz-adv-x="617" 
d="M158 0l112 529h-213l30 139h586l-29 -139h-214l-111 -529h-161zM124 -246l-43 45q50 0 80.5 16.5t30.5 50.5q0 20 -11.5 35t-33.5 19l101 40q32 -13 48 -35t16 -48q0 -41 -26.5 -69.5t-69.5 -42t-92 -11.5z" />
    <glyph glyph-name="uni021A" unicode="&#x21a;" horiz-adv-x="617" 
d="M158 0l112 529h-213l30 139h586l-29 -139h-214l-111 -529h-161zM124 -246l-43 45q50 0 80.5 16.5t30.5 50.5q0 20 -11.5 35t-33.5 19l101 40q32 -13 48 -35t16 -48q0 -41 -26.5 -69.5t-69.5 -42t-92 -11.5z" />
    <glyph glyph-name="acutecomb" unicode="&#x301;" 
d="M105 574l14.5 14t35.5 35l42 42l35.5 35.5t15.5 14.5q15 12 34 12q28 0 44 -21q13 -14 13 -35q0 -26 -21 -43q-2 -2 -16 -10.5t-31 -18.5t-30 -17.5l-13 -7.5h-123z" />
    <glyph glyph-name="acutecomb.case" 
d="M123 731q36 35 70.5 69.5t63.5 62.5q14 14 24.5 17.5t19.5 3.5q26 0 41 -17.5t15 -38.5q0 -26 -20 -43q-5 -4 -19.5 -13t-31 -18.5t-28.5 -16l-12 -6.5h-123z" />
    <glyph glyph-name="uni0306" unicode="&#x306;" 
d="M272 577q-59 0 -98 31t-44 80h93q4 -16 19 -26.5t34 -10.5q21 0 37 10.5t22 26.5h94q-14 -46 -54.5 -78.5t-102.5 -32.5z" />
    <glyph glyph-name="uni0306.case" 
d="M290 739q-59 0 -98 31t-44 80h93q4 -16 19 -26.5t34 -10.5q21 0 37 10.5t22 26.5h94q-14 -46 -54.5 -78.5t-102.5 -32.5z" />
    <glyph glyph-name="caron.alt" horiz-adv-x="205" 
d="M75 496q14 38 27 77t26 77q7 20 22.5 29t31.5 9q24 0 39 -16.5t15 -37.5q0 -13 -3.5 -21.5t-11.5 -19.5l-63 -97h-83z" />
    <glyph glyph-name="uni030C" unicode="&#x30c;" 
d="M288 568q-32 0 -54 25l-114 127h115l56 -61l84 61h147l-190 -137q-19 -15 -44 -15z" />
    <glyph glyph-name="uni030C.case" 
d="M322 725q-32 0 -54 25l-114 127h115l56 -61l84 61h147l-190 -137q-19 -15 -44 -15z" />
    <glyph glyph-name="uni0327" unicode="&#x327;" 
d="M41 -195q-31 0 -57 5.5t-39 11.5l26 50q29 -13 60 -13q21 0 36.5 8t15.5 24q0 11 -11 18t-28 7q-13 0 -18 -2.5t-11 -2.5q-7 0 -13 4.5t-6 13.5q0 7 6 14l69 83l36 -25l-40 -48q15 3 28 3q35 0 57 -16.5t22 -42.5q0 -36 -20.5 -56t-51.5 -28t-61 -8z" />
    <glyph glyph-name="uni0302" unicode="&#x302;" 
d="M89 574l189 137q20 15 44 15q33 0 55 -25l118 -127h-116l-59 61l-84 -61h-147z" />
    <glyph glyph-name="uni0302.case" 
d="M103 731l189 137q20 15 44 15q33 0 55 -25l118 -127h-116l-59 61l-84 -61h-147z" />
    <glyph glyph-name="uni0308" unicode="&#x308;" 
d="M158 578q-29 0 -50 20.5t-21 49.5t21 50t50 21t49.5 -21t20.5 -50t-20.5 -49.5t-49.5 -20.5zM352 578q-29 0 -50 20.5t-21 49.5t21 50t50 21t49 -21t20 -50t-20 -49.5t-49 -20.5z" />
    <glyph glyph-name="uni0308.case" 
d="M209 726q-29 0 -50 20.5t-21 49.5t21 50t50 21t49.5 -21t20.5 -50t-20.5 -49.5t-49.5 -20.5zM403 726q-29 0 -50 20.5t-21 49.5t21 50t50 21t49 -21t20 -50t-20 -49.5t-49 -20.5z" />
    <glyph glyph-name="uni0307" unicode="&#x307;" 
d="M194 578q-29 0 -50 20.5t-21 49.5t21 50t50 21t49.5 -21t20.5 -50t-20.5 -49.5t-49.5 -20.5z" />
    <glyph glyph-name="uni0307.case" 
d="M209 726q-29 0 -50 20.5t-21 49.5t21 50t50 21t49.5 -21t20.5 -50t-20.5 -49.5t-49.5 -20.5z" />
    <glyph glyph-name="uni2074" unicode="&#x2074;" horiz-adv-x="433" 
d="M250 402l16 75h-192l17 77l228 223h114l-45 -214h57l-19 -86h-57l-16 -75h-103zM206 563h78l20 96z" />
    <glyph glyph-name="uni0123" unicode="&#x123;" horiz-adv-x="594" 
d="M194 -207q-50 0 -95 15t-77 42.5t-44 64.5l134 44q7 -22 31 -34.5t53 -12.5q39 0 76 22.5t47 71.5l18 85q-31 -37 -70 -55.5t-80 -18.5q-47 0 -88.5 23.5t-67 67.5t-25.5 106q0 57 18.5 110t53 95.5t81.5 67t103 24.5q48 0 88 -21t59 -61l34 67h134q-25 -119 -50 -239
t-51 -239q-18 -80 -62.5 -129.5t-102.5 -72.5t-117 -23zM247 131q46 0 76 24.5t45.5 63.5t15.5 82q0 47 -25 70.5t-63 23.5q-43 0 -72.5 -22.5t-44.5 -59.5t-15 -79q0 -49 23.5 -76t59.5 -27zM446 769l43 -45q-50 0 -80.5 -16.5t-30.5 -50.5q0 -20 11.5 -35t33.5 -19
l-101 -40q-32 13 -48 35t-16 48q0 41 26.5 69.5t69.5 42t92 11.5z" />
    <glyph glyph-name="gravecomb" unicode="&#x300;" 
d="M206 574l-13 11t-29 25.5t-25 24.5q-12 17 -12 35q0 26 21 44q14 13 35 13q27 0 43 -21q9 -12 24 -33.5t29.5 -44.5t24.5 -38.5l10 -15.5h-108z" />
    <glyph glyph-name="gravecomb.case" 
d="M167 731q-5 4 -18 15t-26.5 24t-21.5 23q-13 16 -13 37q0 23 16.5 38.5t38.5 15.5q28 0 44 -21q10 -12 23.5 -32t27.5 -41.5t24 -38t13 -20.5h-108z" />
    <glyph glyph-name="uni030B" unicode="&#x30b;" 
d="M69 572l14.5 14t35.5 35l42 42l35.5 35.5t15.5 14.5q14 13 35 13q27 0 43 -21q13 -16 13 -37q0 -27 -21 -42q-2 -1 -16 -9.5t-31 -19t-30 -18l-13 -7.5h-123zM277 572l14 14l35 35l42 42l35.5 35.5t15.5 14.5q14 13 35 13q27 0 43 -21q13 -16 13 -37q0 -27 -21 -42
q-2 -1 -16 -9.5t-31 -19t-30 -18l-13 -7.5h-122z" />
    <glyph glyph-name="uni030B.case" 
d="M125 744l14.5 14t35.5 35l42 42l35.5 35.5t15.5 14.5q14 13 35 13q27 0 43 -21q13 -16 13 -37q0 -27 -21 -42q-2 -1 -16 -9.5t-31 -19t-30 -18l-13 -7.5h-123zM333 744l14 14l35 35l42 42l35.5 35.5t15.5 14.5q14 13 35 13q27 0 43 -21q13 -16 13 -37q0 -27 -21 -42
q-2 -1 -16 -9.5t-31 -19t-30 -18l-13 -7.5h-122z" />
    <glyph glyph-name="dotlessi" unicode="&#x131;" horiz-adv-x="326" 
d="M48 0l81 380h-103l25 116h258l-105 -496h-156z" />
    <glyph glyph-name="uni0137" unicode="&#x137;" horiz-adv-x="562" 
d="M-21 0l142 668h155l-73 -341l185 169h198l-244 -213l145 -283h-163l-95 184l-68 -60l-26 -124h-156zM89 -246l-43 45q50 0 80.5 16.5t30.5 50.5q0 20 -11.5 35t-33.5 19l101 40q32 -13 48 -35t16 -48q0 -41 -26.5 -69.5t-69.5 -42t-92 -11.5z" />
    <glyph glyph-name="uni013C" unicode="&#x13c;" horiz-adv-x="317" 
d="M147 0q-66 0 -104.5 22t-38.5 77q0 9 1.5 19.5t3.5 21.5l112 528h156l-98 -464q-3 -13 -5 -24.5t-2 -20.5q0 -17 11.5 -26t43.5 -9h43l-26 -124h-97zM-21 -246l-43 45q50 0 80.5 16.5t30.5 50.5q0 20 -11.5 35t-33.5 19l101 40q32 -13 48 -35t16 -48q0 -41 -26.5 -69.5
t-69.5 -42t-92 -11.5z" />
    <glyph glyph-name="uni0304" unicode="&#x304;" 
d="M104 570l21 98h299l-21 -98h-299z" />
    <glyph glyph-name="uni0304.case" 
d="M126 747l21 98h299l-21 -98h-299z" />
    <glyph glyph-name="uni00B5" unicode="&#xb5;" horiz-adv-x="599" 
d="M-53 -161l139 657h155l-55 -261q-9 -40 -9 -73q0 -25 14.5 -40.5t39.5 -15.5q39 0 72 30t47 98l56 262h155l-71 -333q-9 -39 36 -39q7 0 13.5 1t14.5 5l-26 -124q-19 -4 -33 -5t-29 -1q-62 0 -97 17t-43 55q-24 -31 -61.5 -57.5t-93.5 -26.5q-26 0 -47 7q0 -24 -1 -46.5
t-6 -43.5l-14 -66h-156z" />
    <glyph glyph-name="uni0328" unicode="&#x328;" 
d="M89 -173q-49 0 -76 12t-38 29.5t-11 35.5q0 30 26.5 58t64.5 38h144q-41 -19 -74 -37t-33 -38q0 -14 14 -18t29 -4q14 0 29 3.5t22 5.5l-16 -76q-13 -3 -37.5 -6t-43.5 -3z" />
    <glyph glyph-name="uni0328.case" 
d="M72 -174q-47 0 -74.5 11.5t-38.5 29t-11 34.5q0 37 31 63t68 36h141q-20 -2 -44 -12t-42.5 -24.5t-22.5 -31.5q-4 -18 9.5 -24t29.5 -6q15 0 30 4t21 5l-16 -75q-12 -4 -37 -7t-44 -3z" />
    <glyph glyph-name="uni030A" unicode="&#x30a;" 
d="M260 535q-36 0 -66 18t-48 48.5t-18 66.5q0 37 18 66.5t48 47.5t66 18q37 0 67 -18t48 -47.5t18 -66.5q0 -36 -18 -66.5t-48 -48.5t-67 -18zM260 621q20 0 33.5 14t13.5 33q0 20 -13.5 33.5t-33.5 13.5q-19 0 -33 -13.5t-14 -33.5q0 -19 14 -33t33 -14z" />
    <glyph glyph-name="uni030A.case" 
d="M254 676q-36 0 -66 18t-48 48.5t-18 66.5q0 37 18 66.5t48 47.5t66 18q37 0 67 -18t48 -47.5t18 -66.5q0 -36 -18 -66.5t-48 -48.5t-67 -18zM254 762q20 0 33.5 14t13.5 33q0 20 -13.5 33.5t-33.5 13.5q-19 0 -33 -13.5t-14 -33.5q0 -19 14 -33t33 -14z" />
    <glyph glyph-name="uni0219" unicode="&#x219;" horiz-adv-x="515" 
d="M229 -13q-38 0 -84.5 9t-88 37t-66.5 83l130 44q8 -34 39 -49t65 -15q32 0 57 12t25 31q0 18 -20 29t-51.5 20t-66.5 20t-66.5 28.5t-51.5 46.5t-20 74q0 44 28 78.5t76.5 54.5t108.5 20q72 0 132.5 -24t95.5 -86l-132 -45q-10 26 -36.5 35t-61.5 9t-51 -12t-16 -25
q0 -19 20 -31t52 -20.5t68 -18.5t68 -26t52 -42.5t20 -67.5q0 -77 -60.5 -123t-164.5 -46zM86 -246l-43 45q50 0 80.5 16.5t30.5 50.5q0 20 -11.5 35t-33.5 19l101 40q32 -13 48 -35t16 -48q0 -41 -26.5 -69.5t-69.5 -42t-92 -11.5z" />
    <glyph glyph-name="uni00AD" unicode="&#xad;" horiz-adv-x="376" 
d="M10 184l28 129h326l-28 -129h-326z" />
    <glyph glyph-name="uni0163" unicode="&#x163;" horiz-adv-x="391" 
d="M193 0q-65 0 -104 21.5t-39 76.5q0 18 7 52l49 230h-78l25 116h78l26 124h155l-26 -124h108l-24 -116h-109l-37 -175q-3 -13 -5 -24.5t-2 -20.5q0 -17 11.5 -26.5t43.5 -9.5h43l-26 -124h-96zM14 -246l-43 45q50 0 80.5 16.5t30.5 50.5q0 20 -11.5 35t-33.5 19l101 40
q32 -13 48 -35t16 -48q0 -41 -26.5 -69.5t-69.5 -42t-92 -11.5z" />
    <glyph glyph-name="uni021B" unicode="&#x21b;" horiz-adv-x="391" 
d="M193 0q-65 0 -104 21.5t-39 76.5q0 18 7 52l49 230h-78l25 116h78l26 124h155l-26 -124h108l-24 -116h-109l-37 -175q-3 -13 -5 -24.5t-2 -20.5q0 -17 11.5 -26.5t43.5 -9.5h43l-26 -124h-96zM14 -246l-43 45q50 0 80.5 16.5t30.5 50.5q0 20 -11.5 35t-33.5 19l101 40
q32 -13 48 -35t16 -48q0 -41 -26.5 -69.5t-69.5 -42t-92 -11.5z" />
    <glyph glyph-name="tildecomb" unicode="&#x303;" 
d="M370 568q-28 0 -46.5 6t-32.5 13.5t-28 13.5t-34 6q-31 0 -51 -33h-89q9 29 28.5 55.5t47 43t60.5 16.5q40 0 63 -10t39.5 -20.5t36.5 -10.5q22 0 33 8t20 18t24 14q3 1 6 1.5t6 0.5q16 0 27.5 -11.5t11.5 -27.5q0 -15 -10 -28q-10 -15 -36.5 -35t-75.5 -20z" />
    <glyph glyph-name="tildecomb.case" 
d="M404 725q-28 0 -46.5 6t-32.5 13.5t-28 13.5t-34 6q-31 0 -51 -33h-89q9 29 28.5 55.5t47 43t60.5 16.5q40 0 63 -10t39.5 -20.5t36.5 -10.5q22 0 33 8t20 18t24 14q3 1 6 1.5t6 0.5q16 0 27.5 -11.5t11.5 -27.5q0 -15 -10 -28q-10 -15 -36.5 -35t-75.5 -20z" />
    <glyph glyph-name="copyleft" unicode="&#x1f12f;" horiz-adv-x="814" 
d="M409 -12q71 0 133.5 27t110 74.5t74.5 110t27 134.5q0 71 -27 133.5t-74.5 110t-110 74.5t-133.5 27q-72 0 -135 -27t-110.5 -74.5t-74.5 -110t-27 -133.5q0 -72 27 -134.5t74.5 -110t110.5 -74.5t135 -27zM409 57q-57 0 -107.5 21.5t-88.5 59.5t-59.5 88.5t-21.5 107.5
t21.5 107t59.5 88t88.5 59.5t107.5 21.5t106.5 -21.5t87.5 -59.5t59.5 -88t21.5 -107t-21.5 -107.5t-59.5 -88.5t-87.5 -59.5t-106.5 -21.5zM406 145q88 0 135.5 52t47.5 137q0 57 -23.5 99t-64.5 65.5t-95 23.5q-47 0 -92.5 -20.5t-70.5 -73.5l92 -34q9 23 26 33t39 10
q29 0 53 -23.5t24 -79.5q0 -58 -24.5 -81t-52.5 -23q-47 0 -66 34l-90 -33q28 -48 73 -67t89 -19z" />
    <glyph glyph-name="zero.alt1" horiz-adv-x="652" 
d="M298 -12q-92.9854 0 -151.948 42.8252q-58.3262 42.3623 -82.9414 122.081q-24.1377 78.168 -12.9004 184.09q4.3457 36.5273 9.91016 63.0156q27.7793 132.226 107.707 206.92q79.1299 73.9482 205.129 73.0684q139.802 -0.976562 202.606 -92.8398
q63.1045 -92.2998 46.2295 -254.136q-4.41406 -37.1006 -10.0342 -63.8564q-27.3818 -130.33 -107.183 -206.115q-79.0293 -75.0527 -206.575 -75.0527zM205.554 227.912l219.5 315.468q-27.1748 23.1904 -64.1748 23.4473q-45 0.31543 -74.5596 -25.9795
q-29.5596 -26.293 -46.2402 -65.1768q-16.6816 -38.8828 -25.0723 -78.8252q-3.35742 -15.9756 -5.6084 -31.4609q-2.25293 -15.4951 -3.18848 -29.4775q-3.50391 -30.9756 -3.66699 -57.9746q-0.164062 -26.999 3.01074 -50.0205zM311.121 101.175
q59 -0.411133 94.7793 48.3389t51.3027 122.642q3.14648 14.9775 4.89844 30.4658t4.1084 31.4707q4.13184 33.9707 3.61133 62.4756q-0.521484 28.5029 -3.48633 52.5244l-222.55 -320.446q27.3359 -27.1924 67.3359 -27.4707z" />
    </font>
</defs>
</svg>
